<svg width="50" height="50" viewBox="0 0 50 50" fill="none" xmlns="http://www.w3.org/2000/svg">
<circle cx="25" cy="25" r="25" fill="#9747FF"/>
<path d="M12.08 16.32H22.04V19.2H16.4V21.696H21.152V24.288H16.4V27.072H22.016V30H12.08V16.32ZM35.7832 33.312L32.1352 30.144C31.4632 30.256 30.8312 30.312 30.2392 30.312C27.8552 30.312 26.0632 29.752 24.8632 28.632C23.6792 27.496 23.0872 25.68 23.0872 23.184C23.0872 20.736 23.7432 18.952 25.0552 17.832C26.3672 16.712 28.1032 16.152 30.2632 16.152C34.8072 16.152 37.0792 18.416 37.0792 22.944C37.0792 25.424 36.4552 27.296 35.2072 28.56L37.8712 30.408L35.7832 33.312ZM30.1432 27.48C30.5912 27.48 30.9672 27.408 31.2712 27.264C31.5752 27.104 31.8152 26.832 31.9912 26.448C32.3272 25.792 32.4952 24.72 32.4952 23.232C32.4952 21.776 32.3272 20.72 31.9912 20.064C31.6552 19.392 31.0392 19.04 30.1432 19.008C29.8072 19.008 29.4552 19.048 29.0872 19.128C28.7352 19.192 28.5112 19.288 28.4152 19.416C28.2232 19.64 28.0712 20.12 27.9592 20.856C27.8632 21.576 27.8152 22.368 27.8152 23.232C27.8152 24.576 27.9432 25.56 28.1992 26.184C28.3752 26.648 28.6232 26.984 28.9432 27.192C29.2632 27.384 29.6632 27.48 30.1432 27.48Z" fill="white"/>
</svg>
