<svg width="168" height="161" viewBox="0 0 168 161" fill="none" xmlns="http://www.w3.org/2000/svg">
<mask id="mask0_16_2180" style="mask-type:alpha" maskUnits="userSpaceOnUse" x="0" y="0" width="14" height="15">
<path d="M6.79227 14.5476C10.4711 14.5476 13.4533 11.2909 13.4533 7.27373C13.4533 3.25655 10.4711 0 6.79227 0C3.11347 0 0.131226 3.25655 0.131226 7.27373C0.131226 11.2909 3.11347 14.5476 6.79227 14.5476Z" fill="#221D4F" fill-opacity="0.63"/>
</mask>
<g mask="url(#mask0_16_2180)">
<path d="M6.79227 14.5476C10.4711 14.5476 13.4533 11.2909 13.4533 7.27373C13.4533 3.25655 10.4711 0 6.79227 0C3.11347 0 0.131226 3.25655 0.131226 7.27373C0.131226 11.2909 3.11347 14.5476 6.79227 14.5476Z" fill="#221D4F" fill-opacity="0.63"/>
</g>
<mask id="mask1_16_2180" style="mask-type:alpha" maskUnits="userSpaceOnUse" x="38" y="0" width="15" height="15">
<path d="M45.3709 14.5476C49.0497 14.5476 52.032 11.2909 52.032 7.27373C52.032 3.25655 49.0497 0 45.3709 0C41.6921 0 38.7098 3.25655 38.7098 7.27373C38.7098 11.2909 41.6921 14.5476 45.3709 14.5476Z" fill="#221D4F" fill-opacity="0.63"/>
</mask>
<g mask="url(#mask1_16_2180)">
<path d="M45.3709 14.5476C49.0497 14.5476 52.032 11.2909 52.032 7.27373C52.032 3.25655 49.0497 0 45.3709 0C41.6921 0 38.7098 3.25655 38.7098 7.27373C38.7098 11.2909 41.6921 14.5476 45.3709 14.5476Z" fill="#221D4F" fill-opacity="0.63"/>
</g>
<mask id="mask2_16_2180" style="mask-type:alpha" maskUnits="userSpaceOnUse" x="77" y="0" width="14" height="15">
<path d="M83.9496 14.5476C87.6284 14.5476 90.6107 11.2909 90.6107 7.27373C90.6107 3.25655 87.6284 0 83.9496 0C80.2708 0 77.2886 3.25655 77.2886 7.27373C77.2886 11.2909 80.2708 14.5476 83.9496 14.5476Z" fill="#221D4F" fill-opacity="0.63"/>
</mask>
<g mask="url(#mask2_16_2180)">
<path d="M83.9496 14.5476C87.6284 14.5476 90.6107 11.2909 90.6107 7.27373C90.6107 3.25655 87.6284 0 83.9496 0C80.2708 0 77.2886 3.25655 77.2886 7.27373C77.2886 11.2909 80.2708 14.5476 83.9496 14.5476Z" fill="#221D4F" fill-opacity="0.63"/>
</g>
<mask id="mask3_16_2180" style="mask-type:alpha" maskUnits="userSpaceOnUse" x="115" y="0" width="15" height="15">
<path d="M122.528 14.5476C126.207 14.5476 129.189 11.2909 129.189 7.27373C129.189 3.25655 126.207 0 122.528 0C118.849 0 115.867 3.25655 115.867 7.27373C115.867 11.2909 118.849 14.5476 122.528 14.5476Z" fill="#221D4F" fill-opacity="0.63"/>
</mask>
<g mask="url(#mask3_16_2180)">
<path d="M122.528 14.5476C126.207 14.5476 129.189 11.2909 129.189 7.27373C129.189 3.25655 126.207 0 122.528 0C118.849 0 115.867 3.25655 115.867 7.27373C115.867 11.2909 118.849 14.5476 122.528 14.5476Z" fill="#221D4F" fill-opacity="0.63"/>
</g>
<mask id="mask4_16_2180" style="mask-type:alpha" maskUnits="userSpaceOnUse" x="154" y="0" width="14" height="15">
<path d="M161.107 14.5476C164.786 14.5476 167.768 11.2909 167.768 7.27373C167.768 3.25655 164.786 0 161.107 0C157.428 0 154.446 3.25655 154.446 7.27373C154.446 11.2909 157.428 14.5476 161.107 14.5476Z" fill="#221D4F" fill-opacity="0.63"/>
</mask>
<g mask="url(#mask4_16_2180)">
<path d="M161.107 14.5476C164.786 14.5476 167.768 11.2909 167.768 7.27373C167.768 3.25655 164.786 0 161.107 0C157.428 0 154.446 3.25655 154.446 7.27373C154.446 11.2909 157.428 14.5476 161.107 14.5476Z" fill="#221D4F" fill-opacity="0.63"/>
</g>
<mask id="mask5_16_2180" style="mask-type:alpha" maskUnits="userSpaceOnUse" x="0" y="36" width="14" height="16">
<path d="M6.79227 51.0679C10.4711 51.0679 13.4533 47.8114 13.4533 43.7942C13.4533 39.777 10.4711 36.5205 6.79227 36.5205C3.11347 36.5205 0.131226 39.777 0.131226 43.7942C0.131226 47.8114 3.11347 51.0679 6.79227 51.0679Z" fill="#221D4F" fill-opacity="0.63"/>
</mask>
<g mask="url(#mask5_16_2180)">
<path d="M6.79227 51.0679C10.4711 51.0679 13.4533 47.8114 13.4533 43.7942C13.4533 39.777 10.4711 36.5205 6.79227 36.5205C3.11347 36.5205 0.131226 39.777 0.131226 43.7942C0.131226 47.8114 3.11347 51.0679 6.79227 51.0679Z" fill="#221D4F" fill-opacity="0.63"/>
</g>
<mask id="mask6_16_2180" style="mask-type:alpha" maskUnits="userSpaceOnUse" x="38" y="36" width="15" height="16">
<path d="M45.3709 51.0679C49.0497 51.0679 52.032 47.8114 52.032 43.7942C52.032 39.777 49.0497 36.5205 45.3709 36.5205C41.6921 36.5205 38.7098 39.777 38.7098 43.7942C38.7098 47.8114 41.6921 51.0679 45.3709 51.0679Z" fill="#221D4F" fill-opacity="0.63"/>
</mask>
<g mask="url(#mask6_16_2180)">
<path d="M45.3709 51.0679C49.0497 51.0679 52.032 47.8114 52.032 43.7942C52.032 39.777 49.0497 36.5205 45.3709 36.5205C41.6921 36.5205 38.7098 39.777 38.7098 43.7942C38.7098 47.8114 41.6921 51.0679 45.3709 51.0679Z" fill="#221D4F" fill-opacity="0.63"/>
</g>
<mask id="mask7_16_2180" style="mask-type:alpha" maskUnits="userSpaceOnUse" x="77" y="36" width="14" height="16">
<path d="M83.9496 51.0679C87.6284 51.0679 90.6107 47.8114 90.6107 43.7942C90.6107 39.777 87.6284 36.5205 83.9496 36.5205C80.2708 36.5205 77.2886 39.777 77.2886 43.7942C77.2886 47.8114 80.2708 51.0679 83.9496 51.0679Z" fill="#221D4F" fill-opacity="0.63"/>
</mask>
<g mask="url(#mask7_16_2180)">
<path d="M83.9496 51.0679C87.6284 51.0679 90.6107 47.8114 90.6107 43.7942C90.6107 39.777 87.6284 36.5205 83.9496 36.5205C80.2708 36.5205 77.2886 39.777 77.2886 43.7942C77.2886 47.8114 80.2708 51.0679 83.9496 51.0679Z" fill="#221D4F" fill-opacity="0.63"/>
</g>
<mask id="mask8_16_2180" style="mask-type:alpha" maskUnits="userSpaceOnUse" x="115" y="36" width="15" height="16">
<path d="M122.528 51.0679C126.207 51.0679 129.189 47.8114 129.189 43.7942C129.189 39.777 126.207 36.5205 122.528 36.5205C118.849 36.5205 115.867 39.777 115.867 43.7942C115.867 47.8114 118.849 51.0679 122.528 51.0679Z" fill="#221D4F" fill-opacity="0.63"/>
</mask>
<g mask="url(#mask8_16_2180)">
<path d="M122.528 51.0679C126.207 51.0679 129.189 47.8114 129.189 43.7942C129.189 39.777 126.207 36.5205 122.528 36.5205C118.849 36.5205 115.867 39.777 115.867 43.7942C115.867 47.8114 118.849 51.0679 122.528 51.0679Z" fill="#221D4F" fill-opacity="0.63"/>
</g>
<mask id="mask9_16_2180" style="mask-type:alpha" maskUnits="userSpaceOnUse" x="154" y="36" width="14" height="16">
<path d="M161.107 51.0679C164.786 51.0679 167.768 47.8114 167.768 43.7942C167.768 39.777 164.786 36.5205 161.107 36.5205C157.428 36.5205 154.446 39.777 154.446 43.7942C154.446 47.8114 157.428 51.0679 161.107 51.0679Z" fill="#221D4F" fill-opacity="0.63"/>
</mask>
<g mask="url(#mask9_16_2180)">
<path d="M161.107 51.0679C164.786 51.0679 167.768 47.8114 167.768 43.7942C167.768 39.777 164.786 36.5205 161.107 36.5205C157.428 36.5205 154.446 39.777 154.446 43.7942C154.446 47.8114 157.428 51.0679 161.107 51.0679Z" fill="#221D4F" fill-opacity="0.63"/>
</g>
<mask id="mask10_16_2180" style="mask-type:alpha" maskUnits="userSpaceOnUse" x="0" y="72" width="14" height="16">
<path d="M6.79227 87.5124C10.4711 87.5124 13.4533 84.2558 13.4533 80.2386C13.4533 76.2214 10.4711 72.9648 6.79227 72.9648C3.11347 72.9648 0.131226 76.2214 0.131226 80.2386C0.131226 84.2558 3.11347 87.5124 6.79227 87.5124Z" fill="#221D4F" fill-opacity="0.63"/>
</mask>
<g mask="url(#mask10_16_2180)">
<path d="M6.79227 87.5124C10.4711 87.5124 13.4533 84.2558 13.4533 80.2386C13.4533 76.2214 10.4711 72.9648 6.79227 72.9648C3.11347 72.9648 0.131226 76.2214 0.131226 80.2386C0.131226 84.2558 3.11347 87.5124 6.79227 87.5124Z" fill="#221D4F" fill-opacity="0.63"/>
</g>
<mask id="mask11_16_2180" style="mask-type:alpha" maskUnits="userSpaceOnUse" x="38" y="72" width="15" height="16">
<path d="M45.3709 87.5124C49.0497 87.5124 52.032 84.2558 52.032 80.2386C52.032 76.2214 49.0497 72.9648 45.3709 72.9648C41.6921 72.9648 38.7098 76.2214 38.7098 80.2386C38.7098 84.2558 41.6921 87.5124 45.3709 87.5124Z" fill="#221D4F" fill-opacity="0.63"/>
</mask>
<g mask="url(#mask11_16_2180)">
<path d="M45.3709 87.5124C49.0497 87.5124 52.032 84.2558 52.032 80.2386C52.032 76.2214 49.0497 72.9648 45.3709 72.9648C41.6921 72.9648 38.7098 76.2214 38.7098 80.2386C38.7098 84.2558 41.6921 87.5124 45.3709 87.5124Z" fill="#221D4F" fill-opacity="0.63"/>
</g>
<mask id="mask12_16_2180" style="mask-type:alpha" maskUnits="userSpaceOnUse" x="77" y="72" width="14" height="16">
<path d="M83.9496 87.5124C87.6284 87.5124 90.6107 84.2558 90.6107 80.2386C90.6107 76.2214 87.6284 72.9648 83.9496 72.9648C80.2708 72.9648 77.2886 76.2214 77.2886 80.2386C77.2886 84.2558 80.2708 87.5124 83.9496 87.5124Z" fill="#221D4F" fill-opacity="0.63"/>
</mask>
<g mask="url(#mask12_16_2180)">
<path d="M83.9496 87.5124C87.6284 87.5124 90.6107 84.2558 90.6107 80.2386C90.6107 76.2214 87.6284 72.9648 83.9496 72.9648C80.2708 72.9648 77.2886 76.2214 77.2886 80.2386C77.2886 84.2558 80.2708 87.5124 83.9496 87.5124Z" fill="#221D4F" fill-opacity="0.63"/>
</g>
<mask id="mask13_16_2180" style="mask-type:alpha" maskUnits="userSpaceOnUse" x="115" y="72" width="15" height="16">
<path d="M122.528 87.5124C126.207 87.5124 129.189 84.2558 129.189 80.2386C129.189 76.2214 126.207 72.9648 122.528 72.9648C118.849 72.9648 115.867 76.2214 115.867 80.2386C115.867 84.2558 118.849 87.5124 122.528 87.5124Z" fill="#221D4F" fill-opacity="0.63"/>
</mask>
<g mask="url(#mask13_16_2180)">
<path d="M122.528 87.5124C126.207 87.5124 129.189 84.2558 129.189 80.2386C129.189 76.2214 126.207 72.9648 122.528 72.9648C118.849 72.9648 115.867 76.2214 115.867 80.2386C115.867 84.2558 118.849 87.5124 122.528 87.5124Z" fill="#221D4F" fill-opacity="0.63"/>
</g>
<mask id="mask14_16_2180" style="mask-type:alpha" maskUnits="userSpaceOnUse" x="154" y="72" width="14" height="16">
<path d="M161.107 87.5124C164.786 87.5124 167.768 84.2558 167.768 80.2386C167.768 76.2214 164.786 72.9648 161.107 72.9648C157.428 72.9648 154.446 76.2214 154.446 80.2386C154.446 84.2558 157.428 87.5124 161.107 87.5124Z" fill="#221D4F" fill-opacity="0.63"/>
</mask>
<g mask="url(#mask14_16_2180)">
<path d="M161.107 87.5124C164.786 87.5124 167.768 84.2558 167.768 80.2386C167.768 76.2214 164.786 72.9648 161.107 72.9648C157.428 72.9648 154.446 76.2214 154.446 80.2386C154.446 84.2558 157.428 87.5124 161.107 87.5124Z" fill="#221D4F" fill-opacity="0.63"/>
</g>
<mask id="mask15_16_2180" style="mask-type:alpha" maskUnits="userSpaceOnUse" x="0" y="109" width="14" height="16">
<path d="M6.79227 124.033C10.4711 124.033 13.4533 120.776 13.4533 116.759C13.4533 112.742 10.4711 109.485 6.79227 109.485C3.11347 109.485 0.131226 112.742 0.131226 116.759C0.131226 120.776 3.11347 124.033 6.79227 124.033Z" fill="#221D4F" fill-opacity="0.63"/>
</mask>
<g mask="url(#mask15_16_2180)">
<path d="M6.79227 124.033C10.4711 124.033 13.4533 120.776 13.4533 116.759C13.4533 112.742 10.4711 109.485 6.79227 109.485C3.11347 109.485 0.131226 112.742 0.131226 116.759C0.131226 120.776 3.11347 124.033 6.79227 124.033Z" fill="#221D4F" fill-opacity="0.63"/>
</g>
<mask id="mask16_16_2180" style="mask-type:alpha" maskUnits="userSpaceOnUse" x="38" y="109" width="15" height="16">
<path d="M45.3709 124.033C49.0497 124.033 52.032 120.776 52.032 116.759C52.032 112.742 49.0497 109.485 45.3709 109.485C41.6921 109.485 38.7098 112.742 38.7098 116.759C38.7098 120.776 41.6921 124.033 45.3709 124.033Z" fill="#221D4F" fill-opacity="0.63"/>
</mask>
<g mask="url(#mask16_16_2180)">
<path d="M45.3709 124.033C49.0497 124.033 52.032 120.776 52.032 116.759C52.032 112.742 49.0497 109.485 45.3709 109.485C41.6921 109.485 38.7098 112.742 38.7098 116.759C38.7098 120.776 41.6921 124.033 45.3709 124.033Z" fill="#221D4F" fill-opacity="0.63"/>
</g>
<mask id="mask17_16_2180" style="mask-type:alpha" maskUnits="userSpaceOnUse" x="77" y="109" width="14" height="16">
<path d="M83.9496 124.033C87.6284 124.033 90.6107 120.776 90.6107 116.759C90.6107 112.742 87.6284 109.485 83.9496 109.485C80.2708 109.485 77.2886 112.742 77.2886 116.759C77.2886 120.776 80.2708 124.033 83.9496 124.033Z" fill="#221D4F" fill-opacity="0.63"/>
</mask>
<g mask="url(#mask17_16_2180)">
<path d="M83.9496 124.033C87.6284 124.033 90.6107 120.776 90.6107 116.759C90.6107 112.742 87.6284 109.485 83.9496 109.485C80.2708 109.485 77.2886 112.742 77.2886 116.759C77.2886 120.776 80.2708 124.033 83.9496 124.033Z" fill="#221D4F" fill-opacity="0.63"/>
</g>
<mask id="mask18_16_2180" style="mask-type:alpha" maskUnits="userSpaceOnUse" x="115" y="109" width="15" height="16">
<path d="M122.528 124.033C126.207 124.033 129.189 120.776 129.189 116.759C129.189 112.742 126.207 109.485 122.528 109.485C118.849 109.485 115.867 112.742 115.867 116.759C115.867 120.776 118.849 124.033 122.528 124.033Z" fill="#221D4F" fill-opacity="0.63"/>
</mask>
<g mask="url(#mask18_16_2180)">
<path d="M122.528 124.033C126.207 124.033 129.189 120.776 129.189 116.759C129.189 112.742 126.207 109.485 122.528 109.485C118.849 109.485 115.867 112.742 115.867 116.759C115.867 120.776 118.849 124.033 122.528 124.033Z" fill="#221D4F" fill-opacity="0.63"/>
</g>
<mask id="mask19_16_2180" style="mask-type:alpha" maskUnits="userSpaceOnUse" x="154" y="109" width="14" height="16">
<path d="M161.107 124.033C164.786 124.033 167.768 120.776 167.768 116.759C167.768 112.742 164.786 109.485 161.107 109.485C157.428 109.485 154.446 112.742 154.446 116.759C154.446 120.776 157.428 124.033 161.107 124.033Z" fill="#221D4F" fill-opacity="0.63"/>
</mask>
<g mask="url(#mask19_16_2180)">
<path d="M161.107 124.033C164.786 124.033 167.768 120.776 167.768 116.759C167.768 112.742 164.786 109.485 161.107 109.485C157.428 109.485 154.446 112.742 154.446 116.759C154.446 120.776 157.428 124.033 161.107 124.033Z" fill="#221D4F" fill-opacity="0.63"/>
</g>
<mask id="mask20_16_2180" style="mask-type:alpha" maskUnits="userSpaceOnUse" x="0" y="145" width="14" height="16">
<path d="M6.79227 160.477C10.4711 160.477 13.4533 157.221 13.4533 153.204C13.4533 149.186 10.4711 145.93 6.79227 145.93C3.11347 145.93 0.131226 149.186 0.131226 153.204C0.131226 157.221 3.11347 160.477 6.79227 160.477Z" fill="#221D4F" fill-opacity="0.63"/>
</mask>
<g mask="url(#mask20_16_2180)">
<path d="M6.79227 160.477C10.4711 160.477 13.4533 157.221 13.4533 153.204C13.4533 149.186 10.4711 145.93 6.79227 145.93C3.11347 145.93 0.131226 149.186 0.131226 153.204C0.131226 157.221 3.11347 160.477 6.79227 160.477Z" fill="#221D4F" fill-opacity="0.63"/>
</g>
<mask id="mask21_16_2180" style="mask-type:alpha" maskUnits="userSpaceOnUse" x="38" y="145" width="15" height="16">
<path d="M45.3709 160.477C49.0497 160.477 52.032 157.221 52.032 153.204C52.032 149.186 49.0497 145.93 45.3709 145.93C41.6921 145.93 38.7098 149.186 38.7098 153.204C38.7098 157.221 41.6921 160.477 45.3709 160.477Z" fill="#221D4F" fill-opacity="0.63"/>
</mask>
<g mask="url(#mask21_16_2180)">
<path d="M45.3709 160.477C49.0497 160.477 52.032 157.221 52.032 153.204C52.032 149.186 49.0497 145.93 45.3709 145.93C41.6921 145.93 38.7098 149.186 38.7098 153.204C38.7098 157.221 41.6921 160.477 45.3709 160.477Z" fill="#221D4F" fill-opacity="0.63"/>
</g>
<mask id="mask22_16_2180" style="mask-type:alpha" maskUnits="userSpaceOnUse" x="77" y="145" width="14" height="16">
<path d="M83.9496 160.477C87.6284 160.477 90.6107 157.221 90.6107 153.204C90.6107 149.186 87.6284 145.93 83.9496 145.93C80.2708 145.93 77.2886 149.186 77.2886 153.204C77.2886 157.221 80.2708 160.477 83.9496 160.477Z" fill="#221D4F" fill-opacity="0.63"/>
</mask>
<g mask="url(#mask22_16_2180)">
<path d="M83.9496 160.477C87.6284 160.477 90.6107 157.221 90.6107 153.204C90.6107 149.186 87.6284 145.93 83.9496 145.93C80.2708 145.93 77.2886 149.186 77.2886 153.204C77.2886 157.221 80.2708 160.477 83.9496 160.477Z" fill="#221D4F" fill-opacity="0.63"/>
</g>
<mask id="mask23_16_2180" style="mask-type:alpha" maskUnits="userSpaceOnUse" x="115" y="145" width="15" height="16">
<path d="M122.528 160.477C126.207 160.477 129.189 157.221 129.189 153.204C129.189 149.186 126.207 145.93 122.528 145.93C118.849 145.93 115.867 149.186 115.867 153.204C115.867 157.221 118.849 160.477 122.528 160.477Z" fill="#221D4F" fill-opacity="0.63"/>
</mask>
<g mask="url(#mask23_16_2180)">
<path d="M122.528 160.477C126.207 160.477 129.189 157.221 129.189 153.204C129.189 149.186 126.207 145.93 122.528 145.93C118.849 145.93 115.867 149.186 115.867 153.204C115.867 157.221 118.849 160.477 122.528 160.477Z" fill="#221D4F" fill-opacity="0.63"/>
</g>
<mask id="mask24_16_2180" style="mask-type:alpha" maskUnits="userSpaceOnUse" x="154" y="145" width="14" height="16">
<path d="M161.107 160.477C164.786 160.477 167.768 157.221 167.768 153.204C167.768 149.186 164.786 145.93 161.107 145.93C157.428 145.93 154.446 149.186 154.446 153.204C154.446 157.221 157.428 160.477 161.107 160.477Z" fill="#221D4F" fill-opacity="0.63"/>
</mask>
<g mask="url(#mask24_16_2180)">
<path d="M161.107 160.477C164.786 160.477 167.768 157.221 167.768 153.204C167.768 149.186 164.786 145.93 161.107 145.93C157.428 145.93 154.446 149.186 154.446 153.204C154.446 157.221 157.428 160.477 161.107 160.477Z" fill="#221D4F" fill-opacity="0.63"/>
</g>
</svg>
