<svg width="767" height="606" viewBox="0 0 767 606" fill="none" xmlns="http://www.w3.org/2000/svg">
<path d="M673.744 588.053L657.799 588.052L650.214 527.054L673.747 527.055L673.744 588.053Z" fill="#FFB6B6"/>
<path d="M674.305 604.55L625.273 604.549V603.934C625.273 593.48 633.818 585.006 644.358 585.006L653.315 578.266L670.026 585.007L674.306 585.007L674.305 604.55Z" fill="#2F2E41"/>
<path d="M603.055 588.053L587.11 588.052L579.525 527.054L603.058 527.055L603.055 588.053Z" fill="#FFB6B6"/>
<path d="M603.616 604.55L554.583 604.549V603.934C554.584 593.48 563.128 585.006 573.668 585.006L582.626 578.266L599.337 585.007L603.617 585.007L603.616 604.55Z" fill="#2F2E41"/>
<path d="M595.457 247.637L687.45 249.558C687.45 249.558 703.988 276.449 691.361 314.385L692.775 324.95L686.965 341.277L684.06 391.218L686.965 398.901L685.029 413.307C685.029 413.307 692.776 508.387 673.409 556.408L650.168 555.447L641.453 430.16L646.295 420.99L645.327 417.149L633.706 359.524L622.086 389.297V405.839L611.434 418.109C611.434 418.109 615.308 531.437 604.656 554.487H578.637L568.827 400.822L578.511 311.504L576.574 305.742L579.479 302.86L577.542 293.256L595.457 247.637Z" fill="#2F2E41"/>
<path d="M634.675 72.3627L662.757 65.6399L670.503 83.8876C670.503 83.8876 710.584 105.017 712.521 133.829C712.521 133.829 717.952 156.879 713.111 167.443C708.269 178.007 687.934 211.622 687.934 211.622C687.934 211.622 706.332 270.206 701.491 273.088C696.649 275.969 581.416 270.206 581.416 264.444C581.416 258.682 600.593 198.176 600.593 198.176L604.656 94.4521L630.801 84.848L634.675 72.3627Z" fill="#3F3D56"/>
<path d="M709.54 308.781C703.662 305.844 701.298 298.737 704.26 292.907C704.558 292.321 704.909 291.779 705.286 291.265L689.66 185.009L711.294 185.695L722.61 289.225C726.712 292.676 728.072 298.571 725.545 303.545C722.583 309.374 715.418 311.718 709.54 308.781Z" fill="#FFB6B6"/>
<path d="M504.269 258.632C501.903 252.54 504.963 245.7 511.105 243.353C511.723 243.117 512.35 242.949 512.977 242.82L573.343 153.678L588.908 168.595L527.195 252.846C527.898 258.135 524.915 263.409 519.675 265.411C513.533 267.758 506.636 264.723 504.269 258.632Z" fill="#FFB6B6"/>
<path d="M670.119 158.208C664.007 137.381 674.159 116.132 696.029 116.235C702.35 116.265 707.262 118.084 708.623 123.12C713.387 140.745 715.984 167.351 715.984 167.351L721.636 195.678L718.213 201.559L725.349 220.543L721.887 229.524L721.139 275.386L703.708 274.426L684.504 239.463L677.16 235.132C677.16 235.132 683.056 178.602 671.328 162.326L670.119 158.208Z" fill="#3F3D56"/>
<path d="M592.045 106.952C602.237 87.7603 628.33 83.2143 643.989 98.3574C648.515 102.734 650.773 107.427 648.225 111.987C639.305 127.947 618.63 145.131 618.63 145.131L593.17 185.727L586.588 187.599L578.423 206.17L560.928 226.571L537.755 238.692L524.198 225.246L527.077 207.962L561.963 161.859C561.963 161.859 587.065 130.536 590.03 110.747L592.045 106.952Z" fill="#3F3D56"/>
<path d="M640.011 66.7496C640.652 66.826 641.291 66.8834 641.928 66.9122C643.907 67.0198 645.862 66.9079 647.746 66.591C653.471 65.6809 658.673 62.9914 662.686 59.0473C666.929 54.8856 669.833 49.3308 670.618 43.007C672.457 28.0802 661.74 14.483 646.69 12.6591C631.856 10.8508 618.333 21.1411 616.175 35.7253C616.141 35.9511 616.106 36.1673 616.082 36.3921C614.244 51.3284 624.95 64.9172 640.011 66.7496Z" fill="#FFB6B6"/>
<path d="M609.986 34.7261C613.885 36.6382 620.255 30.6268 622.695 34.0855C623.091 33.338 623.529 32.6151 623.961 31.9315C624.352 31.3199 624.912 30.0141 625.56 29.7905C624.74 31.7519 624.921 34.4082 625.772 36.6841C629.617 38.1092 634.651 34.9545 638.211 31.2231C643.8 25.3723 652.926 40.3756 650.768 48.1401C653.514 44.8141 659.473 46.69 661.493 50.4929C663.511 54.2864 660.101 57.3258 659.371 61.5571L664.877 60.8637C668.35 57.5084 668.107 51.8546 670.968 47.9658C675.745 41.4578 677.597 34.8174 674.005 28.1008C670.819 22.162 670.521 14.4759 664.677 11.052C667.23 9.81364 658.149 11.7482 660.575 7.71265C663.011 3.68557 650.024 3.19679 649.177 5.35427C645.466 0.949308 641.723 -1.95497 637.158 1.57466C632.675 5.04726 633.139 8.69735 627.873 8.37024C625.402 8.21841 625.674 12.7874 624.205 14.7794C622.745 16.7607 617.068 18.0326 616.792 17.8206C615.293 16.6572 610.192 26.5612 610.192 26.5612C610.192 26.5612 606.056 32.7884 609.986 34.7261Z" fill="#2F2E41"/>
<path d="M266.375 207.59C358.623 207.59 433.406 281.759 433.406 373.251C433.406 464.744 358.623 538.913 266.375 538.913C174.126 538.913 46.4569 448.202 99.3432 373.251C152.23 298.301 174.126 207.59 266.375 207.59Z" fill="#CFAAFF"/>
<path d="M489.934 215.47C488.436 215.47 487.218 216.678 487.218 218.164V304.362C487.218 305.848 488.436 307.056 489.934 307.056C491.432 307.056 492.65 305.848 492.65 304.362V218.164C492.65 216.678 491.432 215.47 489.934 215.47Z" fill="#3F3D56"/>
<path d="M33.6532 150.822C32.1553 150.822 30.9372 152.03 30.9372 153.515V175.065C30.9372 176.551 32.1553 177.759 33.6532 177.759C35.151 177.759 36.3691 176.551 36.3691 175.065V153.515C36.3691 152.03 35.151 150.822 33.6532 150.822Z" fill="#3F3D56"/>
<path d="M33.6532 215.47C32.1553 215.47 30.9372 216.678 30.9372 218.164V259.916C30.9372 261.402 32.1553 262.61 33.6532 262.61C35.151 262.61 36.3691 261.402 36.3691 259.916V218.164C36.3691 216.678 35.151 215.47 33.6532 215.47Z" fill="#3F3D56"/>
<path d="M33.6532 274.731C32.1553 274.731 30.9372 275.94 30.9372 277.425V319.177C30.9372 320.663 32.1553 321.871 33.6532 321.871C35.151 321.871 36.3691 320.663 36.3691 319.177V277.425C36.3691 275.94 35.151 274.731 33.6532 274.731Z" fill="#3F3D56"/>
<path d="M277.238 65.9707C275.74 65.9707 274.522 67.1788 274.522 68.6644V110.417C274.522 111.902 275.74 113.11 277.238 113.11C278.736 113.11 279.954 111.902 279.954 110.417V68.6644C279.954 67.1788 278.736 65.9707 277.238 65.9707Z" fill="#3F3D56"/>
<path d="M693.317 582.655C696.123 582.829 697.673 579.372 695.551 577.358L695.34 576.525C695.367 576.458 695.396 576.392 695.424 576.325C698.261 569.615 707.876 569.662 710.689 576.381C713.186 582.345 716.365 588.32 717.147 594.626C717.498 597.409 717.34 600.245 716.718 602.977C722.568 590.302 725.647 576.462 725.647 562.543C725.647 559.046 725.454 555.549 725.059 552.061C724.734 549.208 724.287 546.372 723.708 543.562C720.577 528.373 713.797 513.907 704.017 501.824C699.316 499.275 695.395 495.291 693.027 490.515C692.176 488.793 691.51 486.94 691.194 485.052C691.729 485.122 693.211 477.04 692.808 476.544C693.554 475.422 694.888 474.864 695.702 473.769C699.752 468.323 705.332 469.274 708.245 476.675C714.468 479.79 714.528 484.955 710.71 489.923C708.281 493.084 707.947 497.361 705.815 500.745C706.035 501.023 706.263 501.293 706.482 501.572C710.503 506.687 713.981 512.185 716.913 517.961C716.084 511.541 717.307 503.808 719.393 498.823C721.767 493.143 726.217 488.359 730.135 483.448C734.842 477.55 744.494 480.124 745.323 487.601C745.331 487.674 745.339 487.746 745.346 487.818C744.764 488.144 744.194 488.49 743.637 488.855C740.46 490.939 741.558 495.824 745.322 496.4L745.408 496.413C745.197 498.492 744.838 500.554 744.311 502.581C749.338 521.862 738.486 528.884 722.989 529.2C722.647 529.374 722.314 529.548 721.972 529.713C723.542 534.097 724.796 538.595 725.726 543.153C726.559 547.181 727.138 551.252 727.462 555.341C727.866 560.499 727.831 565.684 727.392 570.834L727.418 570.651C728.532 564.979 731.637 559.681 736.146 556.01C742.862 550.539 752.35 548.524 759.596 544.126C763.083 542.008 767.553 544.744 766.944 548.755L766.914 548.947C765.835 549.382 764.783 549.886 763.765 550.452C763.183 550.777 762.613 551.123 762.056 551.489C758.879 553.573 759.977 558.457 763.742 559.033L763.827 559.046C763.888 559.055 763.941 559.064 764.002 559.073C762.152 563.431 759.573 567.476 756.345 570.964C753.202 587.796 739.702 589.393 725.261 584.491H725.252C723.673 591.311 721.366 597.975 718.402 604.325H693.931C693.843 604.055 693.764 603.777 693.685 603.507C695.948 603.647 698.229 603.516 700.456 603.107C698.641 600.898 696.825 598.671 695.01 596.461C694.966 596.418 694.931 596.374 694.896 596.331C693.975 595.2 693.045 594.078 692.124 592.947L692.123 592.945C692.066 589.474 692.486 586.013 693.317 582.655Z" fill="#CFAAFF"/>
<path d="M0 604.397C0 605.286 0.719769 606 1.61608 606H765.193C766.09 606 766.81 605.286 766.81 604.397C766.81 603.508 766.09 602.794 765.193 602.794H1.61608C0.719769 602.794 0 603.508 0 604.397Z" fill="#CCCCCC"/>
<path d="M193.343 362.085H99.3433V359.391H193.343C201.509 359.391 208.153 352.801 208.153 344.702V281.666H210.869V344.702C210.869 354.286 203.007 362.085 193.343 362.085Z" fill="#9747FF"/>
<path d="M372.704 498.729H158.909V501.423H372.704V498.729Z" fill="#9747FF"/>
<path d="M508.35 344.073H394.155C387.992 344.073 382.979 339.1 382.979 332.988V221.111C382.979 214.999 387.992 210.027 394.155 210.027H508.35C514.512 210.027 519.526 214.999 519.526 221.111V332.988C519.526 339.1 514.512 344.073 508.35 344.073Z" fill="#919191"/>
<path d="M415.421 213.329C399.343 213.329 386.309 226.257 386.309 242.204V330.615C386.309 336.223 390.893 340.77 396.548 340.77H466.375C493.89 340.77 516.196 318.647 516.196 291.358V223.485C516.196 217.876 511.611 213.329 505.956 213.329L415.421 213.329Z" fill="white"/>
<path d="M481.837 245.842H420.428C419.257 245.842 418.303 244.896 418.303 243.734C418.303 242.572 419.257 241.627 420.428 241.627H481.837C483.008 241.627 483.961 242.572 483.961 243.734C483.961 244.896 483.008 245.842 481.837 245.842Z" fill="#919191"/>
<path d="M481.837 290.777H420.428C419.257 290.777 418.303 289.832 418.303 288.67C418.303 287.508 419.257 286.563 420.428 286.563H481.837C483.008 286.563 483.961 287.508 483.961 288.67C483.961 289.832 483.008 290.777 481.837 290.777Z" fill="#919191"/>
<path d="M506.774 268.324H395.491C394.32 268.324 393.367 267.379 393.367 266.217C393.367 265.055 394.32 264.11 395.491 264.11H506.774C507.945 264.11 508.898 265.055 508.898 266.217C508.898 267.379 507.945 268.324 506.774 268.324Z" fill="#919191"/>
<path d="M507.91 309.048H467.709C466.537 309.048 465.584 308.102 465.584 306.94C465.584 305.779 466.537 304.833 467.709 304.833H507.91C509.081 304.833 510.034 305.779 510.034 306.94C510.034 308.102 509.081 309.048 507.91 309.048Z" fill="#919191"/>
<path d="M268.488 566.981H177.809C172.916 566.981 168.935 563.033 168.935 558.179V469.342C168.935 464.488 172.916 460.54 177.809 460.54H268.488C273.381 460.54 277.362 464.488 277.362 469.342V558.179C277.362 563.033 273.381 566.981 268.488 566.981Z" fill="#919191"/>
<path d="M194.696 463.162C181.929 463.162 171.579 473.428 171.579 486.09V556.295C171.579 560.748 175.219 564.359 179.71 564.359H235.157C257.006 564.359 274.718 546.792 274.718 525.122V471.227C274.718 466.773 271.078 463.162 266.587 463.162L194.696 463.162Z" fill="white"/>
<path d="M247.435 488.979H198.672C197.742 488.979 196.985 488.228 196.985 487.306C196.985 486.383 197.742 485.633 198.672 485.633H247.435C248.365 485.633 249.121 486.383 249.121 487.306C249.121 488.228 248.365 488.979 247.435 488.979Z" fill="#919191"/>
<path d="M247.435 524.661H198.672C197.742 524.661 196.985 523.91 196.985 522.987C196.985 522.065 197.742 521.314 198.672 521.314H247.435C248.365 521.314 249.121 522.065 249.121 522.987C249.121 523.91 248.365 524.661 247.435 524.661Z" fill="#919191"/>
<path d="M267.236 506.832H178.871C177.94 506.832 177.183 506.081 177.183 505.158C177.183 504.236 177.94 503.485 178.871 503.485H267.236C268.166 503.485 268.923 504.236 268.923 505.158C268.923 506.081 268.166 506.832 267.236 506.832Z" fill="#919191"/>
<path d="M268.138 539.169H236.216C235.286 539.169 234.529 538.418 234.529 537.496C234.529 536.573 235.286 535.823 236.216 535.823H268.138C269.069 535.823 269.825 536.573 269.825 537.496C269.825 538.418 269.069 539.169 268.138 539.169Z" fill="#919191"/>
<path d="M205.109 280.986H138.048C134.429 280.986 131.485 278.066 131.485 274.477V208.778C131.485 205.188 134.429 202.268 138.048 202.268H205.109C208.728 202.268 211.672 205.188 211.672 208.778V274.477C211.672 278.066 208.728 280.986 205.109 280.986Z" fill="#919191"/>
<path d="M150.537 204.208C141.095 204.208 133.441 211.799 133.441 221.164V273.083C133.441 276.377 136.133 279.047 139.454 279.047H180.46C196.618 279.047 209.717 266.055 209.717 250.03V210.171C209.717 206.878 207.024 204.208 203.704 204.208L150.537 204.208Z" fill="white"/>
<path d="M189.539 223.3H153.477C152.789 223.3 152.23 222.745 152.23 222.063C152.23 221.38 152.789 220.825 153.477 220.825H189.539C190.227 220.825 190.787 221.38 190.787 222.063C190.787 222.745 190.227 223.3 189.539 223.3Z" fill="#919191"/>
<path d="M189.539 249.689H153.477C152.789 249.689 152.23 249.133 152.23 248.451C152.23 247.769 152.789 247.214 153.477 247.214H189.539C190.227 247.214 190.787 247.769 190.787 248.451C190.787 249.133 190.227 249.689 189.539 249.689Z" fill="#919191"/>
<path d="M204.183 236.503H138.833C138.145 236.503 137.586 235.948 137.586 235.266C137.586 234.583 138.145 234.028 138.833 234.028H204.183C204.871 234.028 205.431 234.583 205.431 235.266C205.431 235.948 204.871 236.503 204.183 236.503Z" fill="#919191"/>
<path d="M204.851 260.418H181.243C180.555 260.418 179.995 259.863 179.995 259.18C179.995 258.498 180.555 257.943 181.243 257.943H204.851C205.539 257.943 206.098 258.498 206.098 259.18C206.098 259.863 205.539 260.418 204.851 260.418Z" fill="#919191"/>
<path d="M400.814 363.823C408.314 363.823 414.394 357.793 414.394 350.355C414.394 342.917 408.314 336.887 400.814 336.887C393.314 336.887 387.235 342.917 387.235 350.355C387.235 357.793 393.314 363.823 400.814 363.823Z" fill="#9747FF"/>
<path d="M209.339 295.134C216.839 295.134 222.919 289.104 222.919 281.666C222.919 274.228 216.839 268.198 209.339 268.198C201.84 268.198 195.76 274.228 195.76 281.666C195.76 289.104 201.84 295.134 209.339 295.134Z" fill="#9747FF"/>
<path d="M274.522 479.652C282.022 479.652 288.102 473.622 288.102 466.184C288.102 458.745 282.022 452.715 274.522 452.715C267.023 452.715 260.943 458.745 260.943 466.184C260.943 473.622 267.023 479.652 274.522 479.652Z" fill="#9747FF"/>
<path d="M303.856 106.202C313.204 106.202 320.781 98.8454 320.781 89.7701C320.781 80.6947 313.204 73.3376 303.856 73.3376C294.509 73.3376 286.931 80.6947 286.931 89.7701C286.931 98.8454 294.509 106.202 303.856 106.202Z" fill="#CFAAFF"/>
<path d="M439.536 84.1484H348.436C345.31 84.1484 342.768 81.6264 342.768 78.5268C342.768 75.4271 345.31 72.9052 348.436 72.9052H439.536C442.661 72.9052 445.204 75.4271 445.204 78.5268C445.204 81.6264 442.661 84.1484 439.536 84.1484Z" fill="#CFAAFF"/>
<path d="M510.63 103.175H348.436C345.31 103.175 342.768 100.653 342.768 97.5537C342.768 94.4541 345.31 91.9321 348.436 91.9321H510.63C513.756 91.9321 516.298 94.4541 516.298 97.5537C516.298 100.653 513.756 103.175 510.63 103.175Z" fill="#CFAAFF"/>
<path d="M58.8807 175.265C64.9302 175.265 69.8342 170.504 69.8342 164.631C69.8342 158.757 64.9302 153.996 58.8807 153.996C52.8312 153.996 47.9272 158.757 47.9272 164.631C47.9272 170.504 52.8312 175.265 58.8807 175.265Z" fill="#CFAAFF"/>
<path d="M146.69 160.992H87.732C85.7093 160.992 84.0637 159.36 84.0637 157.354C84.0637 155.348 85.7093 153.716 87.732 153.716H146.69C148.713 153.716 150.359 155.348 150.359 157.354C150.359 159.36 148.713 160.992 146.69 160.992Z" fill="#CFAAFF"/>
<path d="M192.702 173.306H87.732C85.7093 173.306 84.0637 171.674 84.0637 169.668C84.0637 167.662 85.7093 166.03 87.732 166.03H192.702C194.725 166.03 196.37 167.662 196.37 169.668C196.37 171.674 194.725 173.306 192.702 173.306Z" fill="#CFAAFF"/>
<path d="M387.511 553.728C393.561 553.728 398.465 548.967 398.465 543.094C398.465 537.22 393.561 532.459 387.511 532.459C381.462 532.459 376.558 537.22 376.558 543.094C376.558 548.967 381.462 553.728 387.511 553.728Z" fill="#CFAAFF"/>
<path d="M475.321 539.455H416.363C414.34 539.455 412.694 537.823 412.694 535.817C412.694 533.811 414.34 532.179 416.363 532.179H475.321C477.344 532.179 478.989 533.811 478.989 535.817C478.989 537.823 477.344 539.455 475.321 539.455Z" fill="#CFAAFF"/>
<path d="M521.333 551.769H416.363C414.34 551.769 412.694 550.137 412.694 548.131C412.694 546.125 414.34 544.493 416.363 544.493H521.333C523.355 544.493 525.001 546.125 525.001 548.131C525.001 550.137 523.355 551.769 521.333 551.769Z" fill="#CFAAFF"/>
<path d="M255.85 210.068H253.134V338.018H255.85V210.068Z" fill="#919191"/>
<path d="M254.492 346.099C258.992 346.099 262.64 342.481 262.64 338.018C262.64 333.555 258.992 329.937 254.492 329.937C249.992 329.937 246.344 333.555 246.344 338.018C246.344 342.481 249.992 346.099 254.492 346.099Z" fill="#919191"/>
<path d="M378.068 439.031C382.568 439.031 386.216 435.413 386.216 430.95C386.216 426.487 382.568 422.869 378.068 422.869C373.568 422.869 369.92 426.487 369.92 430.95C369.92 435.413 373.568 439.031 378.068 439.031Z" fill="#919191"/>
<path d="M158.076 328.59C162.576 328.59 166.223 324.972 166.223 320.509C166.223 316.046 162.576 312.428 158.076 312.428C153.576 312.428 149.928 316.046 149.928 320.509C149.928 324.972 153.576 328.59 158.076 328.59Z" fill="#919191"/>
<path d="M155.064 320.521L110.505 321.859L110.588 324.553L155.147 323.215L155.064 320.521Z" fill="#919191"/>
<path d="M444.352 461.887H376.785V430.95H379.501V459.193H444.352V461.887Z" fill="#919191"/>
<path d="M154.731 416.829C159.231 416.829 162.879 413.211 162.879 408.748C162.879 404.285 159.231 400.667 154.731 400.667C150.231 400.667 146.583 404.285 146.583 408.748C146.583 413.211 150.231 416.829 154.731 416.829Z" fill="#919191"/>
<path d="M220.211 439.684H152.644V408.748H155.36V436.991H220.211V439.684Z" fill="#919191"/>
<path d="M426.955 377.998H102.422V380.692H426.955V377.998Z" fill="#919191"/>
</svg>
