<svg width="155" height="35" viewBox="0 0 155 35" fill="none" xmlns="http://www.w3.org/2000/svg">
<path d="M0.448 0.639997H9.088V28H0.448V0.639997ZM21.9629 16.96V28H13.9469V0.639997H22.0589L29.3069 11.68C30.3949 13.312 31.2269 14.688 31.8029 15.808H31.9469V11.2V0.639997H39.9149V28H31.7549L24.3149 16.48L22.1549 13.216H22.0109L21.9629 16.96ZM60.49 0.639997H69.61L62.218 28H49.69L42.25 0.639997H51.418L55.834 22.048H56.074L60.49 0.639997ZM85.369 28.624C80.601 28.624 77.017 27.504 74.617 25.264C72.249 22.992 71.065 19.36 71.065 14.368C71.065 9.472 72.377 5.904 75.001 3.664C77.625 1.424 81.097 0.303999 85.417 0.303999C94.505 0.303999 99.049 4.832 99.049 13.888C99.049 18.464 97.929 22.064 95.689 24.688C93.481 27.312 90.041 28.624 85.369 28.624ZM85.177 22.96C86.073 22.96 86.825 22.816 87.433 22.528C88.041 22.208 88.521 21.664 88.873 20.896C89.545 19.584 89.881 17.44 89.881 14.464C89.881 11.552 89.545 9.44 88.873 8.128C88.201 6.784 86.969 6.08 85.177 6.016C84.505 6.016 83.801 6.096 83.065 6.256C82.361 6.384 81.913 6.576 81.721 6.832C81.337 7.28 81.033 8.24 80.809 9.712C80.617 11.152 80.521 12.736 80.521 14.464C80.521 17.152 80.777 19.12 81.289 20.368C81.641 21.296 82.137 21.968 82.777 22.384C83.417 22.768 84.217 22.96 85.177 22.96Z" fill="black"/>
<path d="M102.629 0.639997H122.549V6.4H111.269V11.392H120.773V16.576H111.269V22.144H122.501V28H102.629V0.639997ZM150.035 34.624L142.739 28.288C141.395 28.512 140.131 28.624 138.947 28.624C134.179 28.624 130.595 27.504 128.195 25.264C125.827 22.992 124.643 19.36 124.643 14.368C124.643 9.472 125.955 5.904 128.579 3.664C131.203 1.424 134.675 0.303999 138.995 0.303999C148.083 0.303999 152.627 4.832 152.627 13.888C152.627 18.848 151.379 22.592 148.883 25.12L154.211 28.816L150.035 34.624ZM138.755 22.96C139.651 22.96 140.403 22.816 141.011 22.528C141.619 22.208 142.099 21.664 142.451 20.896C143.123 19.584 143.459 17.44 143.459 14.464C143.459 11.552 143.123 9.44 142.451 8.128C141.779 6.784 140.547 6.08 138.755 6.016C138.083 6.016 137.379 6.096 136.643 6.256C135.939 6.384 135.491 6.576 135.299 6.832C134.915 7.28 134.611 8.24 134.387 9.712C134.195 11.152 134.099 12.736 134.099 14.464C134.099 17.152 134.355 19.12 134.867 20.368C135.219 21.296 135.715 21.968 136.355 22.384C136.995 22.768 137.795 22.96 138.755 22.96Z" fill="#9747FF"/>
</svg>
