<svg width="837" height="508" viewBox="0 0 837 508" fill="none" xmlns="http://www.w3.org/2000/svg">
<g opacity="0.6" clip-path="url(#clip0_19_1791)">
<path d="M825.842 296.239C796.441 231.642 669.419 258.135 536.866 181.483C422.065 115.081 442.36 51.1674 341.001 19.6362C266.956 -3.4116 172.004 3.34384 101.519 47.9412C23.7925 97.1098 11.3214 170.217 8.96227 188.188C-1.72293 268.759 46.2813 329.808 63.4098 350.913C133.996 437.832 244.64 465.138 297.712 478.258C497.09 527.492 752.164 487.221 815.448 369.427C823.751 354.012 839.109 325.406 825.842 296.239Z" fill="url(#paint0_linear_19_1791)"/>
</g>
<g clip-path="url(#clip1_19_1791)">
<path d="M504.344 442.054C495.29 442.861 486.359 439.491 480.04 432.882C475.96 428.531 473.16 422.93 470.452 417.514C469.664 415.937 468.85 414.308 468.021 412.745C466.13 409.261 466.525 404.964 469.018 401.892C471.408 398.821 475.404 397.529 479.111 398.63L479.506 398.745L483.062 412.782C483.592 410.688 484.731 405.971 485.45 401.349L485.511 400.962L485.865 401.121C489.578 402.783 493.069 404.912 496.256 407.456C507.685 416.729 514.502 430.618 514.897 445.433L514.907 445.869L504.344 442.054Z" fill="#A2A2A2"/>
<path d="M620.26 446.807L447.699 447C447.291 446.997 446.963 446.662 446.965 446.25C446.967 445.841 447.294 445.51 447.699 445.508L620.26 445.316C620.667 445.314 620.999 445.647 621 446.059C621.001 446.471 620.672 446.806 620.265 446.807H620.26Z" fill="black"/>
<path d="M162.672 134.828H156.224C154.942 134.828 153.903 135.879 153.903 137.176C153.903 138.473 152.863 139.525 151.581 139.525H130.085C128.803 139.525 127.764 138.473 127.764 137.176L127.339 134.795L123.442 129.77C123.184 129.431 122.783 129.234 122.36 129.238H115.052C114.293 129.239 113.677 129.862 113.676 130.63L113.525 134.795H110.763C108.323 134.795 106.345 136.796 106.345 139.265V168.375C106.345 170.565 108.1 172.341 110.265 172.341H162.672C164.836 172.338 166.59 170.564 166.592 168.375V138.793C166.592 136.603 164.837 134.828 162.672 134.828Z" fill="#A2A2A2"/>
<path d="M127.341 134.688H113.676V130.523C113.677 129.754 114.293 129.132 115.052 129.131H122.36C122.783 129.127 123.184 129.324 123.442 129.663L127.341 134.688Z" fill="#EAE0F5"/>
<path d="M134.337 169.138H111.521C110.017 169.136 108.799 167.903 108.797 166.382V160.07C108.799 158.549 110.017 157.316 111.521 157.314H138.906C140.41 157.316 141.628 158.549 141.63 160.07V161.76C141.625 165.833 138.363 169.133 134.337 169.138Z" fill="white"/>
<path d="M118.089 162.075H112.457C111.695 162.078 111.074 161.454 111.072 160.683C111.069 159.911 111.686 159.283 112.449 159.281H118.089C118.852 159.278 119.472 159.902 119.475 160.674C119.477 161.445 118.861 162.073 118.098 162.075H118.089Z" fill="#A2A2A2"/>
<path d="M137.215 166.482H112.457C111.695 166.485 111.074 165.861 111.072 165.09C111.069 164.318 111.686 163.69 112.449 163.688H137.215C137.978 163.685 138.598 164.309 138.601 165.081C138.603 165.852 137.987 166.48 137.224 166.482H137.215Z" fill="#A2A2A2"/>
<path d="M162.672 226.258H156.224C154.942 226.258 153.903 227.309 153.903 228.606C153.903 229.903 152.863 230.955 151.581 230.955H130.085C128.803 230.955 127.764 229.903 127.764 228.606L127.339 226.225L123.442 221.2C123.184 220.861 122.783 220.664 122.36 220.668H115.052C114.293 220.669 113.677 221.292 113.676 222.06L113.525 226.225H110.763C108.323 226.225 106.345 228.226 106.345 230.695V259.804C106.345 261.995 108.1 263.771 110.265 263.771H162.672C164.836 263.768 166.59 261.994 166.592 259.804V230.223C166.592 228.033 164.837 226.258 162.672 226.258Z" fill="#A2A2A2"/>
<path d="M127.341 226.118H113.676V221.953C113.677 221.184 114.293 220.562 115.052 220.561H122.36C122.783 220.557 123.184 220.754 123.442 221.093L127.341 226.118Z" fill="#EAE0F5"/>
<path d="M134.337 260.567H111.521C110.017 260.566 108.799 259.333 108.797 257.812V251.5C108.799 249.978 110.017 248.746 111.521 248.744H138.906C140.41 248.746 141.628 249.978 141.63 251.5V253.19C141.625 257.263 138.363 260.563 134.337 260.567Z" fill="white"/>
<path d="M118.089 253.505H112.457C111.695 253.508 111.074 252.884 111.072 252.112C111.069 251.341 111.686 250.713 112.449 250.711H118.089C118.852 250.708 119.472 251.332 119.475 252.103C119.477 252.875 118.861 253.503 118.098 253.505H118.089Z" fill="#A2A2A2"/>
<path d="M137.215 257.912H112.457C111.695 257.915 111.074 257.291 111.072 256.519C111.069 255.748 111.686 255.12 112.449 255.118H137.215C137.978 255.115 138.598 255.739 138.601 256.51C138.603 257.282 137.987 257.91 137.224 257.912H137.215Z" fill="#A2A2A2"/>
<path d="M162.672 317.687H156.224C154.942 317.687 153.903 318.739 153.903 320.036C153.903 321.333 152.863 322.384 151.581 322.384H130.085C128.803 322.384 127.764 321.333 127.764 320.036L127.339 317.655L123.442 312.63C123.184 312.291 122.783 312.094 122.36 312.098H115.052C114.293 312.099 113.677 312.722 113.676 313.49L113.525 317.655H110.763C108.323 317.655 106.345 319.656 106.345 322.125V351.234C106.345 353.425 108.1 355.2 110.265 355.2H162.672C164.836 355.198 166.59 353.423 166.592 351.234V321.652C166.592 319.463 164.837 317.687 162.672 317.687Z" fill="#A2A2A2"/>
<path d="M127.341 317.548H113.676V313.382C113.677 312.614 114.293 311.991 115.052 311.99H122.36C122.783 311.987 123.184 312.183 123.442 312.522L127.341 317.548Z" fill="#EAE0F5"/>
<path d="M134.337 351.997H111.521C110.017 351.996 108.799 350.763 108.797 349.242V342.929C108.799 341.408 110.017 340.175 111.521 340.174H138.906C140.41 340.175 141.628 341.408 141.63 342.929V344.62C141.626 348.692 138.363 351.993 134.337 351.997Z" fill="white"/>
<path d="M118.089 344.935H112.457C111.694 344.935 111.076 344.309 111.076 343.538C111.076 342.766 111.694 342.14 112.457 342.14H118.089C118.852 342.14 119.47 342.766 119.47 343.538C119.47 344.309 118.852 344.935 118.089 344.935Z" fill="#A2A2A2"/>
<path d="M137.215 349.342H112.457C111.694 349.342 111.076 348.716 111.076 347.945C111.076 347.173 111.694 346.547 112.457 346.547H137.215C137.978 346.547 138.596 347.173 138.596 347.945C138.596 348.716 137.978 349.342 137.215 349.342Z" fill="#A2A2A2"/>
<path d="M279.364 150.423C277.26 150.425 275.555 152.15 275.552 154.278V221.843C275.555 223.971 277.26 225.696 279.364 225.699H373.837C375.941 225.696 377.646 223.971 377.648 221.843V154.278C377.646 152.15 375.941 150.425 373.837 150.423H279.364Z" fill="#EAE0F5"/>
<path d="M339.86 222.411H282.033C279.769 222.408 277.934 220.552 277.931 218.261V156.98C277.934 154.69 279.769 152.833 282.033 152.831H371.168C373.432 152.833 375.267 154.69 375.27 156.98V186.59C375.248 206.364 359.407 222.388 339.86 222.411Z" fill="white"/>
<path d="M317.208 169.789H303.467C302.742 169.789 302.154 169.195 302.154 168.462C302.154 167.729 302.742 167.134 303.467 167.134H317.208C317.933 167.134 318.521 167.729 318.521 168.462C318.521 169.195 317.933 169.789 317.208 169.789Z" fill="#9747FF"/>
<path d="M348.013 175.219H303.467C302.742 175.219 302.154 174.624 302.154 173.891C302.154 173.158 302.742 172.564 303.467 172.564H348.013C348.737 172.564 349.325 173.158 349.325 173.891C349.325 174.624 348.737 175.219 348.013 175.219Z" fill="#EAE0F5"/>
<path d="M348.013 181.451H303.467C302.742 181.451 302.154 180.857 302.154 180.124C302.154 179.39 302.742 178.796 303.467 178.796H348.013C348.737 178.796 349.325 179.39 349.325 180.124C349.325 180.857 348.737 181.451 348.013 181.451Z" fill="#EAE0F5"/>
<path d="M348.013 187.683H303.467C302.742 187.683 302.154 187.089 302.154 186.356C302.154 185.623 302.742 185.028 303.467 185.028H348.013C348.737 185.028 349.325 185.623 349.325 186.356C349.325 187.089 348.737 187.683 348.013 187.683Z" fill="#EAE0F5"/>
<path d="M348.013 193.916H303.467C302.742 193.916 302.154 193.321 302.154 192.588C302.154 191.855 302.742 191.261 303.467 191.261H348.013C348.737 191.261 349.325 191.855 349.325 192.588C349.325 193.321 348.737 193.916 348.013 193.916Z" fill="#EAE0F5"/>
<path d="M383.73 197.595H365.081C361.373 197.595 358.366 200.636 358.366 204.388C358.366 208.139 355.36 211.181 351.651 211.181H289.48C285.771 211.181 282.765 208.139 282.765 204.388L281.535 197.502L270.266 182.968C269.518 181.987 268.359 181.418 267.134 181.429H246C243.803 181.432 242.022 183.232 242.02 185.455L241.583 197.502H233.593C226.536 197.502 220.814 203.289 220.814 210.429V294.622C220.814 300.958 225.892 306.094 232.155 306.094H383.73C389.989 306.086 395.061 300.954 395.067 294.622V209.064C395.067 202.73 389.991 197.595 383.73 197.595Z" fill="#EAE0F5"/>
<path d="M281.541 197.191H242.02V185.144C242.022 182.922 243.803 181.121 245.999 181.118H267.134C268.359 181.107 269.518 181.676 270.266 182.657L281.541 197.191Z" fill="#CCCCCC"/>
<path d="M301.778 296.83H235.786C231.437 296.825 227.912 293.259 227.907 288.859V270.603C227.912 266.203 231.437 262.637 235.786 262.632H314.991C319.341 262.637 322.865 266.203 322.87 270.603V275.492C322.857 287.271 313.421 296.816 301.778 296.83Z" fill="white"/>
<path d="M254.783 276.403H238.494C236.288 276.403 234.499 274.594 234.499 272.362C234.499 270.13 236.288 268.32 238.494 268.32H254.783C256.989 268.317 258.78 270.125 258.783 272.357C258.786 274.589 256.999 276.4 254.793 276.403H254.783Z" fill="#9747FF"/>
<path d="M310.101 289.15H238.494C236.288 289.15 234.499 287.34 234.499 285.108C234.499 282.876 236.288 281.067 238.494 281.067H310.101C312.307 281.064 314.098 282.871 314.101 285.103C314.104 287.335 312.318 289.147 310.111 289.15L310.101 289.15Z" fill="#9747FF"/>
<path d="M619.358 91.9995H91.6419C90.7154 91.9877 89.9803 91.5304 90.0001 90.9781C90.0194 90.4425 90.7433 90.011 91.6419 89.9995H619.358C620.284 90.0113 621.019 90.4686 620.999 91.0209C620.98 91.5565 620.256 91.9881 619.358 91.9995Z" fill="black"/>
<path d="M579.366 438.808H573.559L570.796 416.148L579.367 416.148L579.366 438.808Z" fill="#9E616A"/>
<path d="M579.571 444.937L561.712 444.937V444.708C561.712 440.825 564.824 437.677 568.663 437.676L571.925 435.173L578.012 437.677L579.571 437.677L579.571 444.937Z" fill="#2F2E41"/>
<path d="M561.432 418.444L555.872 420.139L546.76 399.25L554.967 396.748L561.432 418.444Z" fill="#9E616A"/>
<path d="M563.377 424.252L546.278 429.466L546.212 429.247C545.105 425.529 547.186 421.606 550.861 420.485L553.271 417.136L559.813 417.756L561.305 417.301L563.377 424.252Z" fill="#2F2E41"/>
<path d="M553.457 295.235C553.457 295.235 547.244 304.829 545.046 311.356C539.659 327.353 537.083 323.515 530.88 362.408C539.296 391.137 547.632 410.076 547.632 410.076C547.632 410.076 560.158 406.512 560.158 404.136C560.158 401.76 552.166 372.787 550.992 369.421C549.817 366.055 547.86 364.867 549.621 362.096C551.383 359.324 565.852 335.091 565.852 335.091C565.852 335.091 565.461 376.395 565.852 377.187C566.244 377.979 568.126 425.542 568.126 425.542C568.126 425.542 581.009 432.213 581.789 425.104C581.985 423.322 582.232 376.188 582.232 375.396C582.232 374.604 594.157 300.807 588.481 297.838C582.805 294.868 553.457 295.235 553.457 295.235Z" fill="#2F2E41"/>
<path d="M527.424 302.072C527.755 299.05 530.446 296.872 533.433 297.207C533.752 297.243 534.067 297.307 534.374 297.399L545.628 281.486L549.233 290.977L537.993 304.633C536.948 307.502 533.801 308.97 530.966 307.912C528.593 307.027 527.129 304.613 527.424 302.072Z" fill="#9E616A"/>
<path d="M542.945 299.606L535.462 293.866L551.171 269.396L563.789 220.223L573.779 229.633C575.508 230.173 576.939 231.414 577.728 233.061C578.532 234.721 580.239 231.942 579.601 233.673L565.548 272.056L565.528 272.083L542.945 299.606Z" fill="#3F3D56"/>
<path d="M569.394 218.209L558.751 222.392L554.377 228.505L543.773 283.521L544.195 285.378L543.139 286.81L542.724 288.962L543.752 290.752L541.947 292.996C541.947 292.996 542.424 294.783 544.195 310.009C545.288 319.404 562.964 313.617 562.964 313.617L570.989 230.179L569.394 218.209Z" fill="#3F3D56"/>
<path d="M592.111 225.317L582.929 217.009L569.352 217.836L561.535 227.452L546.374 306.878L578.248 309.565L592.111 225.317Z" fill="#EAE0F5"/>
<path d="M584.063 218.345L592.414 224.831L595.617 229.559C601.231 232.806 603.827 239.589 601.837 245.813L591.693 281.984L591.456 282.723C591.215 283.439 592.371 289.111 591.796 295.22C591.646 296.812 593.471 298.586 593.334 300.157C593.227 301.386 591.153 302.431 591.062 303.56C590.979 304.579 592.07 305.548 592.006 306.426C591.842 308.138 591.38 309.807 590.643 311.356C582.002 314.972 565.315 312.349 565.315 312.349L580.436 229.924L584.063 218.345Z" fill="#3F3D56"/>
<path d="M574.727 213.811C583.028 213.811 589.758 207.004 589.758 198.607C589.758 190.209 583.028 183.402 574.727 183.402C566.426 183.402 559.697 190.209 559.697 198.607C559.697 207.004 566.426 213.811 574.727 213.811Z" fill="#9E616A"/>
<path d="M594.216 199.257C593.344 204.254 589.816 209.198 584.888 210.148L584.795 210.022C585.07 207.856 585.189 205.672 585.154 203.489C585.135 202.089 583.998 200.969 582.614 200.988C581.582 201.002 580.664 201.655 580.302 202.633C580.391 200.73 579.594 198.786 579.08 196.95C578.567 195.119 578.217 193.381 576.428 192.781C574.937 192.284 573.312 192.629 571.78 192.983C569.664 193.466 568.588 193.354 568.398 192.812C567.615 193.102 566.832 193.392 566.048 193.681C565.44 193.904 564.759 193.692 564.38 193.162L564.374 193.153C563.006 193.511 561.638 193.866 560.27 194.219C560.011 193.332 559.799 192.432 559.637 191.523C560.809 190.555 561.647 189.236 562.032 187.756C561.212 188.234 560.323 188.578 559.398 188.777C559.333 186.656 560.246 184.624 561.868 183.278C565.104 180.649 568.349 179.037 572.493 179.248C577.504 179.503 579.005 184.958 583.56 182.83C589.315 180.143 595.088 194.259 594.216 199.257Z" fill="#2F2E41"/>
<path d="M509.954 208.526C508.638 207.455 506.713 207.665 505.652 208.993L472.002 251.219C470.944 252.55 471.15 254.497 472.464 255.571L531.506 303.719C532.822 304.79 534.747 304.581 535.809 303.252L569.458 261.026C570.517 259.695 570.31 257.748 568.996 256.674L509.954 208.526Z" fill="#CCCCCC"/>
<path d="M511.91 284.348L475.77 254.877C474.356 253.721 474.134 251.626 475.273 250.193L505.793 211.894C506.935 210.464 509.007 210.239 510.423 211.392L566.129 256.819C567.543 257.974 567.766 260.07 566.626 261.503L551.879 280.008C542.018 292.355 524.137 294.296 511.91 284.348Z" fill="white"/>
<path d="M523.96 239.917L515.372 232.914C514.918 232.546 514.844 231.876 515.207 231.416C515.571 230.956 516.234 230.882 516.688 231.249L516.695 231.255L525.283 238.258C525.734 238.629 525.803 239.3 525.436 239.757C525.071 240.211 524.412 240.283 523.96 239.917Z" fill="#9747FF"/>
<path d="M540.508 259.01L512.668 236.307C512.214 235.94 512.14 235.269 512.503 234.809C512.867 234.35 513.53 234.275 513.984 234.643L513.991 234.648L541.83 257.351C542.282 257.722 542.35 258.393 541.983 258.85C541.619 259.304 540.96 259.375 540.508 259.01Z" fill="#EAE0F5"/>
<path d="M537.404 262.905L509.564 240.202C509.11 239.834 509.036 239.164 509.4 238.704C509.763 238.245 510.426 238.17 510.88 238.537L510.887 238.543L538.726 261.246C539.178 261.617 539.247 262.288 538.88 262.745C538.515 263.199 537.856 263.27 537.404 262.905Z" fill="#EAE0F5"/>
<path d="M534.3 266.8L506.46 244.097C506.006 243.729 505.932 243.059 506.296 242.599C506.659 242.139 507.322 242.065 507.776 242.432L507.783 242.438L535.623 265.14C536.074 265.512 536.143 266.183 535.776 266.64C535.411 267.094 534.752 267.165 534.3 266.8Z" fill="#EAE0F5"/>
<path d="M531.196 270.695L503.357 247.992C502.902 247.624 502.828 246.954 503.192 246.494C503.555 246.035 504.218 245.96 504.672 246.327L504.679 246.333L532.519 269.036C532.97 269.407 533.039 270.078 532.672 270.535C532.307 270.989 531.648 271.06 531.196 270.695Z" fill="#EAE0F5"/>
<path d="M525.134 269.944C527.065 267.613 530.498 267.307 532.801 269.261C533.047 269.469 533.274 269.699 533.48 269.947L551.563 263.005L549.367 272.927L532.531 277.998C530.09 279.801 526.667 279.26 524.885 276.791C523.394 274.724 523.497 271.894 525.134 269.944Z" fill="#9E616A"/>
<path d="M539.407 277.035L536.32 268.063L562.798 256.493L595.699 231.766L599.852 236.952C602.141 239.811 601.706 244.006 598.88 246.322C598.788 246.397 598.693 246.47 598.597 246.541L573.311 266.764L573.28 266.775L565.431 269.153L563.674 269.257L561.798 270.253L560.132 269.704L557.826 271.456L555.177 272.258L539.407 277.035Z" fill="#3F3D56"/>
<path d="M388.915 316.17C379.97 316.17 372.719 308.834 372.719 299.785C372.719 290.737 379.97 283.401 388.915 283.401C397.861 283.401 405.112 290.737 405.112 299.785C405.112 308.834 397.861 316.17 388.915 316.17Z" fill="#9747FF"/>
<path d="M395.306 298.169H390.513V293.32C390.513 292.428 389.798 291.704 388.916 291.704C388.033 291.704 387.318 292.428 387.318 293.32V298.169H382.525C381.642 298.169 380.927 298.893 380.927 299.785C380.927 300.678 381.642 301.402 382.525 301.402H387.318V306.25C387.318 307.143 388.033 307.867 388.916 307.867C389.798 307.867 390.513 307.143 390.513 306.25V301.402H395.306C396.189 301.402 396.904 300.678 396.904 299.785C396.904 298.893 396.189 298.169 395.306 298.169Z" fill="white"/>
<path d="M165.156 179.869C160.879 179.869 157.412 176.361 157.412 172.034C157.412 167.707 160.879 164.2 165.156 164.2C169.433 164.2 172.901 167.707 172.901 172.034C172.901 176.361 169.433 179.869 165.156 179.869Z" fill="#EAE0F5"/>
<path d="M168.212 171.261H162.1C161.678 171.262 161.336 171.608 161.337 172.035C161.337 172.461 161.679 172.807 162.1 172.807H168.212C168.634 172.807 168.976 172.461 168.976 172.035C168.976 171.608 168.635 171.262 168.213 171.261H168.212Z" fill="white"/>
<path d="M165.156 270.046C160.879 270.046 157.412 266.538 157.412 262.211C157.412 257.885 160.879 254.377 165.156 254.377C169.433 254.377 172.901 257.885 172.901 262.211C172.901 266.538 169.433 270.046 165.156 270.046Z" fill="#EAE0F5"/>
<path d="M168.212 261.439H162.1C161.678 261.439 161.336 261.785 161.337 262.212C161.337 262.638 161.679 262.984 162.1 262.984H168.212C168.634 262.985 168.976 262.639 168.976 262.212C168.976 261.785 168.635 261.439 168.213 261.439H168.212Z" fill="white"/>
<path d="M165.156 360.223C160.879 360.223 157.412 356.716 157.412 352.389C157.412 348.062 160.879 344.554 165.156 344.554C169.433 344.554 172.901 348.062 172.901 352.389C172.901 356.716 169.433 360.223 165.156 360.223Z" fill="#EAE0F5"/>
<path d="M168.212 351.616H162.1C161.678 351.616 161.336 351.962 161.337 352.389C161.337 352.816 161.679 353.162 162.1 353.162H168.212C168.634 353.162 168.976 352.816 168.976 352.389C168.976 351.962 168.635 351.616 168.213 351.616H168.212Z" fill="white"/>
<path d="M226.235 74.8271C229.126 74.8271 231.47 72.4033 231.47 69.4133C231.47 66.4234 229.126 63.9995 226.235 63.9995C223.344 63.9995 221 66.4234 221 69.4133C221 72.4033 223.344 74.8271 226.235 74.8271Z" fill="#3F3D56"/>
<path d="M244.32 74.8271C247.211 74.8271 249.555 72.4033 249.555 69.4133C249.555 66.4234 247.211 63.9995 244.32 63.9995C241.429 63.9995 239.085 66.4234 239.085 69.4133C239.085 72.4033 241.429 74.8271 244.32 74.8271Z" fill="#3F3D56"/>
<path d="M262.405 74.8271C265.296 74.8271 267.64 72.4033 267.64 69.4133C267.64 66.4234 265.296 63.9995 262.405 63.9995C259.514 63.9995 257.17 66.4234 257.17 69.4133C257.17 72.4033 259.514 74.8271 262.405 74.8271Z" fill="#3F3D56"/>
<path d="M283.026 73.6922C282.866 73.6922 282.705 73.6292 282.584 73.5039L279.051 69.8511C278.816 69.6077 278.816 69.2187 279.051 68.9753L282.584 65.3228C282.824 65.0757 283.216 65.0718 283.459 65.313C283.704 65.5549 283.708 65.9515 283.469 66.1986L280.36 69.4132L283.469 72.6281C283.708 72.8752 283.704 73.2718 283.459 73.5137C283.339 73.6329 283.183 73.6922 283.026 73.6922Z" fill="#3F3D56"/>
<path d="M288.962 73.6922C288.806 73.6922 288.65 73.6329 288.529 73.5136C288.285 73.2718 288.28 72.8755 288.52 72.6281L291.628 69.4132L288.52 66.1985C288.28 65.9515 288.285 65.5549 288.529 65.313C288.773 65.0708 289.166 65.0754 289.405 65.3228L292.937 68.9753C293.172 69.2187 293.172 69.6076 292.937 69.851L289.405 73.5039C289.283 73.6292 289.123 73.6922 288.962 73.6922Z" fill="#3F3D56"/>
<path d="M473.756 64.6263H467.188C466.439 64.6263 465.833 65.24 465.833 65.9978V72.6484C465.833 73.4061 466.439 74.0198 467.188 74.0198H473.756C474.505 74.0198 475.118 73.4061 475.118 72.6484V65.9978C475.118 65.24 474.505 64.6263 473.756 64.6263Z" fill="#3F3D56"/>
<path d="M457.661 64.6263H451.093C450.344 64.6263 449.737 65.24 449.737 65.9978V72.6484C449.737 73.4061 450.344 74.0198 451.093 74.0198H457.661C458.41 74.0198 459.023 73.4061 459.023 72.6484V65.9978C459.023 65.24 458.41 64.6263 457.661 64.6263Z" fill="#3F3D56"/>
<path d="M488.923 64.9395H482.355C481.606 64.9395 480.999 65.5531 480.999 66.3109V72.9615C480.999 73.7192 481.606 74.3329 482.355 74.3329H488.923C489.672 74.3329 490.285 73.7192 490.285 72.9615V66.3109C490.285 65.5531 489.672 64.9395 488.923 64.9395Z" fill="#3F3D56"/>
<path d="M389.923 67.4694H337.421C336.504 67.4694 335.768 68.2208 335.768 69.1414C335.768 70.062 336.504 70.8134 337.421 70.8134H389.923C390.833 70.8134 391.576 70.062 391.576 69.1414C391.576 68.2209 390.833 67.4694 389.923 67.4694Z" fill="#3F3D56"/>
</g>
<rect x="90.4998" y="65.4995" width="530" height="381" stroke="black"/>
<defs>
<linearGradient id="paint0_linear_19_1791" x1="430.436" y1="-61.6774" x2="393.961" y2="475.718" gradientUnits="userSpaceOnUse">
<stop stop-color="#5C6577"/>
<stop offset="1" stop-color="#DEEEFE"/>
</linearGradient>
<clipPath id="clip0_19_1791">
<rect width="821.176" height="487.933" fill="white" transform="matrix(-0.999734 -0.0230697 0.0307862 0.999526 821.793 19.7292)"/>
</clipPath>
<clipPath id="clip1_19_1791">
<rect x="89.9998" y="64.9995" width="531" height="382" fill="white"/>
</clipPath>
</defs>
</svg>
