<svg width="707" height="509" viewBox="0 0 707 509" fill="none" xmlns="http://www.w3.org/2000/svg">
<g opacity="0.3">
<mask id="mask0_45_1790" style="mask-type:alpha" maskUnits="userSpaceOnUse" x="0" y="0" width="11" height="11">
<path d="M5.22838 10.425C8.11594 10.425 10.4568 8.09121 10.4568 5.21245C10.4568 2.33368 8.11594 0 5.22838 0C2.34082 0 0 2.33368 0 5.21245C0 8.09121 2.34082 10.425 5.22838 10.425Z" fill="url(#paint0_linear_45_1790)"/>
</mask>
<g mask="url(#mask0_45_1790)">
<path d="M5.22838 10.425C8.11594 10.425 10.4568 8.09121 10.4568 5.21245C10.4568 2.33368 8.11594 0 5.22838 0C2.34082 0 0 2.33368 0 5.21245C0 8.09121 2.34082 10.425 5.22838 10.425Z" fill="url(#paint1_linear_45_1790)"/>
</g>
<mask id="mask1_45_1790" style="mask-type:alpha" maskUnits="userSpaceOnUse" x="30" y="0" width="11" height="11">
<path d="M35.5094 10.425C38.397 10.425 40.7378 8.09121 40.7378 5.21245C40.7378 2.33368 38.397 0 35.5094 0C32.6219 0 30.2811 2.33368 30.2811 5.21245C30.2811 8.09121 32.6219 10.425 35.5094 10.425Z" fill="url(#paint2_linear_45_1790)"/>
</mask>
<g mask="url(#mask1_45_1790)">
<path d="M35.5094 10.425C38.397 10.425 40.7378 8.09121 40.7378 5.21245C40.7378 2.33368 38.397 0 35.5094 0C32.6219 0 30.2811 2.33368 30.2811 5.21245C30.2811 8.09121 32.6219 10.425 35.5094 10.425Z" fill="url(#paint3_linear_45_1790)"/>
</g>
<mask id="mask2_45_1790" style="mask-type:alpha" maskUnits="userSpaceOnUse" x="60" y="0" width="12" height="11">
<path d="M65.7905 10.425C68.6781 10.425 71.0189 8.09121 71.0189 5.21245C71.0189 2.33368 68.6781 0 65.7905 0C62.9029 0 60.5621 2.33368 60.5621 5.21245C60.5621 8.09121 62.9029 10.425 65.7905 10.425Z" fill="url(#paint4_linear_45_1790)"/>
</mask>
<g mask="url(#mask2_45_1790)">
<path d="M65.7905 10.425C68.6781 10.425 71.0189 8.09121 71.0189 5.21245C71.0189 2.33368 68.6781 0 65.7905 0C62.9029 0 60.5621 2.33368 60.5621 5.21245C60.5621 8.09121 62.9029 10.425 65.7905 10.425Z" fill="url(#paint5_linear_45_1790)"/>
</g>
<mask id="mask3_45_1790" style="mask-type:alpha" maskUnits="userSpaceOnUse" x="90" y="0" width="12" height="11">
<path d="M96.0716 10.425C98.9592 10.425 101.3 8.09121 101.3 5.21245C101.3 2.33368 98.9592 0 96.0716 0C93.184 0 90.8432 2.33368 90.8432 5.21245C90.8432 8.09121 93.184 10.425 96.0716 10.425Z" fill="url(#paint6_linear_45_1790)"/>
</mask>
<g mask="url(#mask3_45_1790)">
<path d="M96.0716 10.425C98.9592 10.425 101.3 8.09121 101.3 5.21245C101.3 2.33368 98.9592 0 96.0716 0C93.184 0 90.8432 2.33368 90.8432 5.21245C90.8432 8.09121 93.184 10.425 96.0716 10.425Z" fill="url(#paint7_linear_45_1790)"/>
</g>
<mask id="mask4_45_1790" style="mask-type:alpha" maskUnits="userSpaceOnUse" x="121" y="0" width="11" height="11">
<path d="M126.353 10.425C129.24 10.425 131.581 8.09121 131.581 5.21245C131.581 2.33368 129.24 0 126.353 0C123.465 0 121.124 2.33368 121.124 5.21245C121.124 8.09121 123.465 10.425 126.353 10.425Z" fill="url(#paint8_linear_45_1790)"/>
</mask>
<g mask="url(#mask4_45_1790)">
<path d="M126.353 10.425C129.24 10.425 131.581 8.09121 131.581 5.21245C131.581 2.33368 129.24 0 126.353 0C123.465 0 121.124 2.33368 121.124 5.21245C121.124 8.09121 123.465 10.425 126.353 10.425Z" fill="url(#paint9_linear_45_1790)"/>
</g>
<mask id="mask5_45_1790" style="mask-type:alpha" maskUnits="userSpaceOnUse" x="0" y="26" width="11" height="11">
<path d="M5.22838 36.5958C8.11594 36.5958 10.4568 34.2621 10.4568 31.3834C10.4568 28.5046 8.11594 26.171 5.22838 26.171C2.34082 26.171 0 28.5046 0 31.3834C0 34.2621 2.34082 36.5958 5.22838 36.5958Z" fill="url(#paint10_linear_45_1790)"/>
</mask>
<g mask="url(#mask5_45_1790)">
<path d="M5.22838 36.5958C8.11594 36.5958 10.4568 34.2621 10.4568 31.3834C10.4568 28.5046 8.11594 26.171 5.22838 26.171C2.34082 26.171 0 28.5046 0 31.3834C0 34.2621 2.34082 36.5958 5.22838 36.5958Z" fill="url(#paint11_linear_45_1790)"/>
</g>
<mask id="mask6_45_1790" style="mask-type:alpha" maskUnits="userSpaceOnUse" x="30" y="26" width="11" height="11">
<path d="M35.5094 36.5958C38.397 36.5958 40.7378 34.2621 40.7378 31.3834C40.7378 28.5046 38.397 26.171 35.5094 26.171C32.6219 26.171 30.2811 28.5046 30.2811 31.3834C30.2811 34.2621 32.6219 36.5958 35.5094 36.5958Z" fill="url(#paint12_linear_45_1790)"/>
</mask>
<g mask="url(#mask6_45_1790)">
<path d="M35.5094 36.5958C38.397 36.5958 40.7378 34.2621 40.7378 31.3834C40.7378 28.5046 38.397 26.171 35.5094 26.171C32.6219 26.171 30.2811 28.5046 30.2811 31.3834C30.2811 34.2621 32.6219 36.5958 35.5094 36.5958Z" fill="url(#paint13_linear_45_1790)"/>
</g>
<mask id="mask7_45_1790" style="mask-type:alpha" maskUnits="userSpaceOnUse" x="60" y="26" width="12" height="11">
<path d="M65.7905 36.5958C68.6781 36.5958 71.0189 34.2621 71.0189 31.3834C71.0189 28.5046 68.6781 26.171 65.7905 26.171C62.9029 26.171 60.5621 28.5046 60.5621 31.3834C60.5621 34.2621 62.9029 36.5958 65.7905 36.5958Z" fill="url(#paint14_linear_45_1790)"/>
</mask>
<g mask="url(#mask7_45_1790)">
<path d="M65.7905 36.5958C68.6781 36.5958 71.0189 34.2621 71.0189 31.3834C71.0189 28.5046 68.6781 26.171 65.7905 26.171C62.9029 26.171 60.5621 28.5046 60.5621 31.3834C60.5621 34.2621 62.9029 36.5958 65.7905 36.5958Z" fill="url(#paint15_linear_45_1790)"/>
</g>
<mask id="mask8_45_1790" style="mask-type:alpha" maskUnits="userSpaceOnUse" x="90" y="26" width="12" height="11">
<path d="M96.0716 36.5958C98.9592 36.5958 101.3 34.2621 101.3 31.3834C101.3 28.5046 98.9592 26.171 96.0716 26.171C93.184 26.171 90.8432 28.5046 90.8432 31.3834C90.8432 34.2621 93.184 36.5958 96.0716 36.5958Z" fill="url(#paint16_linear_45_1790)"/>
</mask>
<g mask="url(#mask8_45_1790)">
<path d="M96.0716 36.5958C98.9592 36.5958 101.3 34.2621 101.3 31.3834C101.3 28.5046 98.9592 26.171 96.0716 26.171C93.184 26.171 90.8432 28.5046 90.8432 31.3834C90.8432 34.2621 93.184 36.5958 96.0716 36.5958Z" fill="url(#paint17_linear_45_1790)"/>
</g>
<mask id="mask9_45_1790" style="mask-type:alpha" maskUnits="userSpaceOnUse" x="121" y="26" width="11" height="11">
<path d="M126.353 36.5958C129.24 36.5958 131.581 34.2621 131.581 31.3834C131.581 28.5046 129.24 26.171 126.353 26.171C123.465 26.171 121.124 28.5046 121.124 31.3834C121.124 34.2621 123.465 36.5958 126.353 36.5958Z" fill="url(#paint18_linear_45_1790)"/>
</mask>
<g mask="url(#mask9_45_1790)">
<path d="M126.353 36.5958C129.24 36.5958 131.581 34.2621 131.581 31.3834C131.581 28.5046 129.24 26.171 126.353 26.171C123.465 26.171 121.124 28.5046 121.124 31.3834C121.124 34.2621 123.465 36.5958 126.353 36.5958Z" fill="url(#paint19_linear_45_1790)"/>
</g>
<mask id="mask10_45_1790" style="mask-type:alpha" maskUnits="userSpaceOnUse" x="0" y="52" width="11" height="11">
<path d="M5.22838 62.7125C8.11594 62.7125 10.4568 60.3788 10.4568 57.5C10.4568 54.6212 8.11594 52.2875 5.22838 52.2875C2.34082 52.2875 0 54.6212 0 57.5C0 60.3788 2.34082 62.7125 5.22838 62.7125Z" fill="url(#paint20_linear_45_1790)"/>
</mask>
<g mask="url(#mask10_45_1790)">
<path d="M5.22838 62.7125C8.11594 62.7125 10.4568 60.3788 10.4568 57.5C10.4568 54.6212 8.11594 52.2875 5.22838 52.2875C2.34082 52.2875 0 54.6212 0 57.5C0 60.3788 2.34082 62.7125 5.22838 62.7125Z" fill="url(#paint21_linear_45_1790)"/>
</g>
<mask id="mask11_45_1790" style="mask-type:alpha" maskUnits="userSpaceOnUse" x="30" y="52" width="11" height="11">
<path d="M35.5094 62.7125C38.397 62.7125 40.7378 60.3788 40.7378 57.5C40.7378 54.6212 38.397 52.2875 35.5094 52.2875C32.6219 52.2875 30.2811 54.6212 30.2811 57.5C30.2811 60.3788 32.6219 62.7125 35.5094 62.7125Z" fill="url(#paint22_linear_45_1790)"/>
</mask>
<g mask="url(#mask11_45_1790)">
<path d="M35.5094 62.7125C38.397 62.7125 40.7378 60.3788 40.7378 57.5C40.7378 54.6212 38.397 52.2875 35.5094 52.2875C32.6219 52.2875 30.2811 54.6212 30.2811 57.5C30.2811 60.3788 32.6219 62.7125 35.5094 62.7125Z" fill="url(#paint23_linear_45_1790)"/>
</g>
<mask id="mask12_45_1790" style="mask-type:alpha" maskUnits="userSpaceOnUse" x="60" y="52" width="12" height="11">
<path d="M65.7905 62.7125C68.6781 62.7125 71.0189 60.3788 71.0189 57.5C71.0189 54.6212 68.6781 52.2875 65.7905 52.2875C62.9029 52.2875 60.5621 54.6212 60.5621 57.5C60.5621 60.3788 62.9029 62.7125 65.7905 62.7125Z" fill="url(#paint24_linear_45_1790)"/>
</mask>
<g mask="url(#mask12_45_1790)">
<path d="M65.7905 62.7125C68.6781 62.7125 71.0189 60.3788 71.0189 57.5C71.0189 54.6212 68.6781 52.2875 65.7905 52.2875C62.9029 52.2875 60.5621 54.6212 60.5621 57.5C60.5621 60.3788 62.9029 62.7125 65.7905 62.7125Z" fill="url(#paint25_linear_45_1790)"/>
</g>
<mask id="mask13_45_1790" style="mask-type:alpha" maskUnits="userSpaceOnUse" x="90" y="52" width="12" height="11">
<path d="M96.0716 62.7125C98.9592 62.7125 101.3 60.3788 101.3 57.5C101.3 54.6212 98.9592 52.2875 96.0716 52.2875C93.184 52.2875 90.8432 54.6212 90.8432 57.5C90.8432 60.3788 93.184 62.7125 96.0716 62.7125Z" fill="url(#paint26_linear_45_1790)"/>
</mask>
<g mask="url(#mask13_45_1790)">
<path d="M96.0716 62.7125C98.9592 62.7125 101.3 60.3788 101.3 57.5C101.3 54.6212 98.9592 52.2875 96.0716 52.2875C93.184 52.2875 90.8432 54.6212 90.8432 57.5C90.8432 60.3788 93.184 62.7125 96.0716 62.7125Z" fill="url(#paint27_linear_45_1790)"/>
</g>
<mask id="mask14_45_1790" style="mask-type:alpha" maskUnits="userSpaceOnUse" x="121" y="52" width="11" height="11">
<path d="M126.353 62.7125C129.24 62.7125 131.581 60.3788 131.581 57.5C131.581 54.6212 129.24 52.2875 126.353 52.2875C123.465 52.2875 121.124 54.6212 121.124 57.5C121.124 60.3788 123.465 62.7125 126.353 62.7125Z" fill="url(#paint28_linear_45_1790)"/>
</mask>
<g mask="url(#mask14_45_1790)">
<path d="M126.353 62.7125C129.24 62.7125 131.581 60.3788 131.581 57.5C131.581 54.6212 129.24 52.2875 126.353 52.2875C123.465 52.2875 121.124 54.6212 121.124 57.5C121.124 60.3788 123.465 62.7125 126.353 62.7125Z" fill="url(#paint29_linear_45_1790)"/>
</g>
<mask id="mask15_45_1790" style="mask-type:alpha" maskUnits="userSpaceOnUse" x="0" y="78" width="11" height="11">
<path d="M5.22838 88.8834C8.11594 88.8834 10.4568 86.5496 10.4568 83.6709C10.4568 80.7921 8.11594 78.4584 5.22838 78.4584C2.34082 78.4584 0 80.7921 0 83.6709C0 86.5496 2.34082 88.8834 5.22838 88.8834Z" fill="url(#paint30_linear_45_1790)"/>
</mask>
<g mask="url(#mask15_45_1790)">
<path d="M5.22838 88.8834C8.11594 88.8834 10.4568 86.5496 10.4568 83.6709C10.4568 80.7921 8.11594 78.4584 5.22838 78.4584C2.34082 78.4584 0 80.7921 0 83.6709C0 86.5496 2.34082 88.8834 5.22838 88.8834Z" fill="url(#paint31_linear_45_1790)"/>
</g>
<mask id="mask16_45_1790" style="mask-type:alpha" maskUnits="userSpaceOnUse" x="30" y="78" width="11" height="11">
<path d="M35.5094 88.8834C38.397 88.8834 40.7378 86.5496 40.7378 83.6709C40.7378 80.7921 38.397 78.4584 35.5094 78.4584C32.6219 78.4584 30.2811 80.7921 30.2811 83.6709C30.2811 86.5496 32.6219 88.8834 35.5094 88.8834Z" fill="url(#paint32_linear_45_1790)"/>
</mask>
<g mask="url(#mask16_45_1790)">
<path d="M35.5094 88.8834C38.397 88.8834 40.7378 86.5496 40.7378 83.6709C40.7378 80.7921 38.397 78.4584 35.5094 78.4584C32.6219 78.4584 30.2811 80.7921 30.2811 83.6709C30.2811 86.5496 32.6219 88.8834 35.5094 88.8834Z" fill="url(#paint33_linear_45_1790)"/>
</g>
<mask id="mask17_45_1790" style="mask-type:alpha" maskUnits="userSpaceOnUse" x="60" y="78" width="12" height="11">
<path d="M65.7905 88.8834C68.6781 88.8834 71.0189 86.5496 71.0189 83.6709C71.0189 80.7921 68.6781 78.4584 65.7905 78.4584C62.9029 78.4584 60.5621 80.7921 60.5621 83.6709C60.5621 86.5496 62.9029 88.8834 65.7905 88.8834Z" fill="url(#paint34_linear_45_1790)"/>
</mask>
<g mask="url(#mask17_45_1790)">
<path d="M65.7905 88.8834C68.6781 88.8834 71.0189 86.5496 71.0189 83.6709C71.0189 80.7921 68.6781 78.4584 65.7905 78.4584C62.9029 78.4584 60.5621 80.7921 60.5621 83.6709C60.5621 86.5496 62.9029 88.8834 65.7905 88.8834Z" fill="url(#paint35_linear_45_1790)"/>
</g>
<mask id="mask18_45_1790" style="mask-type:alpha" maskUnits="userSpaceOnUse" x="90" y="78" width="12" height="11">
<path d="M96.0716 88.8834C98.9592 88.8834 101.3 86.5496 101.3 83.6709C101.3 80.7921 98.9592 78.4584 96.0716 78.4584C93.184 78.4584 90.8432 80.7921 90.8432 83.6709C90.8432 86.5496 93.184 88.8834 96.0716 88.8834Z" fill="url(#paint36_linear_45_1790)"/>
</mask>
<g mask="url(#mask18_45_1790)">
<path d="M96.0716 88.8834C98.9592 88.8834 101.3 86.5496 101.3 83.6709C101.3 80.7921 98.9592 78.4584 96.0716 78.4584C93.184 78.4584 90.8432 80.7921 90.8432 83.6709C90.8432 86.5496 93.184 88.8834 96.0716 88.8834Z" fill="url(#paint37_linear_45_1790)"/>
</g>
<mask id="mask19_45_1790" style="mask-type:alpha" maskUnits="userSpaceOnUse" x="121" y="78" width="11" height="11">
<path d="M126.353 88.8834C129.24 88.8834 131.581 86.5496 131.581 83.6709C131.581 80.7921 129.24 78.4584 126.353 78.4584C123.465 78.4584 121.124 80.7921 121.124 83.6709C121.124 86.5496 123.465 88.8834 126.353 88.8834Z" fill="url(#paint38_linear_45_1790)"/>
</mask>
<g mask="url(#mask19_45_1790)">
<path d="M126.353 88.8834C129.24 88.8834 131.581 86.5496 131.581 83.6709C131.581 80.7921 129.24 78.4584 126.353 78.4584C123.465 78.4584 121.124 80.7921 121.124 83.6709C121.124 86.5496 123.465 88.8834 126.353 88.8834Z" fill="url(#paint39_linear_45_1790)"/>
</g>
<mask id="mask20_45_1790" style="mask-type:alpha" maskUnits="userSpaceOnUse" x="0" y="104" width="11" height="11">
<path d="M5.22838 115C8.11594 115 10.4568 112.666 10.4568 109.788C10.4568 106.909 8.11594 104.575 5.22838 104.575C2.34082 104.575 0 106.909 0 109.788C0 112.666 2.34082 115 5.22838 115Z" fill="url(#paint40_linear_45_1790)"/>
</mask>
<g mask="url(#mask20_45_1790)">
<path d="M5.22838 115C8.11594 115 10.4568 112.666 10.4568 109.788C10.4568 106.909 8.11594 104.575 5.22838 104.575C2.34082 104.575 0 106.909 0 109.788C0 112.666 2.34082 115 5.22838 115Z" fill="url(#paint41_linear_45_1790)"/>
</g>
<mask id="mask21_45_1790" style="mask-type:alpha" maskUnits="userSpaceOnUse" x="30" y="104" width="11" height="11">
<path d="M35.5094 115C38.397 115 40.7378 112.666 40.7378 109.788C40.7378 106.909 38.397 104.575 35.5094 104.575C32.6219 104.575 30.2811 106.909 30.2811 109.788C30.2811 112.666 32.6219 115 35.5094 115Z" fill="url(#paint42_linear_45_1790)"/>
</mask>
<g mask="url(#mask21_45_1790)">
<path d="M35.5094 115C38.397 115 40.7378 112.666 40.7378 109.788C40.7378 106.909 38.397 104.575 35.5094 104.575C32.6219 104.575 30.2811 106.909 30.2811 109.788C30.2811 112.666 32.6219 115 35.5094 115Z" fill="url(#paint43_linear_45_1790)"/>
</g>
<mask id="mask22_45_1790" style="mask-type:alpha" maskUnits="userSpaceOnUse" x="60" y="104" width="12" height="11">
<path d="M65.7905 115C68.6781 115 71.0189 112.666 71.0189 109.788C71.0189 106.909 68.6781 104.575 65.7905 104.575C62.9029 104.575 60.5621 106.909 60.5621 109.788C60.5621 112.666 62.9029 115 65.7905 115Z" fill="url(#paint44_linear_45_1790)"/>
</mask>
<g mask="url(#mask22_45_1790)">
<path d="M65.7905 115C68.6781 115 71.0189 112.666 71.0189 109.788C71.0189 106.909 68.6781 104.575 65.7905 104.575C62.9029 104.575 60.5621 106.909 60.5621 109.788C60.5621 112.666 62.9029 115 65.7905 115Z" fill="url(#paint45_linear_45_1790)"/>
</g>
<mask id="mask23_45_1790" style="mask-type:alpha" maskUnits="userSpaceOnUse" x="90" y="104" width="12" height="11">
<path d="M96.0716 115C98.9592 115 101.3 112.666 101.3 109.788C101.3 106.909 98.9592 104.575 96.0716 104.575C93.184 104.575 90.8432 106.909 90.8432 109.788C90.8432 112.666 93.184 115 96.0716 115Z" fill="url(#paint46_linear_45_1790)"/>
</mask>
<g mask="url(#mask23_45_1790)">
<path d="M96.0716 115C98.9592 115 101.3 112.666 101.3 109.788C101.3 106.909 98.9592 104.575 96.0716 104.575C93.184 104.575 90.8432 106.909 90.8432 109.788C90.8432 112.666 93.184 115 96.0716 115Z" fill="url(#paint47_linear_45_1790)"/>
</g>
<mask id="mask24_45_1790" style="mask-type:alpha" maskUnits="userSpaceOnUse" x="121" y="104" width="11" height="11">
<path d="M126.353 115C129.24 115 131.581 112.666 131.581 109.788C131.581 106.909 129.24 104.575 126.353 104.575C123.465 104.575 121.124 106.909 121.124 109.788C121.124 112.666 123.465 115 126.353 115Z" fill="url(#paint48_linear_45_1790)"/>
</mask>
<g mask="url(#mask24_45_1790)">
<path d="M126.353 115C129.24 115 131.581 112.666 131.581 109.788C131.581 106.909 129.24 104.575 126.353 104.575C123.465 104.575 121.124 106.909 121.124 109.788C121.124 112.666 123.465 115 126.353 115Z" fill="url(#paint49_linear_45_1790)"/>
</g>
</g>
<g opacity="0.3">
<mask id="mask25_45_1790" style="mask-type:alpha" maskUnits="userSpaceOnUse" x="10" y="394" width="11" height="11">
<path d="M15.2284 404.425C18.1159 404.425 20.4568 402.091 20.4568 399.212C20.4568 396.334 18.1159 394 15.2284 394C12.3408 394 10 396.334 10 399.212C10 402.091 12.3408 404.425 15.2284 404.425Z" fill="url(#paint50_linear_45_1790)"/>
</mask>
<g mask="url(#mask25_45_1790)">
<path d="M15.2284 404.425C18.1159 404.425 20.4568 402.091 20.4568 399.212C20.4568 396.334 18.1159 394 15.2284 394C12.3408 394 10 396.334 10 399.212C10 402.091 12.3408 404.425 15.2284 404.425Z" fill="url(#paint51_linear_45_1790)"/>
</g>
<mask id="mask26_45_1790" style="mask-type:alpha" maskUnits="userSpaceOnUse" x="40" y="394" width="11" height="11">
<path d="M45.5094 404.425C48.397 404.425 50.7378 402.091 50.7378 399.212C50.7378 396.334 48.397 394 45.5094 394C42.6219 394 40.2811 396.334 40.2811 399.212C40.2811 402.091 42.6219 404.425 45.5094 404.425Z" fill="url(#paint52_linear_45_1790)"/>
</mask>
<g mask="url(#mask26_45_1790)">
<path d="M45.5094 404.425C48.397 404.425 50.7378 402.091 50.7378 399.212C50.7378 396.334 48.397 394 45.5094 394C42.6219 394 40.2811 396.334 40.2811 399.212C40.2811 402.091 42.6219 404.425 45.5094 404.425Z" fill="url(#paint53_linear_45_1790)"/>
</g>
<mask id="mask27_45_1790" style="mask-type:alpha" maskUnits="userSpaceOnUse" x="70" y="394" width="12" height="11">
<path d="M75.7905 404.425C78.6781 404.425 81.0189 402.091 81.0189 399.212C81.0189 396.334 78.6781 394 75.7905 394C72.9029 394 70.5621 396.334 70.5621 399.212C70.5621 402.091 72.9029 404.425 75.7905 404.425Z" fill="url(#paint54_linear_45_1790)"/>
</mask>
<g mask="url(#mask27_45_1790)">
<path d="M75.7905 404.425C78.6781 404.425 81.0189 402.091 81.0189 399.212C81.0189 396.334 78.6781 394 75.7905 394C72.9029 394 70.5621 396.334 70.5621 399.212C70.5621 402.091 72.9029 404.425 75.7905 404.425Z" fill="url(#paint55_linear_45_1790)"/>
</g>
<mask id="mask28_45_1790" style="mask-type:alpha" maskUnits="userSpaceOnUse" x="100" y="394" width="12" height="11">
<path d="M106.072 404.425C108.959 404.425 111.3 402.091 111.3 399.212C111.3 396.334 108.959 394 106.072 394C103.184 394 100.843 396.334 100.843 399.212C100.843 402.091 103.184 404.425 106.072 404.425Z" fill="url(#paint56_linear_45_1790)"/>
</mask>
<g mask="url(#mask28_45_1790)">
<path d="M106.072 404.425C108.959 404.425 111.3 402.091 111.3 399.212C111.3 396.334 108.959 394 106.072 394C103.184 394 100.843 396.334 100.843 399.212C100.843 402.091 103.184 404.425 106.072 404.425Z" fill="url(#paint57_linear_45_1790)"/>
</g>
<mask id="mask29_45_1790" style="mask-type:alpha" maskUnits="userSpaceOnUse" x="131" y="394" width="11" height="11">
<path d="M136.353 404.425C139.24 404.425 141.581 402.091 141.581 399.212C141.581 396.334 139.24 394 136.353 394C133.465 394 131.124 396.334 131.124 399.212C131.124 402.091 133.465 404.425 136.353 404.425Z" fill="url(#paint58_linear_45_1790)"/>
</mask>
<g mask="url(#mask29_45_1790)">
<path d="M136.353 404.425C139.24 404.425 141.581 402.091 141.581 399.212C141.581 396.334 139.24 394 136.353 394C133.465 394 131.124 396.334 131.124 399.212C131.124 402.091 133.465 404.425 136.353 404.425Z" fill="url(#paint59_linear_45_1790)"/>
</g>
<mask id="mask30_45_1790" style="mask-type:alpha" maskUnits="userSpaceOnUse" x="10" y="420" width="11" height="11">
<path d="M15.2284 430.596C18.1159 430.596 20.4568 428.262 20.4568 425.383C20.4568 422.505 18.1159 420.171 15.2284 420.171C12.3408 420.171 10 422.505 10 425.383C10 428.262 12.3408 430.596 15.2284 430.596Z" fill="url(#paint60_linear_45_1790)"/>
</mask>
<g mask="url(#mask30_45_1790)">
<path d="M15.2284 430.596C18.1159 430.596 20.4568 428.262 20.4568 425.383C20.4568 422.505 18.1159 420.171 15.2284 420.171C12.3408 420.171 10 422.505 10 425.383C10 428.262 12.3408 430.596 15.2284 430.596Z" fill="url(#paint61_linear_45_1790)"/>
</g>
<mask id="mask31_45_1790" style="mask-type:alpha" maskUnits="userSpaceOnUse" x="40" y="420" width="11" height="11">
<path d="M45.5094 430.596C48.397 430.596 50.7378 428.262 50.7378 425.383C50.7378 422.505 48.397 420.171 45.5094 420.171C42.6219 420.171 40.2811 422.505 40.2811 425.383C40.2811 428.262 42.6219 430.596 45.5094 430.596Z" fill="url(#paint62_linear_45_1790)"/>
</mask>
<g mask="url(#mask31_45_1790)">
<path d="M45.5094 430.596C48.397 430.596 50.7378 428.262 50.7378 425.383C50.7378 422.505 48.397 420.171 45.5094 420.171C42.6219 420.171 40.2811 422.505 40.2811 425.383C40.2811 428.262 42.6219 430.596 45.5094 430.596Z" fill="url(#paint63_linear_45_1790)"/>
</g>
<mask id="mask32_45_1790" style="mask-type:alpha" maskUnits="userSpaceOnUse" x="70" y="420" width="12" height="11">
<path d="M75.7905 430.596C78.6781 430.596 81.0189 428.262 81.0189 425.383C81.0189 422.505 78.6781 420.171 75.7905 420.171C72.9029 420.171 70.5621 422.505 70.5621 425.383C70.5621 428.262 72.9029 430.596 75.7905 430.596Z" fill="url(#paint64_linear_45_1790)"/>
</mask>
<g mask="url(#mask32_45_1790)">
<path d="M75.7905 430.596C78.6781 430.596 81.0189 428.262 81.0189 425.383C81.0189 422.505 78.6781 420.171 75.7905 420.171C72.9029 420.171 70.5621 422.505 70.5621 425.383C70.5621 428.262 72.9029 430.596 75.7905 430.596Z" fill="url(#paint65_linear_45_1790)"/>
</g>
<mask id="mask33_45_1790" style="mask-type:alpha" maskUnits="userSpaceOnUse" x="100" y="420" width="12" height="11">
<path d="M106.072 430.596C108.959 430.596 111.3 428.262 111.3 425.383C111.3 422.505 108.959 420.171 106.072 420.171C103.184 420.171 100.843 422.505 100.843 425.383C100.843 428.262 103.184 430.596 106.072 430.596Z" fill="url(#paint66_linear_45_1790)"/>
</mask>
<g mask="url(#mask33_45_1790)">
<path d="M106.072 430.596C108.959 430.596 111.3 428.262 111.3 425.383C111.3 422.505 108.959 420.171 106.072 420.171C103.184 420.171 100.843 422.505 100.843 425.383C100.843 428.262 103.184 430.596 106.072 430.596Z" fill="url(#paint67_linear_45_1790)"/>
</g>
<mask id="mask34_45_1790" style="mask-type:alpha" maskUnits="userSpaceOnUse" x="131" y="420" width="11" height="11">
<path d="M136.353 430.596C139.24 430.596 141.581 428.262 141.581 425.383C141.581 422.505 139.24 420.171 136.353 420.171C133.465 420.171 131.124 422.505 131.124 425.383C131.124 428.262 133.465 430.596 136.353 430.596Z" fill="url(#paint68_linear_45_1790)"/>
</mask>
<g mask="url(#mask34_45_1790)">
<path d="M136.353 430.596C139.24 430.596 141.581 428.262 141.581 425.383C141.581 422.505 139.24 420.171 136.353 420.171C133.465 420.171 131.124 422.505 131.124 425.383C131.124 428.262 133.465 430.596 136.353 430.596Z" fill="url(#paint69_linear_45_1790)"/>
</g>
<mask id="mask35_45_1790" style="mask-type:alpha" maskUnits="userSpaceOnUse" x="10" y="446" width="11" height="11">
<path d="M15.2284 456.712C18.1159 456.712 20.4568 454.379 20.4568 451.5C20.4568 448.621 18.1159 446.288 15.2284 446.288C12.3408 446.288 10 448.621 10 451.5C10 454.379 12.3408 456.712 15.2284 456.712Z" fill="url(#paint70_linear_45_1790)"/>
</mask>
<g mask="url(#mask35_45_1790)">
<path d="M15.2284 456.712C18.1159 456.712 20.4568 454.379 20.4568 451.5C20.4568 448.621 18.1159 446.288 15.2284 446.288C12.3408 446.288 10 448.621 10 451.5C10 454.379 12.3408 456.712 15.2284 456.712Z" fill="url(#paint71_linear_45_1790)"/>
</g>
<mask id="mask36_45_1790" style="mask-type:alpha" maskUnits="userSpaceOnUse" x="40" y="446" width="11" height="11">
<path d="M45.5094 456.712C48.397 456.712 50.7378 454.379 50.7378 451.5C50.7378 448.621 48.397 446.288 45.5094 446.288C42.6219 446.288 40.2811 448.621 40.2811 451.5C40.2811 454.379 42.6219 456.712 45.5094 456.712Z" fill="url(#paint72_linear_45_1790)"/>
</mask>
<g mask="url(#mask36_45_1790)">
<path d="M45.5094 456.712C48.397 456.712 50.7378 454.379 50.7378 451.5C50.7378 448.621 48.397 446.288 45.5094 446.288C42.6219 446.288 40.2811 448.621 40.2811 451.5C40.2811 454.379 42.6219 456.712 45.5094 456.712Z" fill="url(#paint73_linear_45_1790)"/>
</g>
<mask id="mask37_45_1790" style="mask-type:alpha" maskUnits="userSpaceOnUse" x="70" y="446" width="12" height="11">
<path d="M75.7905 456.712C78.6781 456.712 81.0189 454.379 81.0189 451.5C81.0189 448.621 78.6781 446.288 75.7905 446.288C72.9029 446.288 70.5621 448.621 70.5621 451.5C70.5621 454.379 72.9029 456.712 75.7905 456.712Z" fill="url(#paint74_linear_45_1790)"/>
</mask>
<g mask="url(#mask37_45_1790)">
<path d="M75.7905 456.712C78.6781 456.712 81.0189 454.379 81.0189 451.5C81.0189 448.621 78.6781 446.288 75.7905 446.288C72.9029 446.288 70.5621 448.621 70.5621 451.5C70.5621 454.379 72.9029 456.712 75.7905 456.712Z" fill="url(#paint75_linear_45_1790)"/>
</g>
<mask id="mask38_45_1790" style="mask-type:alpha" maskUnits="userSpaceOnUse" x="100" y="446" width="12" height="11">
<path d="M106.072 456.712C108.959 456.712 111.3 454.379 111.3 451.5C111.3 448.621 108.959 446.288 106.072 446.288C103.184 446.288 100.843 448.621 100.843 451.5C100.843 454.379 103.184 456.712 106.072 456.712Z" fill="url(#paint76_linear_45_1790)"/>
</mask>
<g mask="url(#mask38_45_1790)">
<path d="M106.072 456.712C108.959 456.712 111.3 454.379 111.3 451.5C111.3 448.621 108.959 446.288 106.072 446.288C103.184 446.288 100.843 448.621 100.843 451.5C100.843 454.379 103.184 456.712 106.072 456.712Z" fill="url(#paint77_linear_45_1790)"/>
</g>
<mask id="mask39_45_1790" style="mask-type:alpha" maskUnits="userSpaceOnUse" x="131" y="446" width="11" height="11">
<path d="M136.353 456.712C139.24 456.712 141.581 454.379 141.581 451.5C141.581 448.621 139.24 446.288 136.353 446.288C133.465 446.288 131.124 448.621 131.124 451.5C131.124 454.379 133.465 456.712 136.353 456.712Z" fill="url(#paint78_linear_45_1790)"/>
</mask>
<g mask="url(#mask39_45_1790)">
<path d="M136.353 456.712C139.24 456.712 141.581 454.379 141.581 451.5C141.581 448.621 139.24 446.288 136.353 446.288C133.465 446.288 131.124 448.621 131.124 451.5C131.124 454.379 133.465 456.712 136.353 456.712Z" fill="url(#paint79_linear_45_1790)"/>
</g>
<mask id="mask40_45_1790" style="mask-type:alpha" maskUnits="userSpaceOnUse" x="10" y="472" width="11" height="11">
<path d="M15.2284 482.883C18.1159 482.883 20.4568 480.55 20.4568 477.671C20.4568 474.792 18.1159 472.458 15.2284 472.458C12.3408 472.458 10 474.792 10 477.671C10 480.55 12.3408 482.883 15.2284 482.883Z" fill="url(#paint80_linear_45_1790)"/>
</mask>
<g mask="url(#mask40_45_1790)">
<path d="M15.2284 482.883C18.1159 482.883 20.4568 480.55 20.4568 477.671C20.4568 474.792 18.1159 472.458 15.2284 472.458C12.3408 472.458 10 474.792 10 477.671C10 480.55 12.3408 482.883 15.2284 482.883Z" fill="url(#paint81_linear_45_1790)"/>
</g>
<mask id="mask41_45_1790" style="mask-type:alpha" maskUnits="userSpaceOnUse" x="40" y="472" width="11" height="11">
<path d="M45.5094 482.883C48.397 482.883 50.7378 480.55 50.7378 477.671C50.7378 474.792 48.397 472.458 45.5094 472.458C42.6219 472.458 40.2811 474.792 40.2811 477.671C40.2811 480.55 42.6219 482.883 45.5094 482.883Z" fill="url(#paint82_linear_45_1790)"/>
</mask>
<g mask="url(#mask41_45_1790)">
<path d="M45.5094 482.883C48.397 482.883 50.7378 480.55 50.7378 477.671C50.7378 474.792 48.397 472.458 45.5094 472.458C42.6219 472.458 40.2811 474.792 40.2811 477.671C40.2811 480.55 42.6219 482.883 45.5094 482.883Z" fill="url(#paint83_linear_45_1790)"/>
</g>
<mask id="mask42_45_1790" style="mask-type:alpha" maskUnits="userSpaceOnUse" x="70" y="472" width="12" height="11">
<path d="M75.7905 482.883C78.6781 482.883 81.0189 480.55 81.0189 477.671C81.0189 474.792 78.6781 472.458 75.7905 472.458C72.9029 472.458 70.5621 474.792 70.5621 477.671C70.5621 480.55 72.9029 482.883 75.7905 482.883Z" fill="url(#paint84_linear_45_1790)"/>
</mask>
<g mask="url(#mask42_45_1790)">
<path d="M75.7905 482.883C78.6781 482.883 81.0189 480.55 81.0189 477.671C81.0189 474.792 78.6781 472.458 75.7905 472.458C72.9029 472.458 70.5621 474.792 70.5621 477.671C70.5621 480.55 72.9029 482.883 75.7905 482.883Z" fill="url(#paint85_linear_45_1790)"/>
</g>
<mask id="mask43_45_1790" style="mask-type:alpha" maskUnits="userSpaceOnUse" x="100" y="472" width="12" height="11">
<path d="M106.072 482.883C108.959 482.883 111.3 480.55 111.3 477.671C111.3 474.792 108.959 472.458 106.072 472.458C103.184 472.458 100.843 474.792 100.843 477.671C100.843 480.55 103.184 482.883 106.072 482.883Z" fill="url(#paint86_linear_45_1790)"/>
</mask>
<g mask="url(#mask43_45_1790)">
<path d="M106.072 482.883C108.959 482.883 111.3 480.55 111.3 477.671C111.3 474.792 108.959 472.458 106.072 472.458C103.184 472.458 100.843 474.792 100.843 477.671C100.843 480.55 103.184 482.883 106.072 482.883Z" fill="url(#paint87_linear_45_1790)"/>
</g>
<mask id="mask44_45_1790" style="mask-type:alpha" maskUnits="userSpaceOnUse" x="131" y="472" width="11" height="11">
<path d="M136.353 482.883C139.24 482.883 141.581 480.55 141.581 477.671C141.581 474.792 139.24 472.458 136.353 472.458C133.465 472.458 131.124 474.792 131.124 477.671C131.124 480.55 133.465 482.883 136.353 482.883Z" fill="url(#paint88_linear_45_1790)"/>
</mask>
<g mask="url(#mask44_45_1790)">
<path d="M136.353 482.883C139.24 482.883 141.581 480.55 141.581 477.671C141.581 474.792 139.24 472.458 136.353 472.458C133.465 472.458 131.124 474.792 131.124 477.671C131.124 480.55 133.465 482.883 136.353 482.883Z" fill="url(#paint89_linear_45_1790)"/>
</g>
<mask id="mask45_45_1790" style="mask-type:alpha" maskUnits="userSpaceOnUse" x="10" y="498" width="11" height="11">
<path d="M15.2284 509C18.1159 509 20.4568 506.666 20.4568 503.788C20.4568 500.909 18.1159 498.575 15.2284 498.575C12.3408 498.575 10 500.909 10 503.788C10 506.666 12.3408 509 15.2284 509Z" fill="url(#paint90_linear_45_1790)"/>
</mask>
<g mask="url(#mask45_45_1790)">
<path d="M15.2284 509C18.1159 509 20.4568 506.666 20.4568 503.788C20.4568 500.909 18.1159 498.575 15.2284 498.575C12.3408 498.575 10 500.909 10 503.788C10 506.666 12.3408 509 15.2284 509Z" fill="url(#paint91_linear_45_1790)"/>
</g>
<mask id="mask46_45_1790" style="mask-type:alpha" maskUnits="userSpaceOnUse" x="40" y="498" width="11" height="11">
<path d="M45.5094 509C48.397 509 50.7378 506.666 50.7378 503.788C50.7378 500.909 48.397 498.575 45.5094 498.575C42.6219 498.575 40.2811 500.909 40.2811 503.788C40.2811 506.666 42.6219 509 45.5094 509Z" fill="url(#paint92_linear_45_1790)"/>
</mask>
<g mask="url(#mask46_45_1790)">
<path d="M45.5094 509C48.397 509 50.7378 506.666 50.7378 503.788C50.7378 500.909 48.397 498.575 45.5094 498.575C42.6219 498.575 40.2811 500.909 40.2811 503.788C40.2811 506.666 42.6219 509 45.5094 509Z" fill="url(#paint93_linear_45_1790)"/>
</g>
<mask id="mask47_45_1790" style="mask-type:alpha" maskUnits="userSpaceOnUse" x="70" y="498" width="12" height="11">
<path d="M75.7905 509C78.6781 509 81.0189 506.666 81.0189 503.788C81.0189 500.909 78.6781 498.575 75.7905 498.575C72.9029 498.575 70.5621 500.909 70.5621 503.788C70.5621 506.666 72.9029 509 75.7905 509Z" fill="url(#paint94_linear_45_1790)"/>
</mask>
<g mask="url(#mask47_45_1790)">
<path d="M75.7905 509C78.6781 509 81.0189 506.666 81.0189 503.788C81.0189 500.909 78.6781 498.575 75.7905 498.575C72.9029 498.575 70.5621 500.909 70.5621 503.788C70.5621 506.666 72.9029 509 75.7905 509Z" fill="url(#paint95_linear_45_1790)"/>
</g>
<mask id="mask48_45_1790" style="mask-type:alpha" maskUnits="userSpaceOnUse" x="100" y="498" width="12" height="11">
<path d="M106.072 509C108.959 509 111.3 506.666 111.3 503.788C111.3 500.909 108.959 498.575 106.072 498.575C103.184 498.575 100.843 500.909 100.843 503.788C100.843 506.666 103.184 509 106.072 509Z" fill="url(#paint96_linear_45_1790)"/>
</mask>
<g mask="url(#mask48_45_1790)">
<path d="M106.072 509C108.959 509 111.3 506.666 111.3 503.788C111.3 500.909 108.959 498.575 106.072 498.575C103.184 498.575 100.843 500.909 100.843 503.788C100.843 506.666 103.184 509 106.072 509Z" fill="url(#paint97_linear_45_1790)"/>
</g>
<mask id="mask49_45_1790" style="mask-type:alpha" maskUnits="userSpaceOnUse" x="131" y="498" width="11" height="11">
<path d="M136.353 509C139.24 509 141.581 506.666 141.581 503.788C141.581 500.909 139.24 498.575 136.353 498.575C133.465 498.575 131.124 500.909 131.124 503.788C131.124 506.666 133.465 509 136.353 509Z" fill="url(#paint98_linear_45_1790)"/>
</mask>
<g mask="url(#mask49_45_1790)">
<path d="M136.353 509C139.24 509 141.581 506.666 141.581 503.788C141.581 500.909 139.24 498.575 136.353 498.575C133.465 498.575 131.124 500.909 131.124 503.788C131.124 506.666 133.465 509 136.353 509Z" fill="url(#paint99_linear_45_1790)"/>
</g>
</g>
<g clip-path="url(#clip0_45_1790)">
<path d="M599.035 233.731C599.035 233.731 583.964 241.846 588.302 251.085C592.64 260.323 654.24 252.764 654.24 252.764C654.24 252.764 649.902 240.166 642.094 237.646C634.285 235.127 599.035 233.731 599.035 233.731Z" fill="#9747FF"/>
<path d="M593.16 235.895C596.189 233.989 599.556 232.641 603.091 231.92C614.882 229.153 627.226 229.526 638.816 232.998L638.604 232.831C643.542 235.354 647.877 238.853 651.328 243.101L593.16 235.895Z" fill="#CCCCCC"/>
<path d="M659.897 275.626C659.689 278.641 659.48 281.654 659.272 284.663C658.987 290.967 658.277 297.246 657.146 303.46C656.088 308.659 654.405 313.816 651.394 318.242C648.384 322.659 643.916 326.313 638.623 327.657C635.374 328.411 631.996 328.482 628.715 327.867C622.529 324.465 618.339 328.816 624.516 333.242C625.917 334.245 627.374 335.173 628.88 336.022L631.682 377.907L579.626 366.989L589.786 311.271C588.23 309.902 586.807 308.398 585.535 306.777C579.713 299.294 577.709 289.543 578.091 280.187C578.481 270.822 581.058 261.692 583.617 252.664C584.27 250.214 585.058 247.8 585.977 245.432C587.114 245.886 588.268 246.297 589.439 246.642C596.926 248.842 604.882 249.018 612.708 249.01C626.633 249.002 640.541 248.475 654.431 247.431C657.623 252.518 659.561 258.249 660.096 264.178C660.321 267.994 660.254 271.82 659.897 275.626Z" fill="#CCCCCC"/>
<path d="M437.255 389.325L517.395 396.212L518.254 396.288V65.2556C517.967 65.0625 517.681 64.8693 517.395 64.6761C500.693 53.3668 482.626 44.076 463.595 37.0103L459.5 91.6868L459.127 96.6925L455.075 150.915L453.826 167.596L437.402 387.393L437.255 389.325Z" fill="#E6E6E6"/>
<path d="M239.069 59.0909C238.496 59.4436 237.924 59.7964 237.351 60.1659V396.288L239.069 396.136L318.341 389.325L318.194 387.393L301.77 167.596L300.521 150.915L296.469 96.6925L296.096 91.6868L291.801 34.3479C273.281 40.5625 255.582 48.8674 239.069 59.0909Z" fill="#E6E6E6"/>
<path d="M237.351 60.1659C236.197 60.8882 235.043 61.6273 233.907 62.3748V400.873C233.907 409.331 239.086 416.42 246.01 418.225C247.141 418.522 248.308 418.672 249.48 418.67H506.984C508.153 418.672 509.317 418.522 510.445 418.225C513.019 417.534 515.351 416.182 517.195 414.311C520.712 410.673 522.634 405.856 522.557 400.873V68.2624C521.134 67.2462 519.703 66.2383 518.254 65.2556C517.967 65.0625 517.681 64.8693 517.395 64.6761V400.873C517.397 401.963 517.263 403.048 516.996 404.107C515.772 409.104 511.738 412.766 506.984 412.766H249.48C243.736 412.766 239.069 407.433 239.069 400.873V59.0909C238.496 59.4436 237.924 59.7964 237.351 60.1659Z" fill="#E6E6E6"/>
<path d="M519.976 91.6902H236.486V96.6951H519.976V91.6902Z" fill="#E6E6E6"/>
<path d="M433.151 27.8472C431.433 27.4357 429.715 27.0493 427.98 26.6882V162.59H433.151V27.8472Z" fill="#E6E6E6"/>
<path d="M328.484 25C326.757 25.3108 325.031 25.6299 323.313 25.9743V162.59H328.484V25Z" fill="#E6E6E6"/>
<path d="M180.905 409.911C180.904 412.783 181.472 415.628 182.579 418.293C183.005 419.326 183.512 420.325 184.098 421.283C184.854 422.531 185.731 423.706 186.718 424.793C188.897 427.198 191.582 429.124 194.592 430.444C197.603 431.763 200.869 432.445 204.174 432.445H543.674C549.846 432.445 555.764 430.071 560.128 425.847C564.492 421.623 566.943 415.893 566.943 409.919C566.943 403.945 564.492 398.215 560.128 393.991C555.764 389.766 549.846 387.393 543.674 387.393H204.174C198.006 387.399 192.092 389.773 187.73 393.994C183.368 398.216 180.913 403.94 180.905 409.911Z" fill="#E6E6E6"/>
<path d="M236.486 167.597L518.252 167.597V150.914L236.486 150.914V167.597Z" fill="#E6E6E6"/>
<path d="M389.432 155.085H365.306C365.306 153.88 365.551 152.687 366.027 151.574C366.503 150.461 367.202 149.449 368.082 148.597C368.962 147.745 370.007 147.069 371.157 146.608C372.307 146.147 373.539 145.91 374.784 145.91H379.954C382.468 145.91 384.879 146.876 386.656 148.597C388.434 150.318 389.432 152.652 389.432 155.085Z" fill="#E6E6E6"/>
<path d="M66 422.777C73.537 431.423 81.6892 439.548 90.3969 447.092H682.603C691.311 439.548 699.463 431.423 707 422.777H66Z" fill="#3F3D56"/>
<path d="M226.645 341.468V427.607H288.982V341.468C288.983 340.849 288.779 340.245 288.399 339.746C288.02 339.248 287.485 338.88 286.874 338.697C286.585 338.605 286.283 338.559 285.98 338.562H229.655C229.26 338.562 228.869 338.636 228.504 338.782C228.139 338.928 227.807 339.141 227.528 339.411C227.248 339.681 227.026 340.002 226.875 340.355C226.723 340.708 226.645 341.086 226.645 341.468ZM250.972 371.066C250.989 369.368 251.697 367.744 252.943 366.549C254.189 365.354 255.872 364.683 257.627 364.683C259.381 364.683 261.064 365.354 262.31 366.549C263.557 367.744 264.265 369.368 264.281 371.066V381.06C264.272 382.763 263.567 384.393 262.32 385.594C261.073 386.795 259.386 387.47 257.627 387.47C255.868 387.47 254.18 386.795 252.933 385.594C251.686 384.393 250.981 382.763 250.972 381.06V371.066Z" fill="#2F2E41"/>
<path d="M226.454 424.852V433.159C226.455 433.589 226.632 434.001 226.945 434.306C227.259 434.611 227.684 434.784 228.128 434.788H287.498C287.943 434.786 288.369 434.613 288.683 434.308C288.997 434.002 289.173 433.589 289.173 433.159V424.852H226.454Z" fill="#3F3D56"/>
<path d="M128.58 211.689V368.966C128.582 370.97 129.405 372.892 130.869 374.309C132.333 375.727 134.318 376.523 136.388 376.525H377.147C379.218 376.523 381.203 375.727 382.667 374.309C384.131 372.892 384.954 370.97 384.956 368.966V211.689C384.951 209.687 384.126 207.768 382.663 206.353C381.199 204.937 379.216 204.141 377.147 204.139H136.388C134.32 204.141 132.336 204.937 130.873 206.353C129.409 207.768 128.585 209.687 128.58 211.689Z" fill="#3F3D56"/>
<path d="M134.228 213.646V367.026C134.23 368.097 134.67 369.123 135.452 369.881C136.235 370.638 137.295 371.064 138.401 371.066H375.143C376.249 371.064 377.31 370.638 378.092 369.881C378.874 369.123 379.314 368.097 379.316 367.026V213.646C379.316 212.574 378.877 211.546 378.094 210.787C377.312 210.028 376.251 209.6 375.143 209.598H138.401C137.294 209.6 136.232 210.028 135.45 210.787C134.668 211.546 134.228 212.574 134.228 213.646Z" fill="#9747FF"/>
<path d="M182.501 436.745C182.742 437.037 183.049 437.273 183.397 437.434C183.746 437.596 184.128 437.679 184.514 437.677H325.36C325.745 437.677 326.126 437.593 326.473 437.432C326.821 437.272 327.127 437.038 327.37 436.749C327.613 436.459 327.785 436.121 327.876 435.758C327.967 435.396 327.973 435.018 327.894 434.653L325.707 424.6C325.617 424.19 325.422 423.809 325.14 423.49C324.858 423.172 324.498 422.927 324.094 422.777C323.801 422.666 323.489 422.609 323.174 422.609H186.692C186.377 422.609 186.065 422.666 185.772 422.777C185.367 422.927 185.008 423.172 184.726 423.49C184.444 423.809 184.249 424.19 184.158 424.6L181.972 434.653C181.894 435.018 181.901 435.395 181.993 435.757C182.084 436.119 182.258 436.456 182.501 436.745Z" fill="#2F2E41"/>
<path d="M318.259 426.94H321.75C321.984 426.94 322.174 426.756 322.174 426.53V424.83C322.174 424.604 321.984 424.42 321.75 424.42H318.259C318.025 424.42 317.836 424.604 317.836 424.83V426.53C317.836 426.756 318.025 426.94 318.259 426.94Z" fill="#3F3D56"/>
<path d="M309.583 426.94H313.074C313.308 426.94 313.498 426.756 313.498 426.53V424.83C313.498 424.604 313.308 424.42 313.074 424.42H309.583C309.349 424.42 309.16 424.604 309.16 424.83V426.53C309.16 426.756 309.349 426.94 309.583 426.94Z" fill="#3F3D56"/>
<path d="M300.907 426.94H304.398C304.632 426.94 304.822 426.756 304.822 426.53V424.83C304.822 424.604 304.632 424.42 304.398 424.42H300.907C300.673 424.42 300.484 424.604 300.484 424.83V426.53C300.484 426.756 300.673 426.94 300.907 426.94Z" fill="#3F3D56"/>
<path d="M292.231 426.94H295.722C295.956 426.94 296.146 426.756 296.146 426.53V424.83C296.146 424.604 295.956 424.42 295.722 424.42H292.231C291.997 424.42 291.808 424.604 291.808 424.83V426.53C291.808 426.756 291.997 426.94 292.231 426.94Z" fill="#3F3D56"/>
<path d="M283.555 426.94H287.046C287.28 426.94 287.47 426.756 287.47 426.53V424.83C287.47 424.604 287.28 424.42 287.046 424.42H283.555C283.321 424.42 283.132 424.604 283.132 424.83V426.53C283.132 426.756 283.321 426.94 283.555 426.94Z" fill="#3F3D56"/>
<path d="M274.879 426.94H278.37C278.604 426.94 278.794 426.756 278.794 426.53V424.83C278.794 424.604 278.604 424.42 278.37 424.42H274.879C274.645 424.42 274.456 424.604 274.456 424.83V426.53C274.456 426.756 274.645 426.94 274.879 426.94Z" fill="#3F3D56"/>
<path d="M266.203 426.94H269.694C269.928 426.94 270.118 426.756 270.118 426.53V424.83C270.118 424.604 269.928 424.42 269.694 424.42H266.203C265.969 424.42 265.78 424.604 265.78 424.83V426.53C265.78 426.756 265.969 426.94 266.203 426.94Z" fill="#3F3D56"/>
<path d="M257.527 426.94H261.018C261.252 426.94 261.442 426.756 261.442 426.53V424.83C261.442 424.604 261.252 424.42 261.018 424.42H257.527C257.293 424.42 257.104 424.604 257.104 424.83V426.53C257.104 426.756 257.293 426.94 257.527 426.94Z" fill="#3F3D56"/>
<path d="M248.851 426.94H252.342C252.576 426.94 252.766 426.756 252.766 426.53V424.83C252.766 424.604 252.576 424.42 252.342 424.42H248.851C248.617 424.42 248.428 424.604 248.428 424.83V426.53C248.428 426.756 248.617 426.94 248.851 426.94Z" fill="#3F3D56"/>
<path d="M240.175 426.94H243.666C243.9 426.94 244.09 426.756 244.09 426.53V424.83C244.09 424.604 243.9 424.42 243.666 424.42H240.175C239.941 424.42 239.752 424.604 239.752 424.83V426.53C239.752 426.756 239.941 426.94 240.175 426.94Z" fill="#3F3D56"/>
<path d="M231.499 426.94H234.99C235.224 426.94 235.414 426.756 235.414 426.53V424.83C235.414 424.604 235.224 424.42 234.99 424.42H231.499C231.265 424.42 231.076 424.604 231.076 424.83V426.53C231.076 426.756 231.265 426.94 231.499 426.94Z" fill="#3F3D56"/>
<path d="M222.823 426.94H226.314C226.548 426.94 226.738 426.756 226.738 426.53V424.83C226.738 424.604 226.548 424.42 226.314 424.42H222.823C222.589 424.42 222.4 424.604 222.4 424.83V426.53C222.4 426.756 222.589 426.94 222.823 426.94Z" fill="#3F3D56"/>
<path d="M214.147 426.94H217.638C217.872 426.94 218.062 426.756 218.062 426.53V424.83C218.062 424.604 217.872 424.42 217.638 424.42H214.147C213.913 424.42 213.724 424.604 213.724 424.83V426.53C213.724 426.756 213.913 426.94 214.147 426.94Z" fill="#3F3D56"/>
<path d="M205.471 426.94H208.962C209.196 426.94 209.386 426.756 209.386 426.53V424.83C209.386 424.604 209.196 424.42 208.962 424.42H205.471C205.237 424.42 205.048 424.604 205.048 424.83V426.53C205.048 426.756 205.237 426.94 205.471 426.94Z" fill="#3F3D56"/>
<path d="M196.795 426.94H200.286C200.52 426.94 200.71 426.756 200.71 426.53V424.83C200.71 424.604 200.52 424.42 200.286 424.42H196.795C196.561 424.42 196.372 424.604 196.372 424.83V426.53C196.372 426.756 196.561 426.94 196.795 426.94Z" fill="#3F3D56"/>
<path d="M188.119 426.94H191.61C191.844 426.94 192.034 426.756 192.034 426.53V424.83C192.034 424.604 191.844 424.42 191.61 424.42H188.119C187.885 424.42 187.696 424.604 187.696 424.83V426.53C187.696 426.756 187.885 426.94 188.119 426.94Z" fill="#3F3D56"/>
<path d="M318.362 431.139H321.852C322.086 431.139 322.276 430.956 322.276 430.729V429.03C322.276 428.803 322.086 428.62 321.852 428.62H318.362C318.128 428.62 317.938 428.803 317.938 429.03V430.729C317.938 430.956 318.128 431.139 318.362 431.139Z" fill="#3F3D56"/>
<path d="M309.686 431.139H313.177C313.41 431.139 313.6 430.956 313.6 430.729V429.03C313.6 428.803 313.41 428.62 313.177 428.62H309.686C309.452 428.62 309.262 428.803 309.262 429.03V430.729C309.262 430.956 309.452 431.139 309.686 431.139Z" fill="#3F3D56"/>
<path d="M301.01 431.139H304.501C304.734 431.139 304.924 430.956 304.924 430.729V429.03C304.924 428.803 304.734 428.62 304.501 428.62H301.01C300.776 428.62 300.586 428.803 300.586 429.03V430.729C300.586 430.956 300.776 431.139 301.01 431.139Z" fill="#3F3D56"/>
<path d="M292.334 431.139H295.825C296.058 431.139 296.248 430.956 296.248 430.729V429.03C296.248 428.803 296.058 428.62 295.825 428.62H292.334C292.1 428.62 291.91 428.803 291.91 429.03V430.729C291.91 430.956 292.1 431.139 292.334 431.139Z" fill="#3F3D56"/>
<path d="M283.658 431.139H287.149C287.382 431.139 287.572 430.956 287.572 430.729V429.03C287.572 428.803 287.382 428.62 287.149 428.62H283.658C283.424 428.62 283.234 428.803 283.234 429.03V430.729C283.234 430.956 283.424 431.139 283.658 431.139Z" fill="#3F3D56"/>
<path d="M274.982 431.139H278.473C278.706 431.139 278.896 430.956 278.896 430.729V429.03C278.896 428.803 278.706 428.62 278.473 428.62H274.982C274.748 428.62 274.558 428.803 274.558 429.03V430.729C274.558 430.956 274.748 431.139 274.982 431.139Z" fill="#3F3D56"/>
<path d="M266.306 431.139H269.797C270.03 431.139 270.22 430.956 270.22 430.729V429.03C270.22 428.803 270.03 428.62 269.797 428.62H266.306C266.072 428.62 265.882 428.803 265.882 429.03V430.729C265.882 430.956 266.072 431.139 266.306 431.139Z" fill="#3F3D56"/>
<path d="M257.63 431.139H261.121C261.354 431.139 261.544 430.956 261.544 430.729V429.03C261.544 428.803 261.354 428.62 261.121 428.62H257.63C257.396 428.62 257.206 428.803 257.206 429.03V430.729C257.206 430.956 257.396 431.139 257.63 431.139Z" fill="#3F3D56"/>
<path d="M248.954 431.139H252.445C252.678 431.139 252.868 430.956 252.868 430.729V429.03C252.868 428.803 252.678 428.62 252.445 428.62H248.954C248.72 428.62 248.53 428.803 248.53 429.03V430.729C248.53 430.956 248.72 431.139 248.954 431.139Z" fill="#3F3D56"/>
<path d="M240.278 431.139H243.769C244.002 431.139 244.192 430.956 244.192 430.729V429.03C244.192 428.803 244.002 428.62 243.769 428.62H240.278C240.044 428.62 239.854 428.803 239.854 429.03V430.729C239.854 430.956 240.044 431.139 240.278 431.139Z" fill="#3F3D56"/>
<path d="M231.602 431.139H235.093C235.326 431.139 235.516 430.956 235.516 430.729V429.03C235.516 428.803 235.326 428.62 235.093 428.62H231.602C231.368 428.62 231.178 428.803 231.178 429.03V430.729C231.178 430.956 231.368 431.139 231.602 431.139Z" fill="#3F3D56"/>
<path d="M222.926 431.139H226.417C226.65 431.139 226.84 430.956 226.84 430.729V429.03C226.84 428.803 226.65 428.62 226.417 428.62H222.926C222.692 428.62 222.502 428.803 222.502 429.03V430.729C222.502 430.956 222.692 431.139 222.926 431.139Z" fill="#3F3D56"/>
<path d="M214.25 431.139H217.741C217.974 431.139 218.164 430.956 218.164 430.729V429.03C218.164 428.803 217.974 428.62 217.741 428.62H214.25C214.016 428.62 213.826 428.803 213.826 429.03V430.729C213.826 430.956 214.016 431.139 214.25 431.139Z" fill="#3F3D56"/>
<path d="M205.574 431.139H209.065C209.298 431.139 209.488 430.956 209.488 430.729V429.03C209.488 428.803 209.298 428.62 209.065 428.62H205.574C205.34 428.62 205.15 428.803 205.15 429.03V430.729C205.15 430.956 205.34 431.139 205.574 431.139Z" fill="#3F3D56"/>
<path d="M196.898 431.139H200.389C200.622 431.139 200.812 430.956 200.812 430.729V429.03C200.812 428.803 200.622 428.62 200.389 428.62H196.898C196.664 428.62 196.474 428.803 196.474 429.03V430.729C196.474 430.956 196.664 431.139 196.898 431.139Z" fill="#3F3D56"/>
<path d="M188.222 431.139H191.713C191.946 431.139 192.136 430.956 192.136 430.729V429.03C192.136 428.803 191.946 428.62 191.713 428.62H188.222C187.988 428.62 187.798 428.803 187.798 429.03V430.729C187.798 430.956 187.988 431.139 188.222 431.139Z" fill="#3F3D56"/>
<path d="M246.351 436.178H280.208C280.442 436.178 280.631 435.995 280.631 435.768V434.069C280.631 433.842 280.442 433.659 280.208 433.659H246.351C246.117 433.659 245.927 433.842 245.927 434.069V435.768C245.927 435.995 246.117 436.178 246.351 436.178Z" fill="#3F3D56"/>
<path d="M150.298 230.727H371.816C372.046 230.722 372.265 230.63 372.427 230.471C372.588 230.311 372.678 230.097 372.678 229.874C372.678 229.651 372.588 229.437 372.427 229.278C372.265 229.118 372.046 229.026 371.816 229.021H150.298C150.067 229.026 149.848 229.118 149.687 229.278C149.526 229.437 149.436 229.651 149.436 229.874C149.436 230.097 149.526 230.311 149.687 230.471C149.848 230.63 150.067 230.722 150.298 230.727Z" fill="#3F3D56"/>
<path d="M356.737 224.667C359.588 224.667 361.9 222.38 361.9 219.558C361.9 216.736 359.588 214.449 356.737 214.449C353.886 214.449 351.574 216.736 351.574 219.558C351.574 222.38 353.886 224.667 356.737 224.667Z" fill="#3F3D56"/>
<path d="M338.903 224.667C341.754 224.667 344.065 222.38 344.065 219.558C344.065 216.736 341.754 214.449 338.903 214.449C336.051 214.449 333.74 216.736 333.74 219.558C333.74 222.38 336.051 224.667 338.903 224.667Z" fill="#3F3D56"/>
<path d="M321.068 224.667C323.919 224.667 326.231 222.38 326.231 219.558C326.231 216.736 323.919 214.449 321.068 214.449C318.217 214.449 315.906 216.736 315.906 219.558C315.906 222.38 318.217 224.667 321.068 224.667Z" fill="#3F3D56"/>
<path d="M160.091 216.645C160.091 216.766 160.115 216.885 160.162 216.997C160.209 217.109 160.278 217.211 160.366 217.296C160.454 217.382 160.559 217.45 160.674 217.497C160.789 217.544 160.912 217.568 161.037 217.569H173.704C173.954 217.563 174.192 217.463 174.367 217.289C174.542 217.116 174.64 216.883 174.64 216.641C174.64 216.398 174.542 216.165 174.367 215.992C174.192 215.818 173.954 215.718 173.704 215.712H161.037C160.784 215.715 160.543 215.815 160.365 215.99C160.188 216.164 160.09 216.4 160.091 216.645Z" fill="#3F3D56"/>
<path d="M160.091 220.13C160.091 220.251 160.115 220.371 160.162 220.483C160.209 220.594 160.278 220.696 160.366 220.782C160.454 220.868 160.559 220.936 160.674 220.983C160.789 221.029 160.912 221.054 161.037 221.054H173.704C173.954 221.049 174.193 220.949 174.368 220.775C174.543 220.602 174.642 220.369 174.642 220.126C174.642 219.883 174.543 219.65 174.368 219.477C174.193 219.304 173.954 219.203 173.704 219.198H161.037C160.784 219.201 160.543 219.301 160.365 219.475C160.188 219.65 160.09 219.885 160.091 220.13Z" fill="#3F3D56"/>
<path d="M160.091 223.607C160.09 223.852 160.188 224.088 160.365 224.262C160.543 224.437 160.784 224.537 161.037 224.54H173.704C173.954 224.534 174.192 224.434 174.367 224.26C174.542 224.087 174.64 223.854 174.64 223.612C174.64 223.369 174.542 223.136 174.367 222.963C174.192 222.789 173.954 222.689 173.704 222.683H161.037C160.912 222.684 160.789 222.708 160.674 222.755C160.559 222.802 160.454 222.87 160.366 222.956C160.278 223.042 160.209 223.143 160.162 223.255C160.115 223.367 160.091 223.487 160.091 223.607Z" fill="#3F3D56"/>
<path d="M164.006 250.545H159.454C158.074 250.545 156.956 251.628 156.956 252.964C156.956 254.3 158.074 255.383 159.454 255.383H164.006C165.386 255.383 166.505 254.3 166.505 252.964C166.505 251.628 165.386 250.545 164.006 250.545Z" fill="#E6E6E6"/>
<path d="M216.062 250.545H211.51C210.13 250.545 209.012 251.628 209.012 252.964C209.012 254.3 210.13 255.383 211.51 255.383H216.062C217.442 255.383 218.561 254.3 218.561 252.964C218.561 251.628 217.442 250.545 216.062 250.545Z" fill="#E6E6E6"/>
<path d="M230.811 250.545H226.259C224.88 250.545 223.761 251.628 223.761 252.964C223.761 254.3 224.88 255.383 226.259 255.383H230.811C232.191 255.383 233.31 254.3 233.31 252.964C233.31 251.628 232.191 250.545 230.811 250.545Z" fill="#E6E6E6"/>
<path d="M201.902 250.142H173.614C172.234 250.142 171.115 251.225 171.115 252.561C171.115 253.897 172.234 254.98 173.614 254.98H201.902C203.282 254.98 204.401 253.897 204.401 252.561C204.401 251.225 203.282 250.142 201.902 250.142Z" fill="#E6E6E6"/>
<path d="M271.31 250.142H243.022C241.642 250.142 240.523 251.225 240.523 252.561C240.523 253.897 241.642 254.98 243.022 254.98H271.31C272.69 254.98 273.809 253.897 273.809 252.561C273.809 251.225 272.69 250.142 271.31 250.142Z" fill="#E6E6E6"/>
<path d="M177.887 261.464H173.336C171.956 261.464 170.837 262.547 170.837 263.883C170.837 265.218 171.956 266.301 173.336 266.301H177.887C179.267 266.301 180.386 265.218 180.386 263.883C180.386 262.547 179.267 261.464 177.887 261.464Z" fill="#E6E6E6"/>
<path d="M229.943 261.464H225.392C224.012 261.464 222.893 262.547 222.893 263.883C222.893 265.218 224.012 266.301 225.392 266.301H229.943C231.323 266.301 232.442 265.218 232.442 263.883C232.442 262.547 231.323 261.464 229.943 261.464Z" fill="#E6E6E6"/>
<path d="M244.693 261.464H240.141C238.761 261.464 237.642 262.547 237.642 263.883C237.642 265.218 238.761 266.301 240.141 266.301H244.693C246.073 266.301 247.191 265.218 247.191 263.883C247.191 262.547 246.073 261.464 244.693 261.464Z" fill="#E6E6E6"/>
<path d="M215.784 261.06H187.495C186.115 261.06 184.997 262.143 184.997 263.479C184.997 264.815 186.115 265.898 187.495 265.898H215.784C217.164 265.898 218.283 264.815 218.283 263.479C218.283 262.143 217.164 261.06 215.784 261.06Z" fill="#E6E6E6"/>
<path d="M285.192 261.06H256.903C255.523 261.06 254.405 262.143 254.405 263.479C254.405 264.815 255.523 265.898 256.903 265.898H285.192C286.572 265.898 287.691 264.815 287.691 263.479C287.691 262.143 286.572 261.06 285.192 261.06Z" fill="#E6E6E6"/>
<path d="M191.769 272.382H187.218C185.838 272.382 184.719 273.465 184.719 274.801C184.719 276.137 185.838 277.22 187.218 277.22H191.769C193.149 277.22 194.268 276.137 194.268 274.801C194.268 273.465 193.149 272.382 191.769 272.382Z" fill="#E6E6E6"/>
<path d="M243.825 272.382H239.273C237.894 272.382 236.775 273.465 236.775 274.801C236.775 276.137 237.894 277.22 239.273 277.22H243.825C245.205 277.22 246.324 276.137 246.324 274.801C246.324 273.465 245.205 272.382 243.825 272.382Z" fill="#E6E6E6"/>
<path d="M258.574 272.382H254.023C252.643 272.382 251.524 273.465 251.524 274.801C251.524 276.137 252.643 277.22 254.023 277.22H258.574C259.954 277.22 261.073 276.137 261.073 274.801C261.073 273.465 259.954 272.382 258.574 272.382Z" fill="#E6E6E6"/>
<path d="M229.666 271.979H201.377C199.997 271.979 198.878 273.062 198.878 274.398C198.878 275.734 199.997 276.817 201.377 276.817H229.666C231.046 276.817 232.164 275.734 232.164 274.398C232.164 273.062 231.046 271.979 229.666 271.979Z" fill="#E6E6E6"/>
<path d="M299.074 271.979H270.785C269.405 271.979 268.286 273.062 268.286 274.398C268.286 275.734 269.405 276.817 270.785 276.817H299.074C300.454 276.817 301.572 275.734 301.572 274.398C301.572 273.062 300.454 271.979 299.074 271.979Z" fill="#E6E6E6"/>
<path d="M205.651 283.301H201.099C199.719 283.301 198.6 284.384 198.6 285.72C198.6 287.055 199.719 288.138 201.099 288.138H205.651C207.031 288.138 208.149 287.055 208.149 285.72C208.149 284.384 207.031 283.301 205.651 283.301Z" fill="#E6E6E6"/>
<path d="M257.707 283.301H253.155C251.775 283.301 250.656 284.384 250.656 285.72C250.656 287.055 251.775 288.138 253.155 288.138H257.707C259.087 288.138 260.205 287.055 260.205 285.72C260.205 284.384 259.087 283.301 257.707 283.301Z" fill="#E6E6E6"/>
<path d="M272.456 283.301H267.904C266.524 283.301 265.406 284.384 265.406 285.72C265.406 287.055 266.524 288.138 267.904 288.138H272.456C273.836 288.138 274.955 287.055 274.955 285.72C274.955 284.384 273.836 283.301 272.456 283.301Z" fill="#E6E6E6"/>
<path d="M243.547 282.897H215.258C213.879 282.897 212.76 283.98 212.76 285.316C212.76 286.652 213.879 287.735 215.258 287.735H243.547C244.927 287.735 246.046 286.652 246.046 285.316C246.046 283.98 244.927 282.897 243.547 282.897Z" fill="#E6E6E6"/>
<path d="M216.062 326.717H211.51C210.13 326.717 209.012 327.8 209.012 329.136C209.012 330.472 210.13 331.555 211.51 331.555H216.062C217.442 331.555 218.561 330.472 218.561 329.136C218.561 327.8 217.442 326.717 216.062 326.717Z" fill="#E6E6E6"/>
<path d="M230.811 326.717H226.259C224.88 326.717 223.761 327.8 223.761 329.136C223.761 330.472 224.88 331.555 226.259 331.555H230.811C232.191 331.555 233.31 330.472 233.31 329.136C233.31 327.8 232.191 326.717 230.811 326.717Z" fill="#E6E6E6"/>
<path d="M271.31 327.121H243.022C241.642 327.121 240.523 328.204 240.523 329.539C240.523 330.875 241.642 331.958 243.022 331.958H271.31C272.69 331.958 273.809 330.875 273.809 329.539C273.809 328.204 272.69 327.121 271.31 327.121Z" fill="#E6E6E6"/>
<path d="M164.006 326.717H159.454C158.074 326.717 156.956 327.8 156.956 329.136C156.956 330.472 158.074 331.555 159.454 331.555H164.006C165.386 331.555 166.505 330.472 166.505 329.136C166.505 327.8 165.386 326.717 164.006 326.717Z" fill="#E6E6E6"/>
<path d="M201.902 327.121H173.614C172.234 327.121 171.115 328.204 171.115 329.539C171.115 330.875 172.234 331.958 173.614 331.958H201.902C203.282 331.958 204.401 330.875 204.401 329.539C204.401 328.204 203.282 327.121 201.902 327.121Z" fill="#E6E6E6"/>
<path d="M177.887 315.799H173.336C171.956 315.799 170.837 316.882 170.837 318.218C170.837 319.553 171.956 320.636 173.336 320.636H177.887C179.267 320.636 180.386 319.553 180.386 318.218C180.386 316.882 179.267 315.799 177.887 315.799Z" fill="#E6E6E6"/>
<path d="M229.943 315.799H225.392C224.012 315.799 222.893 316.882 222.893 318.218C222.893 319.553 224.012 320.636 225.392 320.636H229.943C231.323 320.636 232.442 319.553 232.442 318.218C232.442 316.882 231.323 315.799 229.943 315.799Z" fill="#E6E6E6"/>
<path d="M244.693 315.799H240.141C238.761 315.799 237.642 316.882 237.642 318.218C237.642 319.553 238.761 320.636 240.141 320.636H244.693C246.073 320.636 247.191 319.553 247.191 318.218C247.191 316.882 246.073 315.799 244.693 315.799Z" fill="#E6E6E6"/>
<path d="M215.784 316.202H187.495C186.115 316.202 184.997 317.285 184.997 318.621C184.997 319.957 186.115 321.04 187.495 321.04H215.784C217.164 321.04 218.283 319.957 218.283 318.621C218.283 317.285 217.164 316.202 215.784 316.202Z" fill="#E6E6E6"/>
<path d="M191.769 304.88H187.218C185.838 304.88 184.719 305.963 184.719 307.299C184.719 308.635 185.838 309.718 187.218 309.718H191.769C193.149 309.718 194.268 308.635 194.268 307.299C194.268 305.963 193.149 304.88 191.769 304.88Z" fill="#E6E6E6"/>
<path d="M243.825 304.88H239.273C237.894 304.88 236.775 305.963 236.775 307.299C236.775 308.635 237.894 309.718 239.273 309.718H243.825C245.205 309.718 246.324 308.635 246.324 307.299C246.324 305.963 245.205 304.88 243.825 304.88Z" fill="#E6E6E6"/>
<path d="M258.574 304.88H254.023C252.643 304.88 251.524 305.963 251.524 307.299C251.524 308.635 252.643 309.718 254.023 309.718H258.574C259.954 309.718 261.073 308.635 261.073 307.299C261.073 305.963 259.954 304.88 258.574 304.88Z" fill="#E6E6E6"/>
<path d="M229.666 305.284H201.377C199.997 305.284 198.878 306.367 198.878 307.702C198.878 309.038 199.997 310.121 201.377 310.121H229.666C231.046 310.121 232.164 309.038 232.164 307.702C232.164 306.367 231.046 305.284 229.666 305.284Z" fill="#E6E6E6"/>
<path d="M205.651 293.962H201.099C199.719 293.962 198.6 295.045 198.6 296.381C198.6 297.717 199.719 298.799 201.099 298.799H205.651C207.031 298.799 208.149 297.717 208.149 296.381C208.149 295.045 207.031 293.962 205.651 293.962Z" fill="#E6E6E6"/>
<path d="M257.707 293.962H253.155C251.775 293.962 250.656 295.045 250.656 296.381C250.656 297.717 251.775 298.799 253.155 298.799H257.707C259.087 298.799 260.205 297.717 260.205 296.381C260.205 295.045 259.087 293.962 257.707 293.962Z" fill="#E6E6E6"/>
<path d="M272.456 293.962H267.904C266.524 293.962 265.406 295.045 265.406 296.381C265.406 297.717 266.524 298.799 267.904 298.799H272.456C273.836 298.799 274.955 297.717 274.955 296.381C274.955 295.045 273.836 293.962 272.456 293.962Z" fill="#E6E6E6"/>
<path d="M243.547 294.365H215.258C213.879 294.365 212.76 295.448 212.76 296.784C212.76 298.12 213.879 299.203 215.258 299.203H243.547C244.927 299.203 246.046 298.12 246.046 296.784C246.046 295.448 244.927 294.365 243.547 294.365Z" fill="#E6E6E6"/>
<path d="M147.641 484.45C148.17 484.711 148.708 484.971 149.237 485.223C162.946 491.858 173.912 495.629 188.913 499.761C190.18 486.071 191.403 462.008 192.591 447.092C192.904 443.22 193.216 439.97 193.52 437.677C193.596 436.458 193.854 435.256 194.283 434.108L194.231 437.677L194.101 447.092L193.346 500.937C212.006 505.717 231.174 508.391 250.469 508.908C251.475 508.933 252.465 508.95 253.419 508.966C253.757 508.975 254.087 508.983 254.417 508.983C255.501 508.992 256.577 509 257.661 509C277.994 509.015 298.254 506.637 317.994 501.92C317.569 488.372 317.144 464.578 316.736 447.092C316.65 443.674 316.571 440.491 316.485 437.677C316.32 431.663 316.146 427.33 315.981 425.877C316.128 426.134 316.241 426.408 316.32 426.691C317.123 430.313 317.671 433.983 317.96 437.677C318.263 440.491 318.567 443.674 318.871 447.092C320.484 465.259 322.167 489.96 323.903 500.433C334.231 497.704 344.366 494.329 354.243 490.329C359.448 488.23 364.561 485.965 369.582 483.535C368.627 477.488 367.63 470.71 366.606 463.68C365.808 458.229 364.984 452.627 364.142 447.092C362.841 438.542 343.502 378.793 342.278 376.525C341.229 374.585 340.231 372.754 339.285 371.066C336.995 366.967 335.051 363.7 333.611 361.634C327.59 352.792 318.626 346.21 308.208 342.98L307.948 342.913L307.765 342.989L290.023 337.714L287.429 336.941L285.685 336.421L279.542 331.894L276.202 329.433L273.07 327.123L266.945 322.613L229.022 324.872L221.639 342.081L205.102 347.935L204.816 347.809L204.564 347.709L204.304 347.776C193.887 351.009 184.925 357.59 178.901 366.43C178.085 367.614 177.096 369.176 175.977 371.066C175.023 372.67 173.982 374.501 172.854 376.525C171.249 379.406 169.496 382.656 167.639 386.175C167.232 386.948 166.815 387.738 166.399 388.535C165.627 390.014 164.843 391.523 164.048 393.062C162.2 396.632 160.291 400.361 158.382 404.149C156.725 407.433 155.051 414.185 153.402 422.777C152.04 429.916 150.686 438.332 149.376 447.092C147.659 458.447 149.489 472.045 147.936 482.493C147.841 483.157 147.737 483.804 147.641 484.45Z" fill="#3F3D56"/>
<path opacity="0.2" d="M329.395 422.741L322.023 395.199L315.513 418.964L329.395 422.741Z" fill="black"/>
<path d="M133.222 404.796C135.859 439.97 133.126 455.457 147.684 484.459C160.93 490.735 174.728 495.856 188.913 499.761C190.388 500.164 191.866 500.556 193.346 500.937C212.006 505.716 231.174 508.391 250.469 508.908C251.475 508.933 252.465 508.95 253.419 508.966C253.757 508.975 254.087 508.983 254.417 508.983C255.501 508.991 256.577 509 257.661 509C277.994 509.014 298.254 506.637 317.994 501.92C319.972 501.449 321.942 500.954 323.903 500.433C334.231 497.703 344.366 494.328 354.243 490.329C359.448 488.23 364.561 485.965 369.582 483.535C370.718 482.98 371.855 482.426 372.974 481.855C378.726 472.062 381.997 460.152 382.067 445.841C378.084 421.182 142.019 383.53 133.222 404.796Z" fill="#2F2E41"/>
<path opacity="0.2" d="M133.228 410.819C133.094 408.642 132.943 406.392 132.767 404.05C141.565 382.784 377.63 420.436 381.612 445.095C381.601 447.356 381.502 449.55 381.334 451.692C371.69 427.354 147.425 391.568 133.228 410.819Z" fill="black"/>
<path d="M79.7335 422.421C80.1157 423.499 80.8408 424.431 81.8046 425.084C82.7684 425.738 83.9214 426.079 85.098 426.059L108.082 425.486C109.267 425.464 110.413 425.071 111.349 424.366C112.284 423.661 112.958 422.682 113.271 421.575L116.524 387.906C117.678 388.412 118.934 388.662 120.201 388.638C122.422 388.582 124.53 387.675 126.061 386.116C127.591 384.557 128.42 382.473 128.364 380.322C128.308 378.172 127.373 376.131 125.763 374.648C124.153 373.165 122.001 372.361 119.78 372.414C119.274 372.412 118.769 372.463 118.274 372.565C117.735 372.002 117.081 371.553 116.352 371.249C115.624 370.945 114.838 370.792 114.045 370.799L78.6897 371.683C78.3964 371.693 78.1046 371.729 77.8176 371.788C77.0423 371.928 76.3069 372.227 75.661 372.665C75.015 373.103 74.4735 373.67 74.073 374.328C73.6724 374.985 73.422 375.719 73.3386 376.478C73.2552 377.237 73.3408 378.005 73.5896 378.729L79.7335 422.421ZM117.191 385.62L119.505 377.597C119.768 376.67 119.775 375.692 119.523 374.763C119.635 374.762 119.734 374.711 119.847 374.711C121.433 374.679 122.969 375.258 124.116 376.32C125.262 377.382 125.927 378.841 125.964 380.377C126.002 381.914 125.408 383.401 124.314 384.514C123.22 385.628 121.714 386.275 120.127 386.315C119.101 386.346 118.086 386.106 117.191 385.62Z" fill="#2F2E41"/>
<path d="M77.8176 371.788C78.5709 375.957 87.0394 378.888 97.2222 378.379C106.586 377.961 114.242 374.778 115.645 371.006C115.126 370.857 114.586 370.787 114.045 370.799L78.6897 371.683C78.3964 371.693 78.1047 371.729 77.8176 371.788Z" fill="#3F3D56"/>
<path d="M99.0885 403.92C99.135 403.909 99.1793 403.89 99.2194 403.864L104.211 400.701C104.271 400.663 104.321 400.611 104.355 400.55C104.389 400.489 104.407 400.42 104.407 400.35C104.407 400.281 104.39 400.212 104.355 400.151C104.321 400.089 104.271 400.037 104.211 399.999L99.0231 396.71C98.9754 396.679 98.9221 396.658 98.866 396.648C98.81 396.637 98.7523 396.637 98.6964 396.648C98.6405 396.66 98.5874 396.681 98.5402 396.712C98.4929 396.743 98.4525 396.783 98.4212 396.83C98.3899 396.876 98.3684 396.927 98.3578 396.982C98.3472 397.036 98.3478 397.092 98.3595 397.146C98.3713 397.2 98.394 397.251 98.4262 397.297C98.4585 397.343 98.4998 397.381 98.5477 397.412L103.181 400.35L98.7446 403.162C98.6587 403.216 98.5955 403.298 98.5662 403.393C98.5369 403.489 98.5435 403.591 98.5848 403.682C98.626 403.773 98.6993 403.847 98.7915 403.89C98.8837 403.934 98.989 403.944 99.0885 403.92Z" fill="#9747FF"/>
<path d="M91.2048 404.272C91.2886 404.251 91.3641 404.207 91.4217 404.145C91.4793 404.082 91.5163 404.005 91.5281 403.922C91.5399 403.839 91.5258 403.755 91.4876 403.68C91.4495 403.605 91.3891 403.542 91.3142 403.501L86.7132 400.947L91.1602 397.749C91.2059 397.717 91.2445 397.675 91.2737 397.628C91.3029 397.581 91.3222 397.528 91.3305 397.474C91.3388 397.419 91.336 397.364 91.3221 397.31C91.3082 397.257 91.2836 397.207 91.2496 397.162C91.2157 397.118 91.173 397.081 91.1242 397.052C91.0753 397.024 91.0212 397.005 90.9649 396.997C90.9086 396.989 90.8512 396.992 90.796 397.006C90.7407 397.019 90.6888 397.043 90.6431 397.076L85.6643 400.656C85.6064 400.697 85.5602 400.752 85.5297 400.815C85.4992 400.879 85.4855 400.948 85.4897 401.018C85.494 401.087 85.516 401.155 85.554 401.214C85.5919 401.273 85.6445 401.322 85.707 401.357L90.8824 404.229C90.9801 404.283 91.0957 404.299 91.2048 404.272Z" fill="#9747FF"/>
<path d="M98.592 406.692C98.634 406.681 98.674 406.665 98.7108 406.643C98.7596 406.614 98.802 406.577 98.8356 406.532C98.8693 406.488 98.8936 406.437 98.9071 406.384C98.9206 406.33 98.923 406.274 98.9143 406.22C98.9056 406.165 98.8858 406.113 98.8562 406.066L91.7805 394.804C91.7203 394.71 91.6239 394.642 91.5123 394.616C91.4007 394.59 91.283 394.608 91.185 394.666C91.087 394.724 91.0166 394.817 90.9893 394.925C90.962 395.033 90.9799 395.147 91.0392 395.242L98.1149 406.503C98.1632 406.58 98.2356 406.639 98.3214 406.673C98.4073 406.707 98.5021 406.714 98.592 406.692Z" fill="#9747FF"/>
<path d="M648.167 359.43H570.95V424.941H648.167V359.43Z" fill="#3F3D56"/>
<path d="M659.612 267.924C658.18 276.137 659.438 284.578 663.208 292.065C664.603 294.819 666.331 298.136 664.632 300.725C664.155 301.372 663.535 301.907 662.817 302.293C662.099 302.678 661.301 302.903 660.481 302.951C658.842 303.035 657.2 302.83 655.637 302.344" fill="#CCCCCC"/>
<path d="M591.773 242.686C593.21 242.686 594.376 241.746 594.376 240.586C594.376 239.426 593.21 238.486 591.773 238.486C590.335 238.486 589.17 239.426 589.17 240.586C589.17 241.746 590.335 242.686 591.773 242.686Z" fill="#3F3D56"/>
<path d="M601.316 243.526C602.754 243.526 603.919 242.586 603.919 241.426C603.919 240.266 602.754 239.326 601.316 239.326C599.879 239.326 598.714 240.266 598.714 241.426C598.714 242.586 599.879 243.526 601.316 243.526Z" fill="#3F3D56"/>
<path d="M610.86 247.725C612.298 247.725 613.463 246.785 613.463 245.625C613.463 244.466 612.298 243.526 610.86 243.526C609.423 243.526 608.257 244.466 608.257 245.625C608.257 246.785 609.423 247.725 610.86 247.725Z" fill="#3F3D56"/>
<path d="M622.139 245.205C623.576 245.205 624.742 244.265 624.742 243.106C624.742 241.946 623.576 241.006 622.139 241.006C620.701 241.006 619.536 241.946 619.536 243.106C619.536 244.265 620.701 245.205 622.139 245.205Z" fill="#3F3D56"/>
<path d="M385.219 285.002C397.861 281.605 411.941 285.246 421.709 293.585C426.98 298.116 430.848 303.974 432.883 310.507C435.377 318.284 435.789 326.487 436.051 334.57C436.339 343.508 436.59 352.447 436.859 361.385C437.116 369.907 437.146 378.47 437.733 386.978C438.226 394.117 439.407 401.529 443.354 407.721C447.013 413.462 452.794 417.339 459.328 419.475C465.95 421.641 473.088 422.145 480.035 422.101C488.12 422.076 496.19 421.457 504.178 420.25C519.35 417.897 534.336 411.896 543.602 399.515C547.868 393.893 550.266 387.147 550.476 380.174C550.671 372.048 547.989 364.178 545.052 356.672C542.194 349.369 539.101 342.173 537.292 334.536C535.611 327.39 534.811 320.076 534.906 312.748C535.061 298.086 538.691 283.654 545.517 270.565C548.971 263.842 553.353 257.605 558.543 252.024C563.894 246.387 570.521 241.733 578.402 240.208C582.247 239.436 586.23 239.591 589.999 240.659C591.608 241.125 592.295 238.694 590.691 238.229C582.885 235.967 574.404 237.687 567.482 241.615C560.676 245.476 555.298 251.27 550.734 257.412C541.964 269.456 536.125 283.265 533.657 297.805C531.188 312.344 532.153 327.236 536.48 341.363C541.112 356.052 551.186 371.342 546.858 387.239C543.07 401.153 529.947 410.608 516.391 414.88C508.167 417.471 499.544 418.568 490.943 419.135C483.675 419.614 476.307 419.919 469.06 419.015C462.403 418.184 455.556 416.214 450.395 411.888C444.738 407.147 442.152 400.334 441.026 393.341C439.753 385.43 439.94 377.272 439.7 369.289L438.88 342.041C438.417 326.651 438.816 309.595 428.473 296.843C424.338 291.874 419.086 287.884 413.118 285.175C407.15 282.467 400.623 281.112 394.032 281.213C390.818 281.285 387.626 281.741 384.527 282.572C384.205 282.67 383.935 282.885 383.773 283.172C383.612 283.459 383.572 283.795 383.661 284.11C383.751 284.426 383.964 284.695 384.254 284.861C384.545 285.027 384.891 285.078 385.219 285.002Z" fill="#3F3D56"/>
<path d="M200.449 269.062C202.291 281.753 209.263 293.216 219.831 300.934C230.4 308.652 243.701 311.992 256.813 310.221C269.924 308.451 281.773 301.713 289.756 291.49C297.739 281.267 301.203 268.394 299.387 255.7L299.288 255.014C297.176 242.49 290.062 231.273 279.483 223.781C268.904 216.29 255.706 213.124 242.737 214.967C229.769 216.811 218.068 223.515 210.16 233.635C202.251 243.754 198.769 256.477 200.464 269.06L200.449 269.062Z" fill="#FFB6B6"/>
<path d="M244.481 309.044C241.899 304.008 239.245 298.601 239.946 293.02C240.648 287.439 246.281 282.089 251.836 283.729C255.158 284.71 257.677 287.874 261.146 288.025C265.92 288.232 268.638 282.936 270.108 278.535L276.096 260.609C287.647 269.394 273.019 260.184 287.327 256.969C292.94 255.707 298.607 253.265 301.886 248.678C305.166 244.091 305.121 236.992 300.59 233.546C298.368 231.856 295.416 231.221 293.292 229.418C291.974 228.299 291.063 226.799 290.695 225.14C290.326 223.481 290.519 221.751 291.244 220.207C291.97 218.662 293.19 217.385 294.724 216.564C296.258 215.743 298.024 215.421 299.761 215.647L284.521 213.854L289.032 205.892C285.77 208.398 281.22 208.749 277.119 208.048C273.017 207.346 269.152 205.725 265.138 204.649C245.871 199.481 223.532 208.647 213.969 225.644C210.216 224.445 206.175 224.377 202.382 225.451C198.588 226.525 195.221 228.689 192.727 231.657C188.666 236.681 187.58 243.371 187.444 249.749C187.191 262.324 190.067 274.774 195.828 286.047C197.623 289.551 199.745 292.988 202.797 295.551C205.849 298.113 240.34 312.31 244.32 311.641" fill="#2F2E41"/>
<path d="M604.787 275.861C604.794 278.041 604.505 280.213 603.928 282.32V282.328C603.919 282.37 603.902 282.412 603.893 282.454C602.141 288.695 597.959 293.079 593.074 293.079C588.216 293.079 584.051 288.728 582.273 282.538C582.151 282.11 582.047 281.682 581.952 281.236C581.83 280.741 581.735 280.229 581.657 279.699C581.587 279.28 581.535 278.851 581.492 278.414C581.431 277.81 581.388 277.205 581.379 276.575V276.567C581.362 276.332 581.362 276.096 581.362 275.861V275.651L581.37 275.643C581.371 274.578 581.444 273.515 581.587 272.46C581.648 272.014 581.717 271.586 581.804 271.158C581.908 270.637 582.021 270.125 582.16 269.621C582.273 269.176 582.403 268.747 582.542 268.319C582.733 267.748 582.941 267.194 583.175 266.664C583.322 266.32 583.479 265.984 583.635 265.657C585.769 261.407 589.205 258.644 593.074 258.644C598.427 258.644 602.939 263.926 604.336 271.133C604.353 271.242 604.379 271.351 604.388 271.46V271.469C604.655 272.918 604.789 274.388 604.787 275.861Z" fill="#E6E6E6"/>
<path d="M583.748 266.026C583.743 266.18 583.683 266.328 583.579 266.444C583.474 266.56 583.332 266.638 583.175 266.664C583.322 266.32 583.479 265.984 583.635 265.657C583.707 265.767 583.746 265.895 583.748 266.026Z" fill="#9747FF"/>
<path d="M594.005 265.261H586.37C585.998 265.261 585.696 265.553 585.696 265.914C585.696 266.275 585.998 266.567 586.37 266.567H594.005C594.378 266.567 594.68 266.275 594.68 265.914C594.68 265.553 594.378 265.261 594.005 265.261Z" fill="#9747FF"/>
<path d="M583.513 268.966C583.513 269.139 583.442 269.306 583.315 269.429C583.188 269.552 583.016 269.621 582.837 269.621H582.16C582.273 269.176 582.403 268.747 582.542 268.319H582.837C583.015 268.319 583.186 268.387 583.312 268.508C583.439 268.629 583.511 268.793 583.513 268.966Z" fill="#9747FF"/>
<path d="M586.821 268.317H585.593C585.22 268.317 584.919 268.609 584.919 268.97C584.919 269.33 585.22 269.622 585.593 269.622H586.821C587.194 269.622 587.496 269.33 587.496 268.97C587.496 268.609 587.194 268.317 586.821 268.317Z" fill="#9747FF"/>
<path d="M597.752 268.208H590.117C589.744 268.208 589.442 268.5 589.442 268.861C589.442 269.221 589.744 269.514 590.117 269.514H597.752C598.124 269.514 598.426 269.221 598.426 268.861C598.426 268.5 598.124 268.208 597.752 268.208Z" fill="#9747FF"/>
<path d="M586.587 271.264H585.359C584.986 271.264 584.684 271.556 584.684 271.916C584.684 272.277 584.986 272.569 585.359 272.569H586.587C586.96 272.569 587.262 272.277 587.262 271.916C587.262 271.556 586.96 271.264 586.587 271.264Z" fill="#9747FF"/>
<path d="M590.568 271.264H589.339C588.967 271.264 588.665 271.556 588.665 271.916C588.665 272.277 588.967 272.569 589.339 272.569H590.568C590.94 272.569 591.242 272.277 591.242 271.916C591.242 271.556 590.94 271.264 590.568 271.264Z" fill="#9747FF"/>
<path d="M583.444 271.805C583.444 271.978 583.372 272.145 583.245 272.268C583.119 272.39 582.947 272.459 582.767 272.46H581.587C581.648 272.015 581.717 271.586 581.804 271.158H582.767C582.856 271.157 582.943 271.173 583.025 271.205C583.107 271.237 583.182 271.285 583.245 271.345C583.307 271.405 583.357 271.477 583.392 271.555C583.426 271.634 583.444 271.719 583.444 271.805Z" fill="#9747FF"/>
<path d="M601.498 271.155H593.863C593.491 271.155 593.189 271.447 593.189 271.808C593.189 272.168 593.491 272.46 593.863 272.46H601.498C601.871 272.46 602.173 272.168 602.173 271.808C602.173 271.447 601.871 271.155 601.498 271.155Z" fill="#9747FF"/>
<path d="M583.748 276.105C583.747 276.19 583.73 276.275 583.695 276.354C583.661 276.433 583.611 276.504 583.548 276.564C583.485 276.625 583.411 276.672 583.329 276.704C583.247 276.736 583.159 276.752 583.071 276.751H581.848C581.674 276.752 581.507 276.689 581.379 276.575V276.567C581.362 276.332 581.362 276.096 581.362 275.861V275.651L581.37 275.643C581.433 275.582 581.507 275.533 581.589 275.5C581.671 275.467 581.759 275.45 581.848 275.45H583.071C583.25 275.45 583.422 275.519 583.549 275.642C583.676 275.765 583.747 275.931 583.748 276.105Z" fill="#CCCCCC"/>
<path d="M594.005 275.34H586.37C585.998 275.34 585.696 275.632 585.696 275.993C585.696 276.353 585.998 276.645 586.37 276.645H594.005C594.378 276.645 594.68 276.353 594.68 275.993C594.68 275.632 594.378 275.34 594.005 275.34Z" fill="#CCCCCC"/>
<path d="M583.513 279.044C583.513 279.218 583.442 279.385 583.315 279.507C583.188 279.63 583.016 279.699 582.837 279.699H581.657C581.587 279.28 581.535 278.851 581.492 278.414C581.531 278.401 581.572 278.395 581.613 278.398H582.837C583.015 278.397 583.186 278.465 583.312 278.586C583.439 278.707 583.511 278.872 583.513 279.044Z" fill="#CCCCCC"/>
<path d="M586.821 278.395H585.593C585.22 278.395 584.919 278.688 584.919 279.048C584.919 279.409 585.22 279.701 585.593 279.701H586.821C587.194 279.701 587.496 279.409 587.496 279.048C587.496 278.688 587.194 278.395 586.821 278.395Z" fill="#CCCCCC"/>
<path d="M597.752 278.287H590.117C589.744 278.287 589.442 278.579 589.442 278.939C589.442 279.3 589.744 279.592 590.117 279.592H597.752C598.124 279.592 598.426 279.3 598.426 278.939C598.426 278.579 598.124 278.287 597.752 278.287Z" fill="#CCCCCC"/>
<path d="M586.587 281.342H585.359C584.986 281.342 584.684 281.634 584.684 281.995C584.684 282.356 584.986 282.648 585.359 282.648H586.587C586.96 282.648 587.262 282.356 587.262 281.995C587.262 281.634 586.96 281.342 586.587 281.342Z" fill="#CCCCCC"/>
<path d="M590.568 281.342H589.339C588.967 281.342 588.665 281.634 588.665 281.995C588.665 282.356 588.967 282.648 589.339 282.648H590.568C590.94 282.648 591.242 282.356 591.242 281.995C591.242 281.634 590.94 281.342 590.568 281.342Z" fill="#CCCCCC"/>
<path d="M583.444 281.883C583.444 282.057 583.372 282.223 583.245 282.346C583.119 282.469 582.947 282.538 582.767 282.538H582.273C582.151 282.11 582.047 281.682 581.952 281.236H582.767C582.856 281.236 582.943 281.252 583.025 281.284C583.107 281.316 583.182 281.363 583.245 281.424C583.307 281.484 583.357 281.555 583.392 281.634C583.426 281.713 583.444 281.798 583.444 281.883Z" fill="#CCCCCC"/>
<path d="M601.498 281.233H593.863C593.491 281.233 593.189 281.526 593.189 281.886C593.189 282.247 593.491 282.539 593.863 282.539H601.498C601.871 282.539 602.173 282.247 602.173 281.886C602.173 281.526 601.871 281.233 601.498 281.233Z" fill="#CCCCCC"/>
</g>
<defs>
<linearGradient id="paint0_linear_45_1790" x1="54.996" y1="131.134" x2="-16.4057" y2="-50.67" gradientUnits="userSpaceOnUse">
<stop/>
<stop offset="1" stop-color="white"/>
</linearGradient>
<linearGradient id="paint1_linear_45_1790" x1="54.996" y1="131.134" x2="-16.4057" y2="-50.67" gradientUnits="userSpaceOnUse">
<stop stop-color="#97C3F9"/>
<stop offset="1" stop-color="#93C1F9"/>
</linearGradient>
<linearGradient id="paint2_linear_45_1790" x1="81.2005" y1="120.843" x2="9.79888" y2="-60.9613" gradientUnits="userSpaceOnUse">
<stop/>
<stop offset="1" stop-color="white"/>
</linearGradient>
<linearGradient id="paint3_linear_45_1790" x1="81.2005" y1="120.843" x2="9.79888" y2="-60.9613" gradientUnits="userSpaceOnUse">
<stop stop-color="#97C3F9"/>
<stop offset="1" stop-color="#93C1F9"/>
</linearGradient>
<linearGradient id="paint4_linear_45_1790" x1="107.405" y1="110.551" x2="36.0033" y2="-71.2526" gradientUnits="userSpaceOnUse">
<stop/>
<stop offset="1" stop-color="white"/>
</linearGradient>
<linearGradient id="paint5_linear_45_1790" x1="107.405" y1="110.551" x2="36.0033" y2="-71.2526" gradientUnits="userSpaceOnUse">
<stop stop-color="#97C3F9"/>
<stop offset="1" stop-color="#93C1F9"/>
</linearGradient>
<linearGradient id="paint6_linear_45_1790" x1="133.609" y1="100.259" x2="62.2075" y2="-81.5444" gradientUnits="userSpaceOnUse">
<stop/>
<stop offset="1" stop-color="white"/>
</linearGradient>
<linearGradient id="paint7_linear_45_1790" x1="133.609" y1="100.259" x2="62.2075" y2="-81.5444" gradientUnits="userSpaceOnUse">
<stop stop-color="#97C3F9"/>
<stop offset="1" stop-color="#93C1F9"/>
</linearGradient>
<linearGradient id="paint8_linear_45_1790" x1="159.813" y1="89.9679" x2="88.4118" y2="-91.8359" gradientUnits="userSpaceOnUse">
<stop/>
<stop offset="1" stop-color="white"/>
</linearGradient>
<linearGradient id="paint9_linear_45_1790" x1="159.813" y1="89.9679" x2="88.4118" y2="-91.8359" gradientUnits="userSpaceOnUse">
<stop stop-color="#97C3F9"/>
<stop offset="1" stop-color="#93C1F9"/>
</linearGradient>
<linearGradient id="paint10_linear_45_1790" x1="46.0538" y1="134.645" x2="-25.3466" y2="-47.1571" gradientUnits="userSpaceOnUse">
<stop/>
<stop offset="1" stop-color="white"/>
</linearGradient>
<linearGradient id="paint11_linear_45_1790" x1="46.0538" y1="134.645" x2="-25.3466" y2="-47.1571" gradientUnits="userSpaceOnUse">
<stop stop-color="#97C3F9"/>
<stop offset="1" stop-color="#93C1F9"/>
</linearGradient>
<linearGradient id="paint12_linear_45_1790" x1="72.2581" y1="124.354" x2="0.857706" y2="-57.449" gradientUnits="userSpaceOnUse">
<stop/>
<stop offset="1" stop-color="white"/>
</linearGradient>
<linearGradient id="paint13_linear_45_1790" x1="72.2581" y1="124.354" x2="0.857706" y2="-57.449" gradientUnits="userSpaceOnUse">
<stop stop-color="#97C3F9"/>
<stop offset="1" stop-color="#93C1F9"/>
</linearGradient>
<linearGradient id="paint14_linear_45_1790" x1="98.4624" y1="114.062" x2="27.062" y2="-67.7403" gradientUnits="userSpaceOnUse">
<stop/>
<stop offset="1" stop-color="white"/>
</linearGradient>
<linearGradient id="paint15_linear_45_1790" x1="98.4624" y1="114.062" x2="27.062" y2="-67.7403" gradientUnits="userSpaceOnUse">
<stop stop-color="#97C3F9"/>
<stop offset="1" stop-color="#93C1F9"/>
</linearGradient>
<linearGradient id="paint16_linear_45_1790" x1="124.667" y1="103.771" x2="53.2663" y2="-78.0318" gradientUnits="userSpaceOnUse">
<stop/>
<stop offset="1" stop-color="white"/>
</linearGradient>
<linearGradient id="paint17_linear_45_1790" x1="124.667" y1="103.771" x2="53.2663" y2="-78.0318" gradientUnits="userSpaceOnUse">
<stop stop-color="#97C3F9"/>
<stop offset="1" stop-color="#93C1F9"/>
</linearGradient>
<linearGradient id="paint18_linear_45_1790" x1="150.871" y1="93.4794" x2="79.4707" y2="-88.3231" gradientUnits="userSpaceOnUse">
<stop/>
<stop offset="1" stop-color="white"/>
</linearGradient>
<linearGradient id="paint19_linear_45_1790" x1="150.871" y1="93.4794" x2="79.4707" y2="-88.3231" gradientUnits="userSpaceOnUse">
<stop stop-color="#97C3F9"/>
<stop offset="1" stop-color="#93C1F9"/>
</linearGradient>
<linearGradient id="paint20_linear_45_1790" x1="37.1113" y1="138.158" x2="-34.2903" y2="-43.6458" gradientUnits="userSpaceOnUse">
<stop/>
<stop offset="1" stop-color="white"/>
</linearGradient>
<linearGradient id="paint21_linear_45_1790" x1="37.1113" y1="138.158" x2="-34.2903" y2="-43.6458" gradientUnits="userSpaceOnUse">
<stop stop-color="#97C3F9"/>
<stop offset="1" stop-color="#93C1F9"/>
</linearGradient>
<linearGradient id="paint22_linear_45_1790" x1="63.3157" y1="127.866" x2="-8.08591" y2="-53.9374" gradientUnits="userSpaceOnUse">
<stop/>
<stop offset="1" stop-color="white"/>
</linearGradient>
<linearGradient id="paint23_linear_45_1790" x1="63.3157" y1="127.866" x2="-8.08591" y2="-53.9374" gradientUnits="userSpaceOnUse">
<stop stop-color="#97C3F9"/>
<stop offset="1" stop-color="#93C1F9"/>
</linearGradient>
<linearGradient id="paint24_linear_45_1790" x1="89.52" y1="117.575" x2="18.1185" y2="-64.2288" gradientUnits="userSpaceOnUse">
<stop/>
<stop offset="1" stop-color="white"/>
</linearGradient>
<linearGradient id="paint25_linear_45_1790" x1="89.52" y1="117.575" x2="18.1185" y2="-64.2288" gradientUnits="userSpaceOnUse">
<stop stop-color="#97C3F9"/>
<stop offset="1" stop-color="#93C1F9"/>
</linearGradient>
<linearGradient id="paint26_linear_45_1790" x1="115.724" y1="107.283" x2="44.3227" y2="-74.5204" gradientUnits="userSpaceOnUse">
<stop/>
<stop offset="1" stop-color="white"/>
</linearGradient>
<linearGradient id="paint27_linear_45_1790" x1="115.724" y1="107.283" x2="44.3227" y2="-74.5204" gradientUnits="userSpaceOnUse">
<stop stop-color="#97C3F9"/>
<stop offset="1" stop-color="#93C1F9"/>
</linearGradient>
<linearGradient id="paint28_linear_45_1790" x1="141.929" y1="96.9919" x2="70.5271" y2="-84.8119" gradientUnits="userSpaceOnUse">
<stop/>
<stop offset="1" stop-color="white"/>
</linearGradient>
<linearGradient id="paint29_linear_45_1790" x1="141.929" y1="96.9919" x2="70.5271" y2="-84.8119" gradientUnits="userSpaceOnUse">
<stop stop-color="#97C3F9"/>
<stop offset="1" stop-color="#93C1F9"/>
</linearGradient>
<linearGradient id="paint30_linear_45_1790" x1="28.169" y1="141.67" x2="-43.2327" y2="-40.1338" gradientUnits="userSpaceOnUse">
<stop/>
<stop offset="1" stop-color="white"/>
</linearGradient>
<linearGradient id="paint31_linear_45_1790" x1="28.169" y1="141.67" x2="-43.2327" y2="-40.1338" gradientUnits="userSpaceOnUse">
<stop stop-color="#97C3F9"/>
<stop offset="1" stop-color="#93C1F9"/>
</linearGradient>
<linearGradient id="paint32_linear_45_1790" x1="54.3734" y1="131.379" x2="-17.0283" y2="-50.4253" gradientUnits="userSpaceOnUse">
<stop/>
<stop offset="1" stop-color="white"/>
</linearGradient>
<linearGradient id="paint33_linear_45_1790" x1="54.3734" y1="131.379" x2="-17.0283" y2="-50.4253" gradientUnits="userSpaceOnUse">
<stop stop-color="#97C3F9"/>
<stop offset="1" stop-color="#93C1F9"/>
</linearGradient>
<linearGradient id="paint34_linear_45_1790" x1="80.5776" y1="121.087" x2="9.17607" y2="-60.7168" gradientUnits="userSpaceOnUse">
<stop/>
<stop offset="1" stop-color="white"/>
</linearGradient>
<linearGradient id="paint35_linear_45_1790" x1="80.5776" y1="121.087" x2="9.17607" y2="-60.7168" gradientUnits="userSpaceOnUse">
<stop stop-color="#97C3F9"/>
<stop offset="1" stop-color="#93C1F9"/>
</linearGradient>
<linearGradient id="paint36_linear_45_1790" x1="106.782" y1="110.795" x2="35.3804" y2="-71.0084" gradientUnits="userSpaceOnUse">
<stop/>
<stop offset="1" stop-color="white"/>
</linearGradient>
<linearGradient id="paint37_linear_45_1790" x1="106.782" y1="110.795" x2="35.3804" y2="-71.0084" gradientUnits="userSpaceOnUse">
<stop stop-color="#97C3F9"/>
<stop offset="1" stop-color="#93C1F9"/>
</linearGradient>
<linearGradient id="paint38_linear_45_1790" x1="132.986" y1="100.504" x2="61.5847" y2="-81.3" gradientUnits="userSpaceOnUse">
<stop/>
<stop offset="1" stop-color="white"/>
</linearGradient>
<linearGradient id="paint39_linear_45_1790" x1="132.986" y1="100.504" x2="61.5847" y2="-81.3" gradientUnits="userSpaceOnUse">
<stop stop-color="#97C3F9"/>
<stop offset="1" stop-color="#93C1F9"/>
</linearGradient>
<linearGradient id="paint40_linear_45_1790" x1="19.2266" y1="145.182" x2="-52.1751" y2="-36.6219" gradientUnits="userSpaceOnUse">
<stop/>
<stop offset="1" stop-color="white"/>
</linearGradient>
<linearGradient id="paint41_linear_45_1790" x1="19.2266" y1="145.182" x2="-52.1751" y2="-36.6219" gradientUnits="userSpaceOnUse">
<stop stop-color="#97C3F9"/>
<stop offset="1" stop-color="#93C1F9"/>
</linearGradient>
<linearGradient id="paint42_linear_45_1790" x1="45.431" y1="134.89" x2="-25.9707" y2="-46.9134" gradientUnits="userSpaceOnUse">
<stop/>
<stop offset="1" stop-color="white"/>
</linearGradient>
<linearGradient id="paint43_linear_45_1790" x1="45.431" y1="134.89" x2="-25.9707" y2="-46.9134" gradientUnits="userSpaceOnUse">
<stop stop-color="#97C3F9"/>
<stop offset="1" stop-color="#93C1F9"/>
</linearGradient>
<linearGradient id="paint44_linear_45_1790" x1="71.6353" y1="124.599" x2="0.233722" y2="-57.2047" gradientUnits="userSpaceOnUse">
<stop/>
<stop offset="1" stop-color="white"/>
</linearGradient>
<linearGradient id="paint45_linear_45_1790" x1="71.6353" y1="124.599" x2="0.233722" y2="-57.2047" gradientUnits="userSpaceOnUse">
<stop stop-color="#97C3F9"/>
<stop offset="1" stop-color="#93C1F9"/>
</linearGradient>
<linearGradient id="paint46_linear_45_1790" x1="97.8397" y1="114.307" x2="26.438" y2="-67.4964" gradientUnits="userSpaceOnUse">
<stop/>
<stop offset="1" stop-color="white"/>
</linearGradient>
<linearGradient id="paint47_linear_45_1790" x1="97.8397" y1="114.307" x2="26.438" y2="-67.4964" gradientUnits="userSpaceOnUse">
<stop stop-color="#97C3F9"/>
<stop offset="1" stop-color="#93C1F9"/>
</linearGradient>
<linearGradient id="paint48_linear_45_1790" x1="124.044" y1="104.016" x2="52.6424" y2="-77.7879" gradientUnits="userSpaceOnUse">
<stop/>
<stop offset="1" stop-color="white"/>
</linearGradient>
<linearGradient id="paint49_linear_45_1790" x1="124.044" y1="104.016" x2="52.6424" y2="-77.7879" gradientUnits="userSpaceOnUse">
<stop stop-color="#97C3F9"/>
<stop offset="1" stop-color="#93C1F9"/>
</linearGradient>
<linearGradient id="paint50_linear_45_1790" x1="64.996" y1="525.134" x2="-6.40569" y2="343.33" gradientUnits="userSpaceOnUse">
<stop/>
<stop offset="1" stop-color="white"/>
</linearGradient>
<linearGradient id="paint51_linear_45_1790" x1="64.996" y1="525.134" x2="-6.40569" y2="343.33" gradientUnits="userSpaceOnUse">
<stop stop-color="#97C3F9"/>
<stop offset="1" stop-color="#93C1F9"/>
</linearGradient>
<linearGradient id="paint52_linear_45_1790" x1="91.2005" y1="514.843" x2="19.7989" y2="333.039" gradientUnits="userSpaceOnUse">
<stop/>
<stop offset="1" stop-color="white"/>
</linearGradient>
<linearGradient id="paint53_linear_45_1790" x1="91.2005" y1="514.843" x2="19.7989" y2="333.039" gradientUnits="userSpaceOnUse">
<stop stop-color="#97C3F9"/>
<stop offset="1" stop-color="#93C1F9"/>
</linearGradient>
<linearGradient id="paint54_linear_45_1790" x1="117.405" y1="504.551" x2="46.0033" y2="322.747" gradientUnits="userSpaceOnUse">
<stop/>
<stop offset="1" stop-color="white"/>
</linearGradient>
<linearGradient id="paint55_linear_45_1790" x1="117.405" y1="504.551" x2="46.0033" y2="322.747" gradientUnits="userSpaceOnUse">
<stop stop-color="#97C3F9"/>
<stop offset="1" stop-color="#93C1F9"/>
</linearGradient>
<linearGradient id="paint56_linear_45_1790" x1="143.609" y1="494.259" x2="72.2075" y2="312.456" gradientUnits="userSpaceOnUse">
<stop/>
<stop offset="1" stop-color="white"/>
</linearGradient>
<linearGradient id="paint57_linear_45_1790" x1="143.609" y1="494.259" x2="72.2075" y2="312.456" gradientUnits="userSpaceOnUse">
<stop stop-color="#97C3F9"/>
<stop offset="1" stop-color="#93C1F9"/>
</linearGradient>
<linearGradient id="paint58_linear_45_1790" x1="169.813" y1="483.968" x2="98.4118" y2="302.164" gradientUnits="userSpaceOnUse">
<stop/>
<stop offset="1" stop-color="white"/>
</linearGradient>
<linearGradient id="paint59_linear_45_1790" x1="169.813" y1="483.968" x2="98.4118" y2="302.164" gradientUnits="userSpaceOnUse">
<stop stop-color="#97C3F9"/>
<stop offset="1" stop-color="#93C1F9"/>
</linearGradient>
<linearGradient id="paint60_linear_45_1790" x1="56.0538" y1="528.645" x2="-15.3466" y2="346.843" gradientUnits="userSpaceOnUse">
<stop/>
<stop offset="1" stop-color="white"/>
</linearGradient>
<linearGradient id="paint61_linear_45_1790" x1="56.0538" y1="528.645" x2="-15.3466" y2="346.843" gradientUnits="userSpaceOnUse">
<stop stop-color="#97C3F9"/>
<stop offset="1" stop-color="#93C1F9"/>
</linearGradient>
<linearGradient id="paint62_linear_45_1790" x1="82.2581" y1="518.354" x2="10.8577" y2="336.551" gradientUnits="userSpaceOnUse">
<stop/>
<stop offset="1" stop-color="white"/>
</linearGradient>
<linearGradient id="paint63_linear_45_1790" x1="82.2581" y1="518.354" x2="10.8577" y2="336.551" gradientUnits="userSpaceOnUse">
<stop stop-color="#97C3F9"/>
<stop offset="1" stop-color="#93C1F9"/>
</linearGradient>
<linearGradient id="paint64_linear_45_1790" x1="108.462" y1="508.062" x2="37.062" y2="326.26" gradientUnits="userSpaceOnUse">
<stop/>
<stop offset="1" stop-color="white"/>
</linearGradient>
<linearGradient id="paint65_linear_45_1790" x1="108.462" y1="508.062" x2="37.062" y2="326.26" gradientUnits="userSpaceOnUse">
<stop stop-color="#97C3F9"/>
<stop offset="1" stop-color="#93C1F9"/>
</linearGradient>
<linearGradient id="paint66_linear_45_1790" x1="134.667" y1="497.771" x2="63.2663" y2="315.968" gradientUnits="userSpaceOnUse">
<stop/>
<stop offset="1" stop-color="white"/>
</linearGradient>
<linearGradient id="paint67_linear_45_1790" x1="134.667" y1="497.771" x2="63.2663" y2="315.968" gradientUnits="userSpaceOnUse">
<stop stop-color="#97C3F9"/>
<stop offset="1" stop-color="#93C1F9"/>
</linearGradient>
<linearGradient id="paint68_linear_45_1790" x1="160.871" y1="487.479" x2="89.4707" y2="305.677" gradientUnits="userSpaceOnUse">
<stop/>
<stop offset="1" stop-color="white"/>
</linearGradient>
<linearGradient id="paint69_linear_45_1790" x1="160.871" y1="487.479" x2="89.4707" y2="305.677" gradientUnits="userSpaceOnUse">
<stop stop-color="#97C3F9"/>
<stop offset="1" stop-color="#93C1F9"/>
</linearGradient>
<linearGradient id="paint70_linear_45_1790" x1="47.1113" y1="532.158" x2="-24.2903" y2="350.354" gradientUnits="userSpaceOnUse">
<stop/>
<stop offset="1" stop-color="white"/>
</linearGradient>
<linearGradient id="paint71_linear_45_1790" x1="47.1113" y1="532.158" x2="-24.2903" y2="350.354" gradientUnits="userSpaceOnUse">
<stop stop-color="#97C3F9"/>
<stop offset="1" stop-color="#93C1F9"/>
</linearGradient>
<linearGradient id="paint72_linear_45_1790" x1="73.3157" y1="521.866" x2="1.91409" y2="340.063" gradientUnits="userSpaceOnUse">
<stop/>
<stop offset="1" stop-color="white"/>
</linearGradient>
<linearGradient id="paint73_linear_45_1790" x1="73.3157" y1="521.866" x2="1.91409" y2="340.063" gradientUnits="userSpaceOnUse">
<stop stop-color="#97C3F9"/>
<stop offset="1" stop-color="#93C1F9"/>
</linearGradient>
<linearGradient id="paint74_linear_45_1790" x1="99.52" y1="511.575" x2="28.1185" y2="329.771" gradientUnits="userSpaceOnUse">
<stop/>
<stop offset="1" stop-color="white"/>
</linearGradient>
<linearGradient id="paint75_linear_45_1790" x1="99.52" y1="511.575" x2="28.1185" y2="329.771" gradientUnits="userSpaceOnUse">
<stop stop-color="#97C3F9"/>
<stop offset="1" stop-color="#93C1F9"/>
</linearGradient>
<linearGradient id="paint76_linear_45_1790" x1="125.724" y1="501.283" x2="54.3227" y2="319.48" gradientUnits="userSpaceOnUse">
<stop/>
<stop offset="1" stop-color="white"/>
</linearGradient>
<linearGradient id="paint77_linear_45_1790" x1="125.724" y1="501.283" x2="54.3227" y2="319.48" gradientUnits="userSpaceOnUse">
<stop stop-color="#97C3F9"/>
<stop offset="1" stop-color="#93C1F9"/>
</linearGradient>
<linearGradient id="paint78_linear_45_1790" x1="151.929" y1="490.992" x2="80.5271" y2="309.188" gradientUnits="userSpaceOnUse">
<stop/>
<stop offset="1" stop-color="white"/>
</linearGradient>
<linearGradient id="paint79_linear_45_1790" x1="151.929" y1="490.992" x2="80.5271" y2="309.188" gradientUnits="userSpaceOnUse">
<stop stop-color="#97C3F9"/>
<stop offset="1" stop-color="#93C1F9"/>
</linearGradient>
<linearGradient id="paint80_linear_45_1790" x1="38.169" y1="535.67" x2="-33.2327" y2="353.866" gradientUnits="userSpaceOnUse">
<stop/>
<stop offset="1" stop-color="white"/>
</linearGradient>
<linearGradient id="paint81_linear_45_1790" x1="38.169" y1="535.67" x2="-33.2327" y2="353.866" gradientUnits="userSpaceOnUse">
<stop stop-color="#97C3F9"/>
<stop offset="1" stop-color="#93C1F9"/>
</linearGradient>
<linearGradient id="paint82_linear_45_1790" x1="64.3734" y1="525.379" x2="-7.02831" y2="343.575" gradientUnits="userSpaceOnUse">
<stop/>
<stop offset="1" stop-color="white"/>
</linearGradient>
<linearGradient id="paint83_linear_45_1790" x1="64.3734" y1="525.379" x2="-7.02831" y2="343.575" gradientUnits="userSpaceOnUse">
<stop stop-color="#97C3F9"/>
<stop offset="1" stop-color="#93C1F9"/>
</linearGradient>
<linearGradient id="paint84_linear_45_1790" x1="90.5776" y1="515.087" x2="19.1761" y2="333.283" gradientUnits="userSpaceOnUse">
<stop/>
<stop offset="1" stop-color="white"/>
</linearGradient>
<linearGradient id="paint85_linear_45_1790" x1="90.5776" y1="515.087" x2="19.1761" y2="333.283" gradientUnits="userSpaceOnUse">
<stop stop-color="#97C3F9"/>
<stop offset="1" stop-color="#93C1F9"/>
</linearGradient>
<linearGradient id="paint86_linear_45_1790" x1="116.782" y1="504.795" x2="45.3804" y2="322.992" gradientUnits="userSpaceOnUse">
<stop/>
<stop offset="1" stop-color="white"/>
</linearGradient>
<linearGradient id="paint87_linear_45_1790" x1="116.782" y1="504.795" x2="45.3804" y2="322.992" gradientUnits="userSpaceOnUse">
<stop stop-color="#97C3F9"/>
<stop offset="1" stop-color="#93C1F9"/>
</linearGradient>
<linearGradient id="paint88_linear_45_1790" x1="142.986" y1="494.504" x2="71.5847" y2="312.7" gradientUnits="userSpaceOnUse">
<stop/>
<stop offset="1" stop-color="white"/>
</linearGradient>
<linearGradient id="paint89_linear_45_1790" x1="142.986" y1="494.504" x2="71.5847" y2="312.7" gradientUnits="userSpaceOnUse">
<stop stop-color="#97C3F9"/>
<stop offset="1" stop-color="#93C1F9"/>
</linearGradient>
<linearGradient id="paint90_linear_45_1790" x1="29.2266" y1="539.182" x2="-42.1751" y2="357.378" gradientUnits="userSpaceOnUse">
<stop/>
<stop offset="1" stop-color="white"/>
</linearGradient>
<linearGradient id="paint91_linear_45_1790" x1="29.2266" y1="539.182" x2="-42.1751" y2="357.378" gradientUnits="userSpaceOnUse">
<stop stop-color="#97C3F9"/>
<stop offset="1" stop-color="#93C1F9"/>
</linearGradient>
<linearGradient id="paint92_linear_45_1790" x1="55.431" y1="528.89" x2="-15.9707" y2="347.087" gradientUnits="userSpaceOnUse">
<stop/>
<stop offset="1" stop-color="white"/>
</linearGradient>
<linearGradient id="paint93_linear_45_1790" x1="55.431" y1="528.89" x2="-15.9707" y2="347.087" gradientUnits="userSpaceOnUse">
<stop stop-color="#97C3F9"/>
<stop offset="1" stop-color="#93C1F9"/>
</linearGradient>
<linearGradient id="paint94_linear_45_1790" x1="81.6353" y1="518.599" x2="10.2337" y2="336.795" gradientUnits="userSpaceOnUse">
<stop/>
<stop offset="1" stop-color="white"/>
</linearGradient>
<linearGradient id="paint95_linear_45_1790" x1="81.6353" y1="518.599" x2="10.2337" y2="336.795" gradientUnits="userSpaceOnUse">
<stop stop-color="#97C3F9"/>
<stop offset="1" stop-color="#93C1F9"/>
</linearGradient>
<linearGradient id="paint96_linear_45_1790" x1="107.84" y1="508.307" x2="36.438" y2="326.504" gradientUnits="userSpaceOnUse">
<stop/>
<stop offset="1" stop-color="white"/>
</linearGradient>
<linearGradient id="paint97_linear_45_1790" x1="107.84" y1="508.307" x2="36.438" y2="326.504" gradientUnits="userSpaceOnUse">
<stop stop-color="#97C3F9"/>
<stop offset="1" stop-color="#93C1F9"/>
</linearGradient>
<linearGradient id="paint98_linear_45_1790" x1="134.044" y1="498.016" x2="62.6424" y2="316.212" gradientUnits="userSpaceOnUse">
<stop/>
<stop offset="1" stop-color="white"/>
</linearGradient>
<linearGradient id="paint99_linear_45_1790" x1="134.044" y1="498.016" x2="62.6424" y2="316.212" gradientUnits="userSpaceOnUse">
<stop stop-color="#97C3F9"/>
<stop offset="1" stop-color="#93C1F9"/>
</linearGradient>
<clipPath id="clip0_45_1790">
<rect width="641" height="484" fill="white" transform="translate(66 25)"/>
</clipPath>
</defs>
</svg>
