<svg width="2500" height="1800" viewBox="0 0 2500 1800" fill="none" xmlns="http://www.w3.org/2000/svg">
<rect width="2500" height="1800" fill="#3F3D56"/>
<path opacity="0.3" d="M1604.26 1120.2L1245.44 820.479L1594.03 1132.21C1594.71 1133.35 1595.64 1134.31 1596.76 1135.01C1597.88 1135.72 1599.15 1136.14 1600.47 1136.26C1601.79 1136.37 1603.11 1136.17 1604.34 1135.67C1605.56 1135.16 1606.65 1134.37 1607.51 1133.37C1608.37 1132.36 1608.97 1131.16 1609.28 1129.87C1609.58 1128.58 1609.58 1127.23 1609.26 1125.95C1608.94 1124.66 1608.32 1123.47 1607.45 1122.47C1606.59 1121.47 1605.49 1120.69 1604.26 1120.2Z" fill="#F0F0F0"/>
<path d="M1697.11 658.466C1702.05 658.466 1706.05 654.449 1706.05 649.494C1706.05 644.538 1702.05 640.521 1697.11 640.521C1692.16 640.521 1688.16 644.538 1688.16 649.494C1688.16 654.449 1692.16 658.466 1697.11 658.466Z" fill="#9747FF"/>
<path d="M1614.56 440.181C1617.44 440.181 1619.78 437.834 1619.78 434.939C1619.78 432.044 1617.44 429.697 1614.56 429.697C1611.67 429.697 1609.33 432.044 1609.33 434.939C1609.33 437.834 1611.67 440.181 1614.56 440.181Z" fill="#F0F0F0"/>
<path d="M1988.71 266.914C1991.59 266.914 1993.94 264.567 1993.94 261.672C1993.94 258.777 1991.59 256.43 1988.71 256.43C1985.82 256.43 1983.48 258.777 1983.48 261.672C1983.48 264.567 1985.82 266.914 1988.71 266.914Z" fill="#F0F0F0"/>
<path d="M1554.79 228.999C1557.68 228.999 1560.02 226.652 1560.02 223.757C1560.02 220.862 1557.68 218.515 1554.79 218.515C1551.9 218.515 1549.56 220.862 1549.56 223.757C1549.56 226.652 1551.9 228.999 1554.79 228.999Z" fill="#F0F0F0"/>
<path d="M258.015 255.939C260.902 255.939 263.243 253.592 263.243 250.697C263.243 247.802 260.902 245.455 258.015 245.455C255.127 245.455 252.787 247.802 252.787 250.697C252.787 253.592 255.127 255.939 258.015 255.939Z" fill="#F0F0F0"/>
<path d="M376.446 1636.87C379.334 1636.87 381.674 1634.52 381.674 1631.63C381.674 1628.73 379.334 1626.39 376.446 1626.39C373.559 1626.39 371.218 1628.73 371.218 1631.63C371.218 1634.52 373.559 1636.87 376.446 1636.87Z" fill="#F0F0F0"/>
<path d="M775.867 1467.7C778.754 1467.7 781.095 1465.36 781.095 1462.46C781.095 1459.57 778.754 1457.22 775.867 1457.22C772.979 1457.22 770.639 1459.57 770.639 1462.46C770.639 1465.36 772.979 1467.7 775.867 1467.7Z" fill="#F0F0F0"/>
<path d="M1644.23 953.084C1647.12 953.084 1649.46 950.737 1649.46 947.842C1649.46 944.947 1647.12 942.6 1644.23 942.6C1641.35 942.6 1639.01 944.947 1639.01 947.842C1639.01 950.737 1641.35 953.084 1644.23 953.084Z" fill="#F0F0F0"/>
<path d="M969.598 1002.59C974.54 1002.59 978.546 998.572 978.546 993.617C978.546 988.662 974.54 984.645 969.598 984.645C964.656 984.645 960.649 988.662 960.649 993.617C960.649 998.572 964.656 1002.59 969.598 1002.59Z" fill="#9747FF"/>
<path d="M645.724 1195.93C669.062 1195.93 687.98 1176.96 687.98 1153.56C687.98 1130.16 669.062 1111.19 645.724 1111.19C622.387 1111.19 603.468 1130.16 603.468 1153.56C603.468 1176.96 622.387 1195.93 645.724 1195.93Z" fill="#9747FF"/>
<path d="M877.379 1205.98C880.267 1205.98 882.608 1203.63 882.608 1200.73C882.608 1197.84 880.267 1195.49 877.379 1195.49C874.492 1195.49 872.151 1197.84 872.151 1200.73C872.151 1203.63 874.492 1205.98 877.379 1205.98Z" fill="#F0F0F0"/>
<path d="M1409.11 386.866C1412 386.866 1414.34 384.519 1414.34 381.624C1414.34 378.729 1412 376.382 1409.11 376.382C1406.23 376.382 1403.88 378.729 1403.88 381.624C1403.88 384.519 1406.23 386.866 1409.11 386.866Z" fill="#F0F0F0"/>
<path d="M1097.32 1504.06C1100.21 1504.06 1102.55 1501.71 1102.55 1498.81C1102.55 1495.92 1100.21 1493.57 1097.32 1493.57C1094.44 1493.57 1092.1 1495.92 1092.1 1498.81C1092.1 1501.71 1094.44 1504.06 1097.32 1504.06Z" fill="#F0F0F0"/>
<path d="M1019.98 435.334C1022.87 435.334 1025.21 432.987 1025.21 430.092C1025.21 427.197 1022.87 424.85 1019.98 424.85C1017.09 424.85 1014.75 427.197 1014.75 430.092C1014.75 432.987 1017.09 435.334 1019.98 435.334Z" fill="#F0F0F0"/>
<path d="M2342.01 1677.78C2344.9 1677.78 2347.24 1675.43 2347.24 1672.54C2347.24 1669.64 2344.9 1667.29 2342.01 1667.29C2339.12 1667.29 2336.78 1669.64 2336.78 1672.54C2336.78 1675.43 2339.12 1677.78 2342.01 1677.78Z" fill="#F0F0F0"/>
<path d="M472.983 78.3331C475.87 78.3331 478.211 75.9862 478.211 73.0911C478.211 70.196 475.87 67.8491 472.983 67.8491C470.096 67.8491 467.755 70.196 467.755 73.0911C467.755 75.9862 470.096 78.3331 472.983 78.3331Z" fill="#F0F0F0"/>
<path d="M2225.57 89.3087C2228.46 89.3087 2230.8 86.9618 2230.8 84.0667C2230.8 81.1716 2228.46 78.8247 2225.57 78.8247C2222.68 78.8247 2220.34 81.1716 2220.34 84.0667C2220.34 86.9618 2222.68 89.3087 2225.57 89.3087Z" fill="#F0F0F0"/>
<path d="M1240.3 1724.67C1243.19 1724.67 1245.53 1722.33 1245.53 1719.43C1245.53 1716.54 1243.19 1714.19 1240.3 1714.19C1237.41 1714.19 1235.07 1716.54 1235.07 1719.43C1235.07 1722.33 1237.41 1724.67 1240.3 1724.67Z" fill="#F0F0F0"/>
<path d="M160.483 942.413C163.37 942.413 165.711 940.066 165.711 937.171C165.711 934.276 163.37 931.929 160.483 931.929C157.596 931.929 155.255 934.276 155.255 937.171C155.255 940.066 157.596 942.413 160.483 942.413Z" fill="#F0F0F0"/>
<path d="M1155.33 689.792C1158.22 689.792 1160.56 687.445 1160.56 684.55C1160.56 681.655 1158.22 679.308 1155.33 679.308C1152.44 679.308 1150.1 681.655 1150.1 684.55C1150.1 687.445 1152.44 689.792 1155.33 689.792Z" fill="#F0F0F0"/>
<path d="M948.147 1314.17C951.034 1314.17 953.375 1311.82 953.375 1308.93C953.375 1306.03 951.034 1303.69 948.147 1303.69C945.26 1303.69 942.919 1306.03 942.919 1308.93C942.919 1311.82 945.26 1314.17 948.147 1314.17Z" fill="#F0F0F0"/>
<path d="M1559.64 1348.1C1562.53 1348.1 1564.87 1345.75 1564.87 1342.86C1564.87 1339.96 1562.53 1337.61 1559.64 1337.61C1556.75 1337.61 1554.41 1339.96 1554.41 1342.86C1554.41 1345.75 1556.75 1348.1 1559.64 1348.1Z" fill="#F0F0F0"/>
<path d="M1288.94 1042.75C1291.83 1042.75 1294.17 1040.4 1294.17 1037.51C1294.17 1034.61 1291.83 1032.27 1288.94 1032.27C1286.05 1032.27 1283.71 1034.61 1283.71 1037.51C1283.71 1040.4 1286.05 1042.75 1288.94 1042.75Z" fill="#F0F0F0"/>
<path d="M1426.71 688.932C1429.59 688.932 1431.93 686.585 1431.93 683.69C1431.93 680.795 1429.59 678.448 1426.71 678.448C1423.82 678.448 1421.48 680.795 1421.48 683.69C1421.48 686.585 1423.82 688.932 1426.71 688.932Z" fill="#F0F0F0"/>
<path d="M1677.18 863.869C1682.9 863.869 1687.55 859.216 1687.55 853.475C1687.55 847.735 1682.9 843.082 1677.18 843.082C1671.45 843.082 1666.81 847.735 1666.81 853.475C1666.81 859.216 1671.45 863.869 1677.18 863.869Z" fill="#FF6584"/>
<path d="M1256.63 519.745C1262.35 519.745 1266.99 515.092 1266.99 509.352C1266.99 503.611 1262.35 498.958 1256.63 498.958C1250.9 498.958 1246.26 503.611 1246.26 509.352C1246.26 515.092 1250.9 519.745 1256.63 519.745Z" fill="#FF6584"/>
<path d="M1256.63 1234.65C1262.35 1234.65 1266.99 1230 1266.99 1224.26C1266.99 1218.52 1262.35 1213.86 1256.63 1213.86C1250.9 1213.86 1246.26 1218.52 1246.26 1224.26C1246.26 1230 1250.9 1234.65 1256.63 1234.65Z" fill="#FF6584"/>
<path d="M893.129 658.37C898.854 658.37 903.495 653.717 903.495 647.977C903.495 642.236 898.854 637.583 893.129 637.583C887.404 637.583 882.763 642.236 882.763 647.977C882.763 653.717 887.404 658.37 893.129 658.37Z" fill="#FF6584"/>
<path d="M2146.11 1615.24C2151.84 1615.24 2156.48 1610.59 2156.48 1604.85C2156.48 1599.11 2151.84 1594.46 2146.11 1594.46C2140.39 1594.46 2135.75 1599.11 2135.75 1604.85C2135.75 1610.59 2140.39 1615.24 2146.11 1615.24Z" fill="#FF6584"/>
<path d="M1801.77 413.914C1807.49 413.914 1812.13 409.26 1812.13 403.52C1812.13 397.78 1807.49 393.126 1801.77 393.126C1796.04 393.126 1791.4 397.78 1791.4 403.52C1791.4 409.26 1796.04 413.914 1801.77 413.914Z" fill="#FF6584"/>
<path d="M2000.31 1454.77C1965.52 1454.77 1927.38 1453.58 1885.9 1451.22C1671.36 1438.96 1393.46 1396.35 1103.4 1331.23C813.335 1266.11 545.762 1186.27 349.971 1106.41C254.595 1067.5 181.395 1030.68 132.405 996.95C80.5384 961.246 57.8511 930.124 64.9709 904.452C78.8437 854.44 201.681 843.498 302.286 843.126L302.32 850.4C164.163 850.91 82.657 870.732 72.816 906.214C60.2801 951.405 162.517 1021.96 353.309 1099.78C548.67 1179.47 815.751 1259.16 1105.36 1324.17C1394.96 1389.19 1672.34 1431.73 1886.42 1443.96C2095.47 1455.91 2222.57 1436.84 2235.11 1391.65C2245.51 1354.12 2176.91 1298.85 2041.92 1236L2045.63 1229.54C2143.72 1275.21 2257.57 1340.71 2242.95 1393.41C2235.83 1419.08 2199.55 1436.96 2135.12 1446.56C2098.39 1452.03 2053.28 1454.77 2000.31 1454.77Z" fill="#9747FF"/>
<path d="M2101.63 893.844C2235.78 893.844 2344.53 784.802 2344.53 650.292C2344.53 515.782 2235.78 406.74 2101.63 406.74C1967.47 406.74 1858.72 515.782 1858.72 650.292C1858.72 784.802 1967.47 893.844 2101.63 893.844Z" fill="white" fill-opacity="0.12"/>
<path d="M2101.63 403.106C2052.87 403.106 2005.2 417.603 1964.66 444.764C1924.12 471.925 1892.52 510.531 1873.86 555.698C1855.2 600.866 1850.32 650.567 1859.83 698.516C1869.35 746.466 1892.83 790.511 1927.3 825.08C1961.78 859.65 2005.71 883.192 2053.53 892.73C2101.35 902.268 2150.92 897.373 2195.97 878.664C2241.02 859.955 2279.52 828.272 2306.61 787.622C2333.7 746.973 2348.16 699.182 2348.16 650.293C2348.27 617.799 2341.98 585.603 2329.63 555.56C2317.28 525.517 2299.13 498.221 2276.21 475.244C2253.29 452.268 2226.07 434.064 2196.11 421.683C2166.14 409.303 2134.03 402.989 2101.63 403.106ZM2101.63 890.21C2054.3 890.21 2008.04 876.139 1968.69 849.776C1929.34 823.414 1898.67 785.944 1880.56 742.105C1862.45 698.266 1857.71 650.026 1866.94 603.487C1876.18 556.948 1898.97 514.199 1932.43 480.646C1965.89 447.093 2008.53 424.243 2054.95 414.986C2101.36 405.729 2149.47 410.48 2193.2 428.638C2236.92 446.797 2274.29 477.548 2300.58 517.002C2326.87 556.456 2340.91 602.842 2340.91 650.293C2341.03 681.833 2334.92 713.086 2322.94 742.25C2310.96 771.413 2293.34 797.91 2271.1 820.213C2248.85 842.515 2222.43 860.183 2193.34 872.197C2164.25 884.21 2133.08 890.332 2101.63 890.21Z" fill="#2F2E41"/>
<path d="M1955.29 1210.31C1951.25 1210.31 1947.33 1211.64 1944.1 1214.08C1940.88 1216.52 1938.54 1219.94 1937.43 1223.83C1936.94 1225.5 1936.7 1227.23 1936.7 1228.97V1258.15C1943.93 1251.29 1951 1244.27 1957.93 1237.09C1966.41 1228.36 1974.67 1219.44 1982.7 1210.31H1955.29Z" fill="#9747FF"/>
<path d="M1888.46 708.625C1887.35 708.624 1886.27 708.238 1885.41 707.533C1884.55 706.828 1883.96 705.846 1883.73 704.754C1876.78 669.267 1878.04 632.657 1887.4 597.732C1896.76 562.807 1913.98 530.498 1937.73 503.284C1938.58 502.329 1939.78 501.752 1941.06 501.68C1942.33 501.609 1943.59 502.048 1944.54 502.901C1945.5 503.755 1946.08 504.953 1946.15 506.233C1946.23 507.514 1945.79 508.772 1944.95 509.733C1922.18 535.812 1905.68 566.774 1896.71 600.242C1887.75 633.711 1886.54 668.795 1893.2 702.801C1893.34 703.506 1893.33 704.234 1893.16 704.933C1892.99 705.632 1892.66 706.283 1892.21 706.841C1891.76 707.398 1891.18 707.848 1890.54 708.156C1889.89 708.465 1889.18 708.625 1888.46 708.625Z" fill="#2F2E41"/>
<path d="M2101.47 876.565C2186.74 876.565 2255.86 807.259 2255.86 721.765C2255.86 636.272 2186.74 566.965 2101.47 566.965C2016.21 566.965 1947.09 636.272 1947.09 721.765C1947.09 807.259 2016.21 876.565 2101.47 876.565Z" fill="#9747FF"/>
<path d="M2052.41 780.209C2042.4 779.93 2029.94 779.582 2020.35 772.554C2017.49 770.375 2015.14 767.597 2013.47 764.412C2011.8 761.228 2010.84 757.716 2010.66 754.121C2010.49 751.567 2010.91 749.006 2011.88 746.64C2012.86 744.274 2014.37 742.167 2016.29 740.483C2021.3 736.237 2028.62 735.241 2036.51 737.565L2028.34 677.692L2034.34 676.868L2043.94 747.256L2038.93 744.952C2033.13 742.281 2025.15 740.922 2020.2 745.119C2018.98 746.216 2018.04 747.58 2017.43 749.105C2016.83 750.629 2016.58 752.273 2016.71 753.908C2016.86 756.583 2017.58 759.196 2018.82 761.567C2020.07 763.939 2021.8 766.014 2023.92 767.651C2031.39 773.12 2041.32 773.825 2052.58 774.141L2052.41 780.209Z" fill="#2F2E41"/>
<path d="M1998.67 682.855H1966.07V688.926H1998.67V682.855Z" fill="#2F2E41"/>
<path d="M2101.6 682.855H2068.99V688.926H2101.6V682.855Z" fill="#2F2E41"/>
<path d="M2109.95 917.824H1970.01C1964.79 917.829 1959.79 919.909 1956.1 923.607C1952.41 927.306 1950.34 932.32 1950.33 937.551V1248.55C1950.35 1269.62 1956.11 1290.29 1967 1308.32C1977.89 1326.34 1993.49 1341.04 2012.11 1350.81C2017.84 1345.68 2023.49 1340.43 2029.05 1335.06C2036.28 1328.2 2043.35 1321.18 2050.27 1314C2058.76 1305.28 2067.02 1296.35 2075.05 1287.22C2081.62 1279.81 2088.02 1272.25 2094.24 1264.54C2097.02 1261.12 2099.76 1257.67 2102.46 1254.17C2167.21 1170.73 2212.6 1069.84 2221.61 965.444C2207.16 950.375 2189.82 938.39 2170.63 930.207C2151.44 922.024 2130.8 917.812 2109.95 917.824Z" fill="#2F2E41"/>
<path d="M2113.06 979.73C2109.73 976.461 2105.79 973.885 2101.46 972.151C2097.13 970.417 2092.51 969.558 2087.85 969.624C2079.75 969.686 2071.93 972.564 2065.71 977.767C2064.72 978.573 2063.77 979.439 2062.88 980.36L1948.34 1098.14L1865.27 1183.56C1864.01 1184.84 1862.96 1186.31 1862.18 1187.92C1860.93 1190.42 1860.29 1193.18 1860.32 1195.97C1860.34 1198.27 1860.82 1200.53 1861.72 1202.64C1862.63 1204.75 1863.94 1206.66 1865.59 1208.26L1868.85 1211.46L1892.53 1234.6L1892.56 1234.57C1895.74 1237.16 1899.72 1238.56 1903.82 1238.53C1906.11 1238.5 1908.37 1238.02 1910.48 1237.11C1912.58 1236.21 1914.48 1234.89 1916.08 1233.24L1919.92 1229.32L1947.42 1201.03L1948.34 1200.09L2113.69 1030.06C2120.26 1023.3 2123.88 1014.21 2123.77 1004.77C2123.65 995.328 2119.8 986.322 2113.06 979.73Z" fill="#9747FF"/>
<path d="M2111.9 649.546C2117 638.721 2111.77 627.159 2102.8 620.245C2091.5 611.532 2076.88 612.973 2064.03 617.097C2049.96 621.612 2036.2 629.738 2021 629.271C2015.58 629.173 2010.32 627.438 2005.9 624.291C2001.48 621.144 1998.12 616.732 1996.24 611.634C1988.1 590.698 1997.29 567.298 2011.47 551.42C2019.47 542.328 2029.36 535.102 2040.44 530.251C2051.52 525.401 2063.53 523.043 2075.62 523.343C2089.42 524.029 2102.84 528.129 2114.68 535.276C2126.51 542.423 2136.4 552.395 2143.46 564.304C2143.96 565.118 2144.76 565.706 2145.68 565.949C2146.61 566.192 2147.59 566.07 2148.42 565.609C2159.18 560.787 2170.78 558.151 2182.56 557.854C2194.34 557.557 2206.06 559.604 2217.05 563.877C2233.53 570.613 2247.58 582.217 2257.32 597.146C2267.07 612.076 2272.06 629.626 2271.63 647.465C2271.5 652.145 2278.76 652.143 2278.88 647.465C2279.33 622.526 2270.15 598.376 2253.26 580.064C2244.68 570.934 2234.37 563.62 2222.92 558.555C2211.48 553.49 2199.14 550.778 2186.63 550.577C2172.19 550.269 2157.87 553.263 2144.76 559.331L2149.72 560.635C2143.19 549.604 2134.41 540.078 2123.96 532.675C2113.5 525.273 2101.61 520.161 2089.06 517.673C2076.63 515.347 2063.85 515.73 2051.57 518.793C2039.3 521.857 2027.83 527.532 2017.94 535.431C1999.33 550.037 1985.22 572.703 1986.1 597.011C1986.48 607.53 1989.6 618.328 1996.88 626.166C2006.21 636.206 2020.14 637.942 2033.01 635.37C2050.11 631.951 2065.72 620.673 2083.55 621.021C2087.04 621.023 2090.49 621.768 2093.68 623.208C2096.86 624.647 2099.7 626.747 2102.02 629.37C2105.94 633.813 2108.31 640.204 2105.64 645.877C2103.65 650.083 2109.9 653.777 2111.9 649.546Z" fill="#2F2E41"/>
<path d="M906.223 1536.59C817.559 1536.59 735.132 1533.63 661.34 1527.66C564.887 1519.85 488.455 1507.31 434.169 1490.37C376.694 1472.43 346.202 1450 343.54 1423.7C338.352 1372.45 441.506 1325.06 528.955 1294.33L531.494 1301.17C411.405 1343.37 347.296 1386.63 350.975 1422.99C355.662 1469.29 469.011 1504.8 661.959 1520.42C859.528 1536.4 1119.53 1530.74 1394.07 1504.46C1668.61 1478.18 1924.76 1434.45 2115.33 1381.31C2301.45 1329.42 2405.5 1273.1 2400.81 1226.79C2396.92 1188.35 2318.12 1157.06 2178.92 1138.68L2179.93 1131.49C2281.07 1144.83 2402.78 1172.08 2408.25 1226.08C2410.91 1252.39 2385.5 1280.17 2332.73 1308.65C2282.88 1335.56 2210.43 1362.36 2117.39 1388.29C1926.4 1441.55 1669.78 1485.37 1394.8 1511.69C1222.3 1528.2 1055.47 1536.59 906.223 1536.59Z" fill="#9747FF"/>
<path d="M2323.31 1200.26C2346.64 1200.26 2365.56 1181.29 2365.56 1157.89C2365.56 1134.49 2346.64 1115.52 2323.31 1115.52C2299.97 1115.52 2281.05 1134.49 2281.05 1157.89C2281.05 1181.29 2299.97 1200.26 2323.31 1200.26Z" fill="#9747FF"/>
<path d="M1032.44 228.992C1055.78 228.992 1074.7 210.023 1074.7 186.623C1074.7 163.224 1055.78 144.255 1032.44 144.255C1009.1 144.255 990.183 163.224 990.183 186.623C990.183 210.023 1009.1 228.992 1032.44 228.992Z" fill="#E6E6E6" fill-opacity="0.54"/>
<path d="M278.344 1237.13C301.682 1237.13 320.6 1218.16 320.6 1194.76C320.6 1171.36 301.682 1152.39 278.344 1152.39C255.007 1152.39 236.088 1171.36 236.088 1194.76C236.088 1218.16 255.007 1237.13 278.344 1237.13Z" fill="#E6E6E6" fill-opacity="0.54"/>
<path d="M539.377 433.089C553.664 433.089 565.245 421.477 565.245 407.153C565.245 392.829 553.664 381.217 539.377 381.217C525.091 381.217 513.51 392.829 513.51 407.153C513.51 421.477 525.091 433.089 539.377 433.089Z" fill="#FF6584"/>
<path d="M418.529 1416.99C432.815 1416.99 444.396 1405.38 444.396 1391.05C444.396 1376.73 432.815 1365.12 418.529 1365.12C404.243 1365.12 392.662 1376.73 392.662 1391.05C392.662 1405.38 404.243 1416.99 418.529 1416.99Z" fill="#FF6584"/>
<path d="M2182.92 992.895C2197.2 992.895 2208.78 981.283 2208.78 966.959C2208.78 952.635 2197.2 941.023 2182.92 941.023C2168.63 941.023 2157.05 952.635 2157.05 966.959C2157.05 981.283 2168.63 992.895 2182.92 992.895Z" fill="#FF6584"/>
<path d="M1791.37 1636.99C1814.7 1636.99 1833.62 1618.02 1833.62 1594.62C1833.62 1571.22 1814.7 1552.25 1791.37 1552.25C1768.03 1552.25 1749.11 1571.22 1749.11 1594.62C1749.11 1618.02 1768.03 1636.99 1791.37 1636.99Z" fill="#E6E6E6" fill-opacity="0.54"/>
<path d="M370.365 877.374C489.167 877.374 585.476 780.81 585.476 661.692C585.476 542.573 489.167 446.009 370.365 446.009C251.563 446.009 155.255 542.573 155.255 661.692C155.255 780.81 251.563 877.374 370.365 877.374Z" fill="#4A50DB" fill-opacity="0.79"/>
<path d="M560.86 644.827C560.862 670.606 555.799 696.132 545.962 719.948C536.124 743.765 521.703 765.405 503.523 783.634C485.344 801.862 463.761 816.321 440.007 826.185C416.254 836.049 390.795 841.125 365.085 841.123C342.17 841.11 319.432 837.091 297.894 829.248C264.216 816.946 234.55 795.617 212.125 767.581C189.7 739.545 175.375 705.879 170.711 670.246C166.047 634.613 171.222 598.38 185.673 565.492C200.123 532.604 223.296 504.322 252.667 483.723C282.038 463.125 316.482 451.001 352.25 448.67C388.017 446.34 423.737 453.893 455.519 470.507C487.302 487.121 513.93 512.159 532.504 542.896C551.078 573.632 560.886 608.889 560.86 644.827Z" fill="#4A50DB"/>
<path d="M331.694 642.304C365.065 642.304 392.118 615.18 392.118 581.719C392.118 548.259 365.065 521.134 331.694 521.134C298.322 521.134 271.27 548.259 271.27 581.719C271.27 615.18 298.322 642.304 331.694 642.304Z" fill="#E4E4E4" fill-opacity="0.83"/>
<path d="M553.668 592.696C540.573 599.014 525.645 600.387 511.622 596.565C497.598 592.743 485.418 583.982 477.313 571.887C469.209 559.792 465.723 545.174 467.495 530.712C469.267 516.249 476.177 502.912 486.96 493.143C519.004 518.543 542.328 553.35 553.668 592.696Z" fill="#F2F2F2" fill-opacity="0.37"/>
<path d="M430.789 734.394C442.803 734.394 452.542 724.629 452.542 712.583C452.542 700.537 442.803 690.772 430.789 690.772C418.776 690.772 409.037 700.537 409.037 712.583C409.037 724.629 418.776 734.394 430.789 734.394Z" fill="#E4E4E4" fill-opacity="0.83"/>
<path d="M341.362 836.177C341.36 838.092 341.108 839.998 340.613 841.848C326.179 840.037 311.998 836.59 298.34 831.572C299.474 826.31 302.509 821.654 306.862 818.5C311.214 815.347 316.575 813.918 321.915 814.489C327.254 815.061 332.194 817.592 335.784 821.596C339.374 825.599 341.361 830.793 341.362 836.177Z" fill="#F2F2F2" fill-opacity="0.37"/>
<path d="M279.927 653.89C279.926 664.955 275.732 675.607 268.193 683.688C260.654 691.769 250.334 696.675 239.322 697.414C234.338 668.607 235.791 639.05 243.576 610.875C253.732 612.572 262.958 617.826 269.614 625.703C276.27 633.579 279.924 643.567 279.927 653.89Z" fill="#F2F2F2" fill-opacity="0.37"/>
<path d="M918.613 803.594L982.256 589.844H1044.23L950.156 860H909.336L918.613 803.594ZM859.98 589.844L923.438 803.594L933.086 860H891.895L798.379 589.844H859.98ZM1128.65 589.844V860H1073.17V589.844H1128.65ZM1362.07 816.582V860H1218.27V816.582H1362.07ZM1236.46 589.844V860H1180.79V589.844H1236.46ZM1343.33 699.873V742.178H1218.27V699.873H1343.33ZM1361.88 589.844V633.447H1218.27V589.844H1361.88ZM1459.67 817.139L1513.48 589.844H1543.54L1550.4 627.695L1493.07 860H1460.78L1459.67 817.139ZM1432.02 589.844L1476.55 817.139L1472.84 860H1436.85L1376.91 589.844H1432.02ZM1597.71 816.211L1641.69 589.844H1696.8L1637.05 860H1601.05L1597.71 816.211ZM1560.42 589.844L1614.6 818.066L1613.12 860H1580.83L1523.12 627.51L1530.55 589.844H1560.42ZM773.33 1113.7H704.492V1070.28H773.33C783.968 1070.28 792.627 1068.55 799.307 1065.09C805.986 1061.5 810.872 1056.55 813.965 1050.24C817.057 1043.94 818.604 1036.82 818.604 1028.91C818.604 1020.87 817.057 1013.38 813.965 1006.46C810.872 999.528 805.986 993.962 799.307 989.756C792.627 985.55 783.968 983.447 773.33 983.447H723.789V1210H668.125V939.844H773.33C794.482 939.844 812.604 943.678 827.695 951.348C842.91 958.893 854.538 969.346 862.578 982.705C870.618 996.064 874.639 1011.34 874.639 1028.54C874.639 1045.98 870.618 1061.07 862.578 1073.81C854.538 1086.55 842.91 1096.38 827.695 1103.31C812.604 1110.24 794.482 1113.7 773.33 1113.7ZM1086.72 1166.58V1210H950.713V1166.58H1086.72ZM968.711 939.844V1210H913.047V939.844H968.711ZM1232.19 986.045L1158.71 1210H1099.52L1199.9 939.844H1237.57L1232.19 986.045ZM1293.23 1210L1219.57 986.045L1213.63 939.844H1251.67L1352.61 1210H1293.23ZM1289.89 1109.43V1153.04H1147.21V1109.43H1289.89ZM1597.53 939.844V1210H1541.87L1433.32 1028.91V1210H1377.66V939.844H1433.32L1542.05 1121.12V939.844H1597.53ZM1786.6 1139.31C1786.6 1134.48 1785.86 1130.15 1784.38 1126.32C1783.01 1122.36 1780.42 1118.77 1776.58 1115.56C1772.75 1112.22 1767.37 1108.94 1760.44 1105.72C1753.51 1102.51 1744.54 1099.17 1733.54 1095.7C1721.29 1091.74 1709.66 1087.29 1698.65 1082.34C1687.77 1077.4 1678.12 1071.64 1669.71 1065.09C1661.42 1058.41 1654.86 1050.68 1650.04 1041.89C1645.34 1033.11 1642.99 1022.91 1642.99 1011.28C1642.99 1000.02 1645.46 989.818 1650.41 980.664C1655.36 971.387 1662.29 963.47 1671.19 956.914C1680.1 950.234 1690.61 945.101 1702.73 941.514C1714.98 937.926 1728.4 936.133 1743 936.133C1762.91 936.133 1780.29 939.72 1795.14 946.895C1809.98 954.069 1821.48 963.903 1829.65 976.396C1837.94 988.89 1842.08 1003.18 1842.08 1019.26H1786.79C1786.79 1011.34 1785.12 1004.41 1781.78 998.477C1778.56 992.415 1773.61 987.653 1766.93 984.189C1760.38 980.726 1752.09 978.994 1742.07 978.994C1732.42 978.994 1724.38 980.479 1717.95 983.447C1711.52 986.292 1706.69 990.189 1703.48 995.137C1700.26 999.961 1698.65 1005.4 1698.65 1011.46C1698.65 1016.04 1699.77 1020.19 1701.99 1023.9C1704.34 1027.61 1707.81 1031.07 1712.38 1034.29C1716.96 1037.5 1722.59 1040.53 1729.27 1043.38C1735.95 1046.22 1743.68 1049.01 1752.46 1051.73C1767.18 1056.18 1780.11 1061.19 1791.24 1066.76C1802.5 1072.32 1811.9 1078.57 1819.44 1085.5C1826.99 1092.43 1832.68 1100.28 1836.51 1109.06C1840.35 1117.85 1842.27 1127.8 1842.27 1138.94C1842.27 1150.69 1839.98 1161.2 1835.4 1170.48C1830.82 1179.76 1824.21 1187.61 1815.55 1194.04C1806.89 1200.48 1796.56 1205.36 1784.56 1208.7C1772.56 1212.04 1759.14 1213.71 1744.3 1213.71C1730.94 1213.71 1717.76 1211.98 1704.78 1208.52C1691.79 1204.93 1679.97 1199.55 1669.34 1192.37C1658.82 1185.2 1650.41 1176.04 1644.1 1164.91C1637.79 1153.78 1634.64 1140.61 1634.64 1125.39H1690.49C1690.49 1133.8 1691.79 1140.91 1694.38 1146.73C1696.98 1152.54 1700.63 1157.24 1705.33 1160.83C1710.16 1164.42 1715.85 1167.01 1722.4 1168.62C1729.08 1170.23 1736.38 1171.04 1744.3 1171.04C1753.95 1171.04 1761.86 1169.67 1768.05 1166.95C1774.36 1164.23 1778.99 1160.46 1781.96 1155.63C1785.06 1150.81 1786.6 1145.37 1786.6 1139.31Z" fill="white"/>
</svg>
